<?xml version="1.0" encoding="utf-8"?>
<!-- Generator: Adobe Illustrator 28.6.0, SVG Export Plug-In . SVG Version: 9.03 Build 54939)  -->
<svg version="1.1" baseProfile="basic" id="Layer_1"
	 xmlns="http://www.w3.org/2000/svg" xmlns:xlink="http://www.w3.org/1999/xlink" x="0px" y="0px" viewBox="0 0 1740.2 438.8"
	 xml:space="preserve">
<style type="text/css">
	.st0{fill:#41AAC0;}
	.st1{fill:#2E6B97;}
	.st2{fill:#141414;}
	.st3{fill:#FFFFFF;}
</style>
<g>
	<g id="Layer_1_00000106826194496473316820000004548249388909916815_">
		<g>
			<path class="st0" d="M335.6,232.2c15.2,0,27.7-12.4,27.7-27.7s-12.4-27.7-27.7-27.7s-27.7,12.4-27.7,27.7
				S320.3,232.2,335.6,232.2z M335.6,190.3c7.9,0,14.2,6.4,14.2,14.2s-6.4,14.2-14.2,14.2s-14.2-6.4-14.2-14.2
				S327.8,190.3,335.6,190.3z"/>
			<path class="st0" d="M66.8,322.8c15.2,0,27.7-12.4,27.7-27.7s-12.4-27.7-27.7-27.7s-27.7,12.4-27.7,27.7S51.5,322.8,66.8,322.8z
				 M66.8,280.9c7.9,0,14.2,6.4,14.2,14.2s-6.4,14.2-14.2,14.2s-14.2-6.4-14.2-14.2S59,280.9,66.8,280.9z"/>
			<path class="st0" d="M117.4,213.2c10,0,18.2-8.1,18.2-18.2s-8.1-18.2-18.2-18.2s-18.2,8.1-18.2,18.2S107.3,213.2,117.4,213.2z
				 M117.4,190.3c2.6,0,4.8,2.1,4.8,4.8s-2.1,4.8-4.8,4.8s-4.8-2.1-4.8-4.8S114.7,190.3,117.4,190.3z"/>
			<path class="st1" d="M507.2,390.8h-53.6c5.9-4.9,11.5-10.8,16.6-17.5c13.8-18,19.8-35.9,20-36.6c0,0,0-0.1,0-0.2
				c0-0.3,0.2-0.6,0.2-0.9c0-0.1,0-0.3,0-0.4c0-0.2,0-0.5,0-0.7s0-0.3,0-0.5c0-0.3,0-0.7,0-1c0-0.2,0-0.4,0-0.5c0-0.2,0-0.4,0-0.6
				s0-0.4-0.1-0.6c0-0.2,0-0.3-0.1-0.5c0-0.2-0.1-0.4-0.2-0.6c0-0.2-0.1-0.3-0.2-0.5c-0.2-0.4-0.3-0.7-0.5-1.1
				c0-0.1-0.1-0.2-0.2-0.3c-0.1-0.2-0.3-0.4-0.4-0.6c0,0-0.1-0.2-0.2-0.3c0-0.1-0.2-0.3-0.3-0.4l-0.2-0.2l0,0c0,0,0,0-0.1-0.1
				c-0.6-0.7-1.3-1.2-2.1-1.7c0,0-0.2,0-0.2-0.1c-0.2-0.1-0.5-0.2-0.7-0.4c0,0-0.2,0-0.3-0.1c-0.8-0.4-1.7-0.6-2.6-0.7l0,0
				c-0.3,0-0.6,0-0.8,0c0,0-0.1,0-0.2,0c-0.3,0-0.6,0-0.8,0l0,0c-0.3,0-0.6,0-1,0c-0.2,0-16.4,2.5-34.6,1.1
				c-15.5-1.1-35.6-5.2-43.2-18.4c-18.6-32-78.7-41.4-121.7-44v-28c0-5.6-4.5-10.1-10.1-10.1h-31.3v-27.1c0-5.6-4.5-10.1-10.1-10.1
				h-14.4V43.6c0-5.6-4.5-10.1-10.1-10.1s-10.1,4.5-10.1,10.1v143.6h-14.4c-5.6,0-10.1,4.5-10.1,10.1v27.1h-31.3
				c-5.6,0-10.1,4.5-10.1,10.1v37.2c0,2.8,1.2,5.3,3,7.2c-9,12.1-18.9,31.3-18.9,57s8.5,42.5,25.3,55H28.2
				c-5.6,0-10.1,4.5-10.1,10.1s4.5,10.1,10.1,10.1h479c5.6,0,10.1-4.5,10.1-10.1s-4.5-10.1-10.1-10.1L507.2,390.8z M302.2,390.8
				c-41.8,0-61.2-24.5-61.2-77.2s-4.1-24.7-9.7-32h18.9c2.7,0,23.3,1.8,23.4,42.6c0,0.5,0,1,0,1.5c0.3,27.6,13.9,50.1,39.3,65.1
				H302.2L302.2,390.8z M187,281.7h4c1.6,1.5,3.8,2.4,6.2,2.6c0,0,6,0.5,11.8,4.1c8,5,11.9,13.2,11.9,25.3
				c0,26.5,4.5,47.1,13.8,62.8c3,5.2,6.6,9.7,10.5,13.7c-40.1-4.4-58.2-32.2-58.2-59.7V281.7z M324.5,374.3
				c-17.7-10.1-27.9-24-30.3-41.4c12.9-1.4,41-0.9,77,21.6c14.7,9.2,30.6,13.8,47,13.8s22.7-2.2,34.2-6.5c0.6-0.2,1.1-0.4,1.6-0.6
				c-11.5,14.9-29.2,29.7-54.5,29.7s-56.4-5.9-75.1-16.5L324.5,374.3z M329.6,289.1c28.6,6.1,47.4,15.6,54.2,27.4
				c9.4,16.2,28.6,25.7,57.1,28.1c-16.4,5.2-37.4,6.3-59-7.2c-39.6-24.6-71.9-26.2-88.8-24.5c-1.2-11.9-4.1-21.9-8.9-30
				C298.4,283.9,314.3,285.8,329.6,289.1L329.6,289.1z M189.3,207.3H218v17.1h-28.7V207.3z M148,244.5h111.4v17.1H148V244.5z
				 M155,281.7h11.9v48.8c0,20.7,7.7,40.1,21.6,54.6c1.4,1.4,2.8,2.9,4.5,4.3c-53.9-6.4-60.8-33-60.8-53.6
				C132.2,306.2,148.8,287.7,155,281.7L155,281.7z"/>
		</g>
		<g>
			<path class="st1" d="M432.7,184.5c-12.1-6.4-21.5-15.3-28.4-26.8c-6.9-11.4-10.3-24.4-10.3-38.9c0-14.5,3.4-27.4,10.3-38.9
				c6.9-11.4,16.4-20.4,28.4-26.8c12.1-6.4,25.7-9.6,40.8-9.6c13.2,0,25.1,2.3,35.8,7c10.6,4.7,19.4,11.4,26.5,20.3l-26,23.6
				c-9.4-11.3-20.7-16.9-34.1-16.9c-7.9,0-14.9,1.7-21,5.2c-6.1,3.4-10.9,8.3-14.3,14.6c-3.4,6.3-5.1,13.5-5.1,21.6
				c0,8.1,1.7,15.3,5.1,21.6c3.4,6.3,8.1,11.1,14.3,14.6c6.1,3.4,13.1,5.2,21,5.2c13.4,0,24.7-5.6,34.1-16.9l26,23.6
				c-7,8.8-15.8,15.6-26.5,20.3c-10.6,4.7-22.5,7-35.8,7C458.3,194.1,444.7,190.9,432.7,184.5z"/>
			<path class="st1" d="M690.7,159.6v31.6H574.6V46.5h113.5v31.6h-73v24.4h64.3v30.6h-64.3v26.5H690.7z"/>
			<path class="st1" d="M810.4,139.3v51.9h-40.9v-52.5l-55.2-92.2h43.2l34.3,57.5l34.3-57.5h39.7L810.4,139.3z"/>
			<path class="st1" d="M896.2,46.5h40.9v112.2h69v32.5h-110V46.5z"/>
			<path class="st1" d="M1072.4,184.4c-12.2-6.5-21.8-15.4-28.7-26.9c-7-11.4-10.4-24.3-10.4-38.7c0-14.3,3.5-27.2,10.4-38.7
				c7-11.4,16.5-20.4,28.7-26.9c12.2-6.5,25.9-9.7,41.2-9.7s29,3.2,41.2,9.7c12.2,6.5,21.8,15.4,28.7,26.9
				c7,11.4,10.4,24.3,10.4,38.7c0,14.3-3.5,27.2-10.4,38.7c-7,11.4-16.5,20.4-28.7,26.9c-12.2,6.5-25.9,9.7-41.2,9.7
				S1084.6,190.9,1072.4,184.4z M1133.5,155c5.9-3.4,10.6-8.3,14.1-14.6c3.4-6.3,5.2-13.5,5.2-21.6c0-8.1-1.7-15.3-5.2-21.6
				c-3.4-6.3-8.1-11.1-14.1-14.6c-5.9-3.4-12.5-5.2-19.8-5.2c-7.3,0-13.9,1.7-19.8,5.2c-5.9,3.4-10.6,8.3-14.1,14.6
				c-3.4,6.3-5.2,13.5-5.2,21.6c0,8.1,1.7,15.3,5.2,21.6c3.4,6.3,8.1,11.1,14.1,14.6c5.9,3.4,12.5,5.2,19.8,5.2
				C1121,160.2,1127.6,158.5,1133.5,155z"/>
			<path class="st1" d="M1373.9,46.5v144.7h-33.7l-63.9-77.1v77.1h-40.1V46.5h33.7l63.9,77.1V46.5H1373.9z"/>
		</g>
		<g>
			<path class="st0" d="M534.1,225.8h38.1c10,0,18.9,2.1,26.6,6.2c7.7,4.1,13.8,9.8,18.1,17.1c4.3,7.3,6.5,15.6,6.5,24.8
				c0,9.3-2.2,17.5-6.5,24.8c-4.3,7.3-10.3,13-18.1,17.1c-7.7,4.1-16.6,6.2-26.6,6.2h-38.1V225.8z M571.6,315.7
				c8.9,0,16.7-1.8,23.5-5.3c6.8-3.5,12-8.5,15.7-14.8c3.7-6.3,5.5-13.6,5.5-21.7c0-8.2-1.8-15.4-5.5-21.7
				c-3.7-6.3-8.9-11.3-15.7-14.8c-6.8-3.5-14.6-5.3-23.5-5.3h-30.5v83.6H571.6z"/>
			<path class="st0" d="M714.1,315.7v6.3h-66.4v-96.2H712v6.3h-57.3v38h51.3v6.2h-51.3v39.5H714.1z"/>
			<path class="st0" d="M806,315.7v6.3h-66.4v-96.2H804v6.3h-57.3v38h51.3v6.2h-51.3v39.5H806z"/>
			<path class="st0" d="M894.6,234.3c6.9,5.7,10.3,13.7,10.3,23.9c0,10.1-3.4,18-10.3,23.7c-6.9,5.7-16.4,8.6-28.5,8.6h-27.5V322h-7
				v-96.2h34.5C878.2,225.8,887.7,228.6,894.6,234.3z M889.6,277.5c5.4-4.5,8.1-10.9,8.1-19.2c0-8.3-2.7-14.8-8.1-19.3
				c-5.4-4.5-13.2-6.8-23.5-6.8h-27.5v52.1h27.5C876.4,284.2,884.2,281.9,889.6,277.5z"/>
			<path class="st0" d="M980.5,316.4c-7.6-4.2-13.5-10-17.9-17.5c-4.4-7.4-6.5-15.8-6.5-25c0-9.3,2.2-17.6,6.5-25
				c4.4-7.4,10.3-13.2,17.9-17.5c7.6-4.2,16.1-6.3,25.5-6.3c7,0,13.4,1.1,19.2,3.4c5.9,2.2,10.9,5.6,15,10l-4.4,4.5
				c-7.7-7.6-17.6-11.4-29.6-11.4c-8.1,0-15.4,1.8-22,5.5c-6.6,3.7-11.8,8.7-15.5,15.2c-3.8,6.5-5.6,13.7-5.6,21.7
				s1.9,15.2,5.6,21.7c3.8,6.5,8.9,11.5,15.5,15.2c6.6,3.7,13.9,5.5,22,5.5c11.9,0,21.8-3.8,29.6-11.5l4.4,4.5
				c-4.1,4.4-9.1,7.7-15.1,10c-5.9,2.3-12.3,3.4-19.2,3.4C996.5,322.7,988,320.6,980.5,316.4z"/>
			<path class="st0" d="M1063.7,225.8h7v89.9h55.4v6.3h-62.4V225.8z"/>
			<path class="st0" d="M1210.6,315.7v6.3h-66.4v-96.2h64.4v6.3h-57.3v38h51.3v6.2h-51.3v39.5H1210.6z"/>
			<path class="st0" d="M1295.7,294.9h-55.8l-12.2,27.1h-7.6l44.3-96.2h7l44.3,96.2h-7.6L1295.7,294.9z M1293.1,289l-25.3-55.5
				l-25.2,55.5H1293.1z"/>
			<path class="st0" d="M1411.5,225.8V322h-5.8l-65.6-83.6V322h-7v-96.2h5.9l65.5,83.6v-83.6H1411.5z"/>
			<path class="st0" d="M1511.4,315.7v6.3H1445v-96.2h64.3v6.3H1452v38h51.3v6.2H1452v39.5H1511.4z"/>
			<path class="st0" d="M1603.8,322l-23-32.2c-3.4,0.5-6.5,0.7-9.3,0.7H1544V322h-7v-96.2h34.5c12.1,0,21.6,2.9,28.5,8.6
				c6.9,5.7,10.3,13.7,10.3,23.9c0,7.6-1.9,14-5.8,19.2c-3.9,5.2-9.5,8.8-16.7,10.9l24.1,33.7H1603.8z M1571.5,284.3
				c10.3,0,18.1-2.3,23.5-6.8c5.4-4.5,8.1-11,8.1-19.3c0-8.3-2.7-14.8-8.1-19.3c-5.4-4.5-13.2-6.8-23.5-6.8H1544v52.2H1571.5z"/>
			<path class="st0" d="M1641.1,319c-6.4-2.4-11.3-5.6-14.9-9.4l3.2-5.2c3.4,3.6,8,6.5,13.7,8.7c5.7,2.2,11.8,3.4,18.1,3.4
				c9.2,0,16.1-1.7,20.8-5.2c4.7-3.5,7-8,7-13.6c0-4.3-1.2-7.7-3.7-10.3c-2.5-2.6-5.5-4.5-9.2-5.9c-3.7-1.4-8.6-2.8-14.9-4.3
				c-7.1-1.7-12.7-3.4-17-5.1c-4.3-1.7-7.9-4.2-10.9-7.6c-3-3.4-4.5-8-4.5-13.8c0-4.7,1.2-9,3.7-12.9c2.5-3.9,6.3-7,11.3-9.3
				c5.1-2.3,11.4-3.4,19-3.4c5.3,0,10.5,0.8,15.7,2.3c5.1,1.6,9.6,3.7,13.3,6.3l-2.6,5.6c-3.8-2.7-8.1-4.7-12.7-6
				c-4.6-1.4-9.2-2.1-13.7-2.1c-8.9,0-15.6,1.8-20.2,5.4c-4.6,3.6-6.9,8.2-6.9,13.9c0,4.3,1.2,7.7,3.7,10.3c2.5,2.6,5.5,4.5,9.2,5.9
				c3.7,1.4,8.7,2.8,15,4.4c7.1,1.7,12.7,3.4,16.9,5.1c4.2,1.6,7.8,4.1,10.8,7.5c3,3.3,4.5,7.9,4.5,13.5c0,4.7-1.3,8.9-3.8,12.8
				c-2.5,3.9-6.4,6.9-11.6,9.2c-5.2,2.3-11.6,3.4-19.2,3.4C1654.2,322.7,1647.5,321.5,1641.1,319z"/>
		</g>
		<polygon class="st1" points="1421.9,43.2 1695.7,191.2 1421.9,194.5 		"/>
		<path class="st2" d="M564.1,348.3h1101.4c16.6,0,30.1,13.5,30.1,30.1v2.5c0,16.6-13.5,30.1-30.1,30.1H564.1
			c-16.6,0-30.1-13.5-30.1-30.1v-2.5C534,361.8,547.5,348.3,564.1,348.3z"/>
		<g>
			<path class="st3" d="M586.1,385.4v10.4h-5.5v-10.4l-11.6-19.2h5.9l8.7,14.4l8.8-14.4h5.4L586.1,385.4z"/>
			<path class="st3" d="M631,394.3c-2.4-1.3-4.3-3.1-5.7-5.5c-1.4-2.3-2.1-4.9-2.1-7.8c0-2.9,0.7-5.5,2.1-7.8
				c1.4-2.3,3.3-4.1,5.7-5.5c2.4-1.3,5.1-2,8.2-2s5.7,0.7,8.2,2c2.4,1.3,4.3,3.1,5.7,5.4c1.4,2.3,2.1,4.9,2.1,7.8s-0.7,5.5-2.1,7.8
				c-1.4,2.3-3.3,4.1-5.7,5.4c-2.4,1.3-5.1,2-8.2,2S633.4,395.6,631,394.3z M644.5,390.1c1.6-0.9,2.8-2.1,3.7-3.7
				c0.9-1.6,1.4-3.4,1.4-5.4s-0.5-3.8-1.4-5.4c-0.9-1.6-2.1-2.8-3.7-3.7c-1.6-0.9-3.4-1.3-5.3-1.3c-2,0-3.8,0.4-5.3,1.3
				c-1.6,0.9-2.8,2.1-3.7,3.7c-0.9,1.6-1.4,3.4-1.4,5.4s0.5,3.8,1.4,5.4c0.9,1.6,2.1,2.8,3.7,3.7c1.6,0.9,3.4,1.3,5.3,1.3
				C641.2,391.4,642.9,391,644.5,390.1z"/>
			<path class="st3" d="M689.5,392.8c-2.3-2.3-3.4-5.6-3.4-9.9v-16.7h5.5v16.5c0,5.8,2.5,8.7,7.5,8.7c5,0,7.5-2.9,7.5-8.7v-16.5h5.4
				v16.7c0,4.3-1.1,7.6-3.4,9.9c-2.3,2.3-5.5,3.4-9.5,3.4C695,396.2,691.8,395.1,689.5,392.8z"/>
			<path class="st3" d="M764.5,395.8l-6-8.7c-0.3,0-0.6,0-1.1,0h-6.7v8.6h-5.5v-29.6h12.2c2.6,0,4.8,0.4,6.7,1.3
				c1.9,0.8,3.4,2.1,4.4,3.6c1,1.6,1.5,3.5,1.5,5.6c0,2.2-0.5,4.1-1.6,5.8s-2.6,2.8-4.7,3.6l6.8,9.7H764.5z M762.5,372.4
				c-1.2-1-3.1-1.5-5.5-1.5h-6.4v11.8h6.4c2.4,0,4.2-0.5,5.5-1.5c1.2-1,1.9-2.5,1.9-4.4C764.3,374.8,763.7,373.4,762.5,372.4z"/>
			<path class="st3" d="M844.1,394.3c-2.4-1.3-4.3-3.1-5.7-5.4c-1.4-2.3-2.1-4.9-2.1-7.8s0.7-5.5,2.1-7.8c1.4-2.3,3.3-4.1,5.7-5.4
				c2.4-1.3,5.1-2,8.1-2c2.4,0,4.6,0.4,6.6,1.3c2,0.8,3.7,2.1,5.1,3.7l-3.6,3.3c-2.1-2.3-4.8-3.5-7.9-3.5c-2,0-3.8,0.4-5.5,1.3
				c-1.6,0.9-2.9,2.1-3.8,3.7s-1.4,3.4-1.4,5.4s0.5,3.8,1.4,5.4s2.2,2.8,3.8,3.7c1.6,0.9,3.4,1.3,5.5,1.3c3.1,0,5.8-1.2,7.9-3.5
				l3.6,3.4c-1.4,1.6-3.1,2.8-5.1,3.7c-2,0.8-4.2,1.3-6.7,1.3C849.2,396.2,846.5,395.6,844.1,394.3z"/>
			<path class="st3" d="M894.6,366.2h5.5v25h15.5v4.7h-21V366.2z"/>
			<path class="st3" d="M967.5,391.2v4.6h-22.2v-29.6h21.6v4.6h-16.1v7.7h14.3v4.5h-14.3v8.2H967.5z"/>
			<path class="st3" d="M1018.2,388.9h-14.8l-2.9,6.9h-5.7l13.3-29.6h5.4l13.4,29.6h-5.8L1018.2,388.9z M1016.4,384.6l-5.6-12.9
				l-5.5,12.9H1016.4z"/>
			<path class="st3" d="M1082.4,366.2v29.6h-4.5l-16.3-20v20h-5.5v-29.6h4.5l16.3,20.1v-20.1H1082.4z"/>
			<path class="st3" d="M1115.7,366.2h5.5v29.6h-5.5V366.2z"/>
			<path class="st3" d="M1180.9,366.2v29.6h-4.5l-16.3-20v20h-5.5v-29.6h4.5l16.3,20.1v-20.1H1180.9z"/>
			<path class="st3" d="M1234.5,380.7h5.2v11.8c-1.5,1.2-3.3,2.1-5.3,2.8s-4.1,1-6.3,1c-3,0-5.7-0.7-8.2-2c-2.4-1.3-4.3-3.1-5.7-5.4
				c-1.4-2.3-2.1-4.9-2.1-7.8s0.7-5.5,2.1-7.8c1.4-2.3,3.3-4.1,5.7-5.4c2.4-1.3,5.2-2,8.2-2c2.5,0,4.7,0.4,6.8,1.2
				c2,0.8,3.7,2,5.1,3.6l-3.5,3.4c-2.3-2.3-5-3.4-8.2-3.4c-2.1,0-3.9,0.4-5.6,1.3c-1.6,0.9-2.9,2.1-3.8,3.7
				c-0.9,1.6-1.4,3.4-1.4,5.4c0,2,0.5,3.8,1.4,5.3c0.9,1.6,2.2,2.8,3.8,3.7c1.6,0.9,3.5,1.4,5.5,1.4c2.3,0,4.3-0.5,6.1-1.5V380.7z"
				/>
			<path class="st3" d="M1328.2,367.5c1.9,0.8,3.4,2.1,4.4,3.6c1,1.6,1.5,3.5,1.5,5.6c0,2.1-0.5,4-1.5,5.6c-1,1.6-2.5,2.8-4.4,3.7
				s-4.1,1.3-6.7,1.3h-6.7v8.5h-5.5v-29.6h12.2C1324.1,366.2,1326.3,366.6,1328.2,367.5z M1326.7,381.1c1.2-1,1.9-2.5,1.9-4.4
				c0-1.9-0.6-3.3-1.9-4.4c-1.2-1-3.1-1.5-5.5-1.5h-6.4v11.8h6.4C1323.7,382.6,1325.5,382.1,1326.7,381.1z"/>
			<path class="st3" d="M1382.7,388.9h-14.8l-2.9,6.9h-5.7l13.3-29.6h5.4l13.4,29.6h-5.8L1382.7,388.9z M1380.9,384.6l-5.6-12.9
				l-5.5,12.9H1380.9z"/>
			<path class="st3" d="M1440,395.8l-6-8.7c-0.3,0-0.6,0-1.1,0h-6.7v8.6h-5.5v-29.6h12.2c2.6,0,4.8,0.4,6.7,1.3
				c1.9,0.8,3.4,2.1,4.4,3.6c1,1.6,1.5,3.5,1.5,5.6c0,2.2-0.5,4.1-1.6,5.8s-2.6,2.8-4.7,3.6l6.8,9.7H1440z M1438,372.4
				c-1.2-1-3.1-1.5-5.5-1.5h-6.4v11.8h6.4c2.4,0,4.2-0.5,5.5-1.5c1.2-1,1.9-2.5,1.9-4.4C1439.8,374.8,1439.2,373.4,1438,372.4z"/>
			<path class="st3" d="M1482.5,370.8h-9.8v-4.7h25.1v4.7h-9.8v25h-5.5V370.8z"/>
			<path class="st3" d="M1553.6,366.2v29.6h-4.5l-16.3-20v20h-5.5v-29.6h4.5l16.3,20.1v-20.1H1553.6z"/>
			<path class="st3" d="M1609.2,391.2v4.6h-22.2v-29.6h21.6v4.6h-16.1v7.7h14.3v4.5h-14.3v8.2H1609.2z"/>
			<path class="st3" d="M1660,395.8l-6-8.7c-0.3,0-0.6,0-1.1,0h-6.7v8.6h-5.5v-29.6h12.2c2.6,0,4.8,0.4,6.7,1.3
				c1.9,0.8,3.4,2.1,4.4,3.6c1,1.6,1.5,3.5,1.5,5.6c0,2.2-0.5,4.1-1.6,5.8s-2.6,2.8-4.7,3.6l6.8,9.7H1660z M1658.1,372.4
				c-1.2-1-3.1-1.5-5.5-1.5h-6.4v11.8h6.4c2.4,0,4.2-0.5,5.5-1.5c1.2-1,1.9-2.5,1.9-4.4C1659.9,374.8,1659.3,373.4,1658.1,372.4z"/>
		</g>
	</g>
</g>
</svg>
