<?xml version="1.0" encoding="utf-8"?>
<!-- Generator: Adobe Illustrator 28.6.0, SVG Export Plug-In . SVG Version: 9.03 Build 54939)  -->
<svg version="1.1" baseProfile="basic" id="Layer_1"
	 xmlns="http://www.w3.org/2000/svg" xmlns:xlink="http://www.w3.org/1999/xlink" x="0px" y="0px" viewBox="0 0 3153.9 856.5"
	 xml:space="preserve">
<style type="text/css">
	.st0{fill:#1DAEBD;}
	.st1{fill:#FFFFFF;}
	.st2{fill:#ED3868;}
	.st3{fill:#FFFFFF;stroke:#FFFFFF;stroke-width:0.25;stroke-miterlimit:10;}
	.st4{opacity:0.88;fill:#1C3664;}
	.st5{fill:#2B3086;stroke:#E03938;stroke-width:0.25;stroke-miterlimit:10;}
	.st6{fill:#FFFFFF;stroke:#1BAEBF;stroke-miterlimit:10;}
	.st7{opacity:0.52;fill:#610E38;}
	.st8{fill:#A02621;stroke:#1DAEBD;stroke-miterlimit:10;}
	.st9{fill:#231F20;}
	.st10{fill:#808184;}
</style>
<g>
	<g>
		<g>
			<g>
				<circle class="st0" cx="434.6" cy="422.5" r="415.5"/>
				<g>
					<path class="st1" d="M679.6,223.4c-6.2-13-14.3-25.1-24.4-36c-26-28-60.2-41.9-94.3-41.9s-68.3,14-94.3,41.9l-19,20.4l-19-20.4
						c-26-28-60.2-41.9-94.3-41.9s-68.3,14-94.3,41.9c-10.1,10.8-18.2,23-24.4,36c-9.8,20.4-14.6,42.9-14.6,65.3
						c0,4.2,0.2,8.4,0.5,12.6c2.3,27.8,12.1,55.1,29.5,77.9c2.8,3.7,5.8,7.3,9.1,10.8l62.5,67.1L375,535l72.6,77.9l72.6-77.9
						l72.6-77.9l62.5-67.1c3.2-3.5,6.2-7.1,9.1-10.8c17.4-22.8,27.2-50.1,29.5-77.9c0.3-4.2,0.5-8.4,0.5-12.6
						C694.3,266.2,689.4,243.8,679.6,223.4z"/>
				</g>
				<g>
					<path class="st2" d="M639,256c-5-9.7-11.7-18.9-19.9-27.1c-21.3-21-49.1-31.6-77-31.6s-55.7,10.5-77,31.6l-15.5,15.4L434,229
						c-21.3-21-49.1-31.6-77-31.6s-55.7,10.5-77,31.6c-8.2,8.2-14.9,17.3-19.9,27.1c-8,15.4-11.9,32.3-11.9,49.1
						c0,3.2,0.1,6.3,0.4,9.5c1.9,20.9,9.9,41.4,24.1,58.6c2.3,2.8,4.8,5.5,7.4,8.1l51.1,50.5l59.2,58.6l59.2,58.6l59.2-58.6
						l59.2-58.6l51.1-50.5c2.6-2.6,5.1-5.3,7.4-8.1c14.2-17.2,22.2-37.7,24.1-58.6c0.3-3.2,0.4-6.3,0.4-9.5
						C651,288.3,647,271.4,639,256z"/>
				</g>
				<path class="st3" d="M45,604.3c0,0,95.2-138.5,294.3-95.2c0,0,112.5,60.6,199.1,43.3c0,0,60.6-17.3,69.3,17.3
					S720.2,509,720.2,509c16.9-15.8,39.5-21.7,55.6-14.3c23,10.6,35.3,49.6,13.6,83.5c-16.8,31.7-45,74.5-90.9,113.6
					c-100,85.1-214.7,93.2-255.4,94.1c0,0-103.9-17.3-181.8-51.9s-112.5,8.7-112.5,8.7L45,604.3z"/>
				<path class="st4" d="M72.1,635.4c0,0,15.8-54.6,106.1-91.8c0,0,56.6-23.5,126-8.7c0,0,95.9,30.6,121.9,39.9c0,0,16,4.8,27.4,4.8
					c31.2-0.5,62.4-0.9,93.6-1.4c0.7-0.6,1.4-1,2.1-1.5c7.6-4.5,16.8-1.7,20.4-0.4c0.6,0.3,10.9,4.7,12.8,15.7
					c1.4,8-2.3,16.2-9.2,20.8c-9,4.1-19.2,8.2-30.4,11.9c-16.1,5.2-30.9,8.5-44,10.6c-15.4,2.5-34.1,4.3-55.5,3.5
					c-31.4-1.2-57.5-7.6-76.6-13.9c0,0,46.7,30.2,91.2,33.1c0,0,21.9,2.9,61.3,0s61-5.8,84.6-17.6S711,572.5,736.3,537.3
					s42,15.7,11.9,45.7c-10.1,10.1-14.1,20.4-45.3,47.1c-14.1,12-31.6,26.7-51.9,43.3c-14.8,13.1-35.8,28.9-63.3,42.2
					c-40.8,19.7-78.2,25.4-102.5,27.1c0,0-32.2,4.4-64.6,0c0,0-69.8-10.8-138.2-48.8S155.7,682.4,129,710.8L72.1,635.4z"/>
				<path class="st5" d="M668.3,699.5"/>
				<path class="st1" d="M322,379.2c0,0-69.3-138.5,69.3-155.8c-29.5-18.6-65.2-19.3-90.8-1.9c-21.7,14.8-28.5,37.6-30.4,45.2
					c-1.4,11-2,28.4,4,48.2C285.4,352.2,312.4,372.6,322,379.2z"/>
				<circle class="st6" cx="677" cy="128.2" r="17.3"/>
			</g>
			<path class="st7" d="M374,474.4c0,0,60.2,60.6,180.5-69.3c0,0,146.1-164.5,0-207.8c4.1,0.5,60.8,8.5,85.9,60.6
				c18.9,39.1,12.1,87-17.2,121.2c-57.3,57.7-114.6,115.4-171.9,173.1L374,474.4z"/>
			<path class="st8" d="M772.2,422.5"/>
		</g>
	</g>
</g>
<g>
	<g>
		<path class="st9" d="M1118.3,425.5c3.4,0,6.3,1.3,8.6,3.6l24,25.3c-11.7,14.9-26.6,26.3-44.1,33.9c-17.5,7.8-38.3,11.5-62.6,11.5
			c-21.9,0-41.7-3.6-59.2-10.9c-17.5-7.3-32.3-17.7-44.6-30.8c-12.3-13.3-21.6-28.9-28.2-46.9c-6.5-18-9.9-37.8-9.9-59.2
			c0-14.3,1.6-28.2,4.7-40.9c3.1-13,7.8-25,13.8-35.7c6-10.9,13.3-20.9,21.9-29.5c8.6-8.9,18.2-16.2,28.9-22.4
			c10.7-6.3,22.4-10.9,35.2-14.1c12.8-3.1,26.3-5,40.7-5c10.7,0,20.9,1,30.5,2.9c9.6,1.8,18.5,4.4,26.9,7.8s16.2,7.3,23.2,12
			c7,4.7,13.3,9.9,19,15.4l-20.3,27.6c-1.3,1.8-2.9,3.4-4.7,4.7c-1.8,1.3-4.4,2.1-7.6,2.1s-6.5-1-9.9-3.4c-3.4-2.3-7.3-4.7-12-7.6
			c-4.7-2.9-10.7-5.2-18-7.6c-7.3-2.3-16.4-3.4-27.4-3.4c-12.3,0-23.5,2.1-33.6,6.5c-10.2,4.4-19,10.7-26.3,19
			c-7.3,8.3-13,18.5-16.9,30.8c-3.9,12-6,25.8-6,41.2c0,15.6,2.1,29.5,6.5,41.7c4.4,12.3,10.4,22.4,18,30.8s16.4,14.9,26.6,19
			c10.2,4.4,21.1,6.5,32.6,6.5c6.8,0,13-0.3,18.8-1c5.5-0.8,10.7-1.8,15.6-3.4c4.7-1.6,9.4-3.6,13.6-6.3c4.2-2.6,8.6-5.7,12.8-9.6
			c1.6-1.3,3.1-2.1,4.7-2.9C1114.6,425.8,1116.4,425.5,1118.3,425.5z"/>
		<path class="st9" d="M1217.1,402.3c1.8,19.3,7.3,33.4,16.7,42.2c9.4,8.9,21.6,13.3,36.8,13.3c7.6,0,14.3-0.8,19.8-2.6
			s10.4-3.9,14.9-6c4.2-2.1,8.1-4.2,11.5-6c3.4-1.8,6.8-2.6,10.2-2.6c4.4,0,7.6,1.6,10.2,4.7l16.2,20.1c-6,6.8-12.5,12.5-19.6,16.9
			s-14.6,8.1-22.2,10.7c-7.6,2.6-15.4,4.4-23.2,5.5c-7.8,1-15.4,1.6-22.7,1.6c-14.6,0-28.2-2.3-40.7-7
			c-12.5-4.7-23.5-11.7-32.8-20.9c-9.4-9.1-16.7-20.6-22.2-34.4s-8.1-29.7-8.1-47.7c0-14.1,2.3-27.1,7-39.6
			c4.7-12.3,11.2-23.2,20.1-32.3c8.9-9.1,19.3-16.4,31.8-21.9c12.5-5.5,26.6-8.1,42.5-8.1c13.3,0,25.5,2.1,36.8,6.3
			c11.2,4.2,20.9,10.2,28.9,18.2c8.1,8.1,14.3,17.7,19,29.5c4.4,11.7,6.8,25,6.8,39.9c0,4.2-0.3,7.6-0.5,10.2
			c-0.5,2.6-1,4.7-2.1,6.5c-1,1.6-2.3,2.6-3.9,3.4c-1.6,0.5-3.6,0.8-6.3,0.8h-124.9V402.3z M1304.7,369.5c0-5.7-0.8-11.2-2.3-16.4
			s-3.9-9.9-7.3-13.8c-3.4-3.9-7.6-7-12.8-9.4c-5.2-2.3-11.2-3.4-18.2-3.4c-13.3,0-23.7,3.6-31.3,11.2c-7.6,7.6-12.5,18-14.9,32.1
			h86.8V369.5z"/>
		<path class="st9" d="M1575.8,291l-112.1,261c-1.8,3.6-3.9,6.5-6.3,8.3c-2.6,1.8-6.5,2.9-11.7,2.9h-41.5l39.4-83.2l-83.7-189.3
			h48.8c4.4,0,7.8,1,10.2,2.9c2.3,2.1,4.2,4.4,5.2,7l39.6,98.3c1.6,3.9,2.9,7.8,3.9,11.7c1,3.9,2.3,7.8,3.4,11.7
			c2.3-7.8,5.2-15.6,8.3-23.5l36.8-98.3c1-2.9,3.1-5.2,5.7-7.3c2.9-1.8,6-2.9,9.4-2.9h44.6V291z"/>
		<path class="st9" d="M1653.7,199v297.7H1598V199H1653.7z"/>
		<path class="st9" d="M1794,287.6c15.6,0,29.7,2.3,42.5,7.3c12.8,5,23.7,12,32.8,21.1c9.1,9.1,16.2,20.1,21.1,33.1
			c5,13,7.6,27.6,7.6,44.1c0,16.4-2.6,31-7.6,44.3c-5,13-12,24.2-21.1,33.4c-9.1,9.1-20.1,16.2-32.8,21.1c-12.8,5-26.9,7.3-42.5,7.3
			s-30-2.3-43-7.3c-12.8-5-23.7-12-33.1-21.1c-9.1-9.1-16.2-20.3-21.4-33.4c-5-13-7.6-27.9-7.6-44.3c0-16.4,2.6-31,7.6-44.1
			c5-13,12.3-24.2,21.4-33.1c9.1-9.1,20.1-16.2,33.1-21.1C1764,290.2,1778.1,287.6,1794,287.6z M1794,458.4
			c15.9,0,27.6-5.5,35.2-16.2c7.6-10.9,11.5-26.9,11.5-48.5c0-21.4-3.9-37.3-11.5-48.2s-19.6-16.2-35.2-16.2
			c-16.2,0-28.2,5.5-36,16.2c-7.6,10.9-11.5,26.9-11.5,48.2s3.9,37.5,11.5,48.5C1765.8,452.9,1777.6,458.4,1794,458.4z"/>
		<path class="st9" d="M1984.8,314.7c4.2-3.9,8.6-7.6,13-10.9c4.4-3.4,9.4-6.3,14.3-8.6c5-2.3,10.4-4.2,16.4-5.5
			c5.7-1.3,12.3-2.1,19-2.1c11.2,0,21.4,1.8,30,5.7c8.9,3.9,16.2,9.1,22.2,16.2s10.4,15.1,13.6,24.8c3.1,9.6,4.4,20.1,4.4,31.5
			v130.9h-55.5V365.8c0-11.5-2.6-20.3-8.1-26.6c-5.5-6.3-13.3-9.4-23.7-9.4c-7.8,0-15.1,1.6-21.9,5c-6.8,3.4-13.3,8.1-19.6,14.1
			v147.8h-55.8V291h34.4c7,0,11.7,3.1,13.8,9.6L1984.8,314.7z"/>
		<path class="st9" d="M2465,425.5c3.4,0,6.3,1.3,8.6,3.6l24,25.3c-11.7,14.9-26.6,26.3-44.1,33.9c-17.5,7.8-38.3,11.5-62.6,11.5
			c-21.9,0-41.7-3.6-59.2-10.9c-17.5-7.3-32.3-17.7-44.6-30.8c-12.3-13.3-21.6-28.9-28.2-46.9s-9.9-37.8-9.9-59.2
			c0-14.3,1.6-28.2,4.7-40.9c3.1-13,7.8-25,13.8-35.7c6-10.9,13.3-20.9,21.9-29.5c8.6-8.9,18.2-16.2,28.9-22.4
			c10.7-6.3,22.4-10.9,35.2-14.1c12.8-3.1,26.3-5,40.7-5c10.7,0,20.9,1,30.5,2.9c9.6,1.8,18.5,4.4,26.9,7.8
			c8.3,3.4,16.2,7.3,23.2,12s13.3,9.9,19,15.4l-20.3,27.6c-1.3,1.8-2.9,3.4-4.7,4.7c-1.8,1.3-4.4,2.1-7.6,2.1c-3.1,0-6.5-1-9.9-3.4
			c-3.4-2.3-7.3-4.7-12-7.6c-4.7-2.9-10.7-5.2-18-7.6c-7.3-2.3-16.4-3.4-27.4-3.4c-12.3,0-23.5,2.1-33.6,6.5
			c-10.2,4.4-19,10.7-26.3,19c-7.3,8.3-13,18.5-16.9,30.8c-3.9,12-6,25.8-6,41.2c0,15.6,2.1,29.5,6.5,41.7
			c4.4,12.3,10.4,22.4,18,30.8c7.6,8.3,16.4,14.9,26.6,19c10.2,4.4,21.1,6.5,32.6,6.5c6.8,0,13-0.3,18.8-1
			c5.7-0.8,10.7-1.8,15.6-3.4c4.7-1.6,9.4-3.6,13.6-6.3c4.2-2.6,8.6-5.7,12.8-9.6c1.6-1.3,3.1-2.1,4.7-2.9
			C2461.4,425.8,2463.2,425.5,2465,425.5z"/>
		<path class="st9" d="M2519.3,319.4c12.3-10.9,25.8-19,40.7-24.5s30.8-8.1,48-8.1c12.3,0,23.5,2.1,33.1,6s18,9.6,24.8,16.7
			c6.8,7,12,15.6,15.6,25.5c3.6,9.9,5.5,20.6,5.5,32.3v129.3h-25.5c-5.2,0-9.1-0.8-12-2.1c-2.9-1.6-5-4.4-6.8-9.1l-4.4-13.3
			c-5.2,4.4-10.4,8.6-15.1,12c-5,3.4-9.9,6.3-15.1,8.6c-5.2,2.3-10.9,4.2-16.9,5.2c-6,1.3-12.8,1.8-20.1,1.8c-9.1,0-17.5-1.3-25-3.6
			s-14.1-6-19.6-10.7s-9.6-10.7-12.5-17.7s-4.4-15.1-4.4-24.2c0-7.6,1.8-15.1,5.7-22.7c3.9-7.6,10.7-14.6,20.1-20.6
			c9.4-6.3,22.2-11.2,38.1-15.4c15.9-4.2,35.7-6.3,59.4-6.8v-10.7c0-13-2.9-22.4-8.3-28.4c-5.5-6-13.6-9.1-23.7-9.1
			c-7.6,0-14.1,0.8-19.3,2.6c-5.2,1.8-9.6,3.6-13.3,5.7c-3.9,2.1-7.6,3.9-10.7,5.7c-3.4,1.8-7.3,2.6-11.7,2.6c-3.9,0-7-1-9.9-2.9
			c-2.6-1.8-4.7-4.2-6.5-6.8L2519.3,319.4z M2632.9,410.6c-13.6,0.8-24.8,1.8-33.9,3.4s-16.2,3.9-21.4,6.5
			c-5.2,2.6-9.1,5.7-11.2,9.1c-2.3,3.4-3.4,7-3.4,10.9c0,8.1,2.3,13.6,6.8,16.9s10.7,5,18.8,5c9.4,0,17.2-1.6,24.2-5
			c6.8-3.1,13.6-8.3,20.3-15.4v-31.5H2632.9z"/>
		<path class="st9" d="M2783.1,324.9c6.5-11.7,14.1-20.9,22.7-27.6c8.6-6.8,18.8-10.2,30.2-10.2c9.4,0,17.2,2.1,22.9,6.5l-3.6,40.7
			c-0.8,2.6-1.8,4.4-3.1,5.5c-1.3,1-3.4,1.6-5.7,1.6c-2.1,0-5.2-0.3-9.4-0.8c-3.9-0.5-7.8-0.8-11.2-0.8c-5.2,0-9.6,0.8-13.6,2.1
			c-3.9,1.6-7.6,3.6-10.7,6.3c-3.1,2.6-6,6-8.3,9.9c-2.6,3.9-4.7,8.3-7,13.3v125.9h-55.8V291.5h32.8c5.7,0,9.6,1,11.7,2.9
			c2.1,2.1,3.6,5.5,4.7,10.4L2783.1,324.9z"/>
		<path class="st9" d="M2922.6,402.3c1.8,19.3,7.3,33.4,16.7,42.2c9.4,8.9,21.6,13.3,36.8,13.3c7.6,0,14.3-0.8,19.8-2.6
			c5.5-1.8,10.4-3.9,14.9-6c4.2-2.1,8.1-4.2,11.5-6c3.4-1.8,6.8-2.6,10.2-2.6c4.4,0,7.6,1.6,10.2,4.7l16.2,20.1
			c-6,6.8-12.5,12.5-19.6,16.9c-7,4.4-14.6,8.1-22.2,10.7c-7.6,2.6-15.4,4.4-23.2,5.5c-7.8,1-15.4,1.6-22.7,1.6
			c-14.6,0-28.2-2.3-40.7-7s-23.5-11.7-32.8-20.9c-9.4-9.1-16.7-20.6-22.2-34.4c-5.5-13.8-8.1-29.7-8.1-47.7c0-14.1,2.3-27.1,7-39.6
			c4.7-12.3,11.2-23.2,20.1-32.3c8.9-9.1,19.3-16.4,31.8-21.9c12.5-5.5,26.6-8.1,42.5-8.1c13.3,0,25.5,2.1,36.8,6.3
			c11.2,4.2,20.9,10.2,28.9,18.2c8.1,8.1,14.3,17.7,19,29.5c4.4,11.7,6.8,25,6.8,39.9c0,4.2-0.3,7.6-0.5,10.2
			c-0.5,2.6-1,4.7-2.1,6.5c-1,1.6-2.3,2.6-3.9,3.4c-1.6,0.5-3.6,0.8-6.3,0.8h-124.9V402.3z M3010.2,369.5c0-5.7-0.8-11.2-2.3-16.4
			c-1.6-5.2-3.9-9.9-7.3-13.8c-3.4-3.9-7.6-7-12.8-9.4c-5.2-2.3-11.2-3.4-18.2-3.4c-13.3,0-23.7,3.6-31.3,11.2
			c-7.6,7.6-12.5,18-14.9,32.1h86.8V369.5z"/>
	</g>
	<g>
		<path class="st10" d="M986.3,655.4c0.8,0,1.3,0.3,1.8,0.8l5,5.5c-3.9,4.4-8.6,8.1-14.1,10.4c-5.5,2.6-12.3,3.6-20.1,3.6
			c-6.8,0-12.8-1-18.5-3.4c-5.5-2.3-10.2-5.7-14.1-9.9s-7-9.4-9.1-15.1c-2.1-6-3.1-12.5-3.1-19.6c0-7,1-13.6,3.4-19.6
			s5.5-10.9,9.4-15.4c4.2-4.2,8.9-7.6,14.6-9.9c5.7-2.3,12-3.4,18.8-3.4s12.5,1,17.7,3.1c5.2,2.1,9.6,5,13.6,8.9l-4.2,5.7
			c-0.3,0.5-0.5,0.8-1,1c-0.5,0.3-1,0.5-1.6,0.5c-0.8,0-1.8-0.5-2.9-1.3c-1-0.8-2.6-1.8-4.4-2.9c-1.8-1-4.2-2.1-6.8-2.9
			c-2.9-0.8-6.3-1.3-10.2-1.3c-5,0-9.4,0.8-13.3,2.6c-3.9,1.6-7.6,4.2-10.4,7.3c-2.9,3.1-5.2,7-6.8,11.7c-1.6,4.7-2.3,9.9-2.3,15.6
			c0,6,0.8,11.2,2.6,15.6c1.6,4.7,3.9,8.6,6.8,11.7c2.9,3.1,6.3,5.5,10.4,7.3c3.9,1.6,8.3,2.6,12.8,2.6c2.9,0,5.2-0.3,7.6-0.5
			c2.3-0.3,4.4-0.8,6.3-1.6c1.8-0.8,3.6-1.6,5.2-2.6s3.4-2.3,5-3.9C985,655.7,985.6,655.4,986.3,655.4z"/>
		<path class="st10" d="M1003.6,617.6c3.6-3.6,7.6-6.3,12-8.1c4.2-1.8,8.9-2.6,14.1-2.6c3.6,0,7,0.5,9.9,1.8
			c2.9,1.3,5.2,2.9,7.3,5.2c2.1,2.3,3.4,5,4.4,8.1c1,3.1,1.6,6.5,1.6,10.2v42.5h-5.2c-1,0-2.1-0.3-2.6-0.5c-0.5-0.3-1-1-1.6-2.1
			l-1.3-6.3c-1.8,1.6-3.4,3.1-5.2,4.4c-1.6,1.3-3.4,2.3-5.2,3.1c-1.8,0.8-3.9,1.6-6,2.1c-2.1,0.5-4.4,0.8-7,0.8c-2.6,0-5-0.3-7.3-1
			c-2.3-0.8-4.2-1.8-6-3.1c-1.6-1.6-3.1-3.4-3.9-5.5c-1-2.1-1.6-5-1.6-7.8c0-2.6,0.8-5.2,2.1-7.6c1.6-2.3,3.9-4.7,7-6.5
			c3.1-1.8,7.6-3.4,12.8-4.7c5.2-1.3,11.7-1.8,19.3-2.1v-5.2c0-5.2-1-9.1-3.4-11.7s-5.5-3.9-9.9-3.9c-2.9,0-5.2,0.3-7.3,1
			c-1.8,0.8-3.6,1.6-5,2.3c-1.3,0.8-2.6,1.8-3.6,2.3c-1,0.8-2.1,1-3.1,1c-0.8,0-1.6-0.3-2.1-0.5c-0.5-0.5-1-1-1.6-1.6L1003.6,617.6z
			 M1041.4,645c-5.5,0.3-9.9,0.5-13.8,1.3c-3.9,0.8-6.8,1.6-9.4,2.6c-2.3,1-4.2,2.3-5.2,3.9c-1,1.6-1.6,3.1-1.6,5
			c0,1.8,0.3,3.4,0.8,4.4c0.5,1.3,1.3,2.3,2.3,3.1c1,0.8,2.1,1.3,3.4,1.8c1.3,0.3,2.9,0.5,4.4,0.5c2.1,0,3.9-0.3,5.7-0.5
			c1.8-0.5,3.4-1,5-1.8c1.6-0.8,2.9-1.8,4.4-2.9c1.3-1,2.6-2.3,4.2-3.6V645H1041.4z"/>
		<path class="st10" d="M1081.8,621.6c2.1-4.4,4.7-8.1,7.8-10.7c3.1-2.6,6.8-3.9,11.2-3.9c1.3,0,2.9,0.3,4.2,0.5
			c1.3,0.3,2.3,0.8,3.4,1.6l-0.8,8.9c-0.3,1-1,1.6-2.1,1.6c-0.5,0-1.6-0.3-2.6-0.5c-1.3-0.3-2.6-0.5-3.9-0.5c-2.1,0-3.9,0.3-5.7,1
			c-1.6,0.5-3.1,1.6-4.4,2.6c-1.3,1.3-2.3,2.6-3.4,4.4c-1,1.8-2.1,3.9-2.9,6v42h-11.7V608h6.8c1.3,0,2.1,0.3,2.6,0.8s0.8,1.3,1,2.6
			L1081.8,621.6z"/>
		<path class="st10" d="M1133.4,587.4c0,1-0.3,2.1-0.8,3.1s-1,1.8-1.8,2.6c-0.8,0.8-1.6,1.3-2.6,1.8c-1,0.5-2.1,0.8-3.1,0.8
			c-1,0-2.1-0.3-3.1-0.8c-1-0.5-1.8-1-2.6-1.8c-0.8-0.8-1.3-1.6-1.8-2.6c-0.5-1-0.8-2.1-0.8-3.1c0-1,0.3-2.3,0.8-3.1
			c0.5-1,1-1.8,1.8-2.6c0.8-0.8,1.6-1.3,2.6-1.8s2.1-0.8,3.1-0.8c1,0,2.3,0.3,3.1,0.8c1,0.5,1.8,1,2.6,1.8c0.8,0.8,1.3,1.6,1.8,2.6
			S1133.4,586.4,1133.4,587.4z M1131,608.3v66.5h-11.7v-66.5H1131z"/>
		<path class="st10" d="M1161.3,617.9c1.6-1.6,2.9-3.1,4.7-4.4c1.6-1.3,3.4-2.3,5.2-3.4c1.8-1,3.6-1.6,5.7-2.1
			c2.1-0.5,4.2-0.8,6.5-0.8c3.6,0,6.8,0.5,9.6,1.8c2.9,1.3,5.2,2.9,7,5.2c1.8,2.1,3.4,5,4.2,8.1c1,3.1,1.6,6.5,1.6,10.4v42.5h-11.7
			v-42.5c0-5-1-8.9-3.4-11.7c-2.3-2.9-5.7-4.2-10.4-4.2c-3.4,0-6.8,0.8-9.6,2.6c-3.1,1.6-5.7,3.9-8.3,6.8v49h-11.7v-66.5h7
			c1.6,0,2.6,0.8,3.1,2.3L1161.3,617.9z"/>
		<path class="st10" d="M1279.6,610.9v4.4c0,1.6-1,2.3-2.9,2.9l-7.6,1c1.6,2.9,2.3,6,2.3,9.6c0,3.1-0.5,6.3-1.8,8.9
			c-1.3,2.6-2.9,5-5.2,6.8c-2.1,1.8-5,3.4-7.8,4.4c-3.1,1-6.5,1.6-9.9,1.6c-3.1,0-6-0.3-8.9-1c-1.3,0.8-2.6,1.8-3.1,2.9
			c-0.8,1-1,2.1-1,2.9c0,1.6,0.5,2.9,1.8,3.6c1.3,0.8,2.9,1.3,5.2,1.8c2.3,0.5,4.4,0.5,7.3,0.8c2.6,0,5.5,0.3,8.3,0.5
			c2.9,0.3,5.5,0.5,8.3,1c2.6,0.5,5.2,1.3,7.3,2.3c2.1,1,3.9,2.6,5.2,4.4s1.8,4.4,1.8,7.6c0,2.9-0.8,5.7-2.1,8.3
			c-1.3,2.6-3.4,5-6.3,7c-2.6,2.1-6,3.6-9.9,5c-3.9,1.3-8.3,1.8-13,1.8c-4.7,0-9.1-0.5-12.8-1.6s-6.8-2.3-9.1-3.9s-4.2-3.4-5.5-5.7
			c-1.3-2.1-1.8-4.4-1.8-6.8c0-3.4,1-6,3.1-8.3s5-4.2,8.6-5.5c-2.1-0.8-3.6-2.1-4.7-3.4c-1-1.6-1.8-3.4-1.8-6c0-1,0.3-2.1,0.5-2.9
			c0.3-1,0.8-2.1,1.6-3.1s1.6-2.1,2.6-2.9c1-1,2.3-1.8,3.6-2.3c-3.4-1.8-5.7-4.2-7.8-7.3c-1.8-3.1-2.9-6.5-2.9-10.7
			c0-3.1,0.5-6.3,1.8-8.9c1.3-2.6,2.9-5,5.2-6.8c2.3-1.8,5-3.4,8.1-4.4s6.5-1.6,10.2-1.6c2.9,0,5.5,0.3,8.1,1
			c2.6,0.5,4.7,1.6,6.8,2.9h18V610.9z M1267.9,678.6c0-1.6-0.5-2.9-1.3-3.9c-0.8-1-2.1-1.8-3.6-2.3s-3.4-1-5.5-1.3
			c-2.1-0.3-4.2-0.5-6.5-0.5c-2.3-0.3-4.7-0.3-7-0.5c-2.3-0.3-4.7-0.3-6.8-0.8c-2.3,1-4.4,2.6-6,4.4c-1.6,1.8-2.3,3.6-2.3,6
			c0,1.6,0.3,2.9,1,4.2c0.8,1.3,1.8,2.3,3.4,3.4c1.6,1,3.6,1.6,6,2.3c2.3,0.5,5.2,0.8,8.3,0.8s6-0.3,8.6-0.8
			c2.6-0.5,4.7-1.3,6.3-2.3c1.8-1,3.1-2.3,3.9-3.6C1267.1,682.3,1267.9,680.2,1267.9,678.6z M1246.8,642.4c2.3,0,4.4-0.3,6.3-1
			c1.8-0.8,3.4-1.6,4.4-2.9c1.3-1.3,2.1-2.6,2.9-4.2c0.5-1.6,1-3.4,1-5.5c0-4.2-1.3-7.3-3.6-9.6c-2.6-2.3-6-3.6-10.7-3.6
			s-8.3,1.3-10.7,3.6c-2.6,2.3-3.6,5.7-3.6,9.6c0,2.1,0.3,3.9,1,5.5c0.5,1.6,1.6,3.1,2.9,4.2c1.3,1,2.9,2.1,4.4,2.9
			C1242.6,642.1,1244.4,642.4,1246.8,642.4z"/>
		<path class="st10" d="M1330,675v-56.6l-7.3-0.8c-1-0.3-1.6-0.5-2.3-1c-0.5-0.5-0.8-1-0.8-2.1v-4.7h10.4v-6.5
			c0-3.9,0.5-7.3,1.6-10.2c1-2.9,2.6-5.5,4.7-7.6c2.1-2.1,4.4-3.6,7.3-4.7c2.9-1,6-1.6,9.4-1.6c2.9,0,5.7,0.5,8.3,1.3l-0.3,5.7
			c0,1-0.8,1.6-1.8,1.8c-1,0-2.6,0-4.4,0c-2.1,0-3.9,0.3-5.5,0.8c-1.6,0.5-3.1,1.3-4.2,2.6c-1.3,1.3-2.1,2.9-2.6,4.7
			c-0.5,1.8-1,4.4-1,7v6h19.3v8.6h-18.8v56.8h-12V675z"/>
		<path class="st10" d="M1397.5,607.2c5,0,9.1,0.8,13,2.3c3.9,1.6,7.3,3.9,9.9,6.8c2.9,2.9,5,6.5,6.3,10.7c1.6,4.2,2.1,8.9,2.1,14.1
			s-0.8,9.9-2.1,14.1c-1.6,4.2-3.6,7.8-6.3,10.7c-2.9,2.9-6,5.2-9.9,6.8s-8.3,2.3-13,2.3c-5,0-9.4-0.8-13.3-2.3
			c-3.9-1.6-7.3-3.9-9.9-6.8c-2.9-2.9-5-6.5-6.3-10.7c-1.3-4.2-2.1-8.9-2.1-14.1s0.8-9.9,2.1-14.1c1.3-4.2,3.6-7.8,6.3-10.7
			c2.9-2.9,6-5.2,9.9-6.8S1392.8,607.2,1397.5,607.2z M1397.5,666.7c6.5,0,11.5-2.1,14.6-6.5s5-10.4,5-18.5c0-7.8-1.6-14.1-5-18.5
			c-3.1-4.4-8.1-6.5-14.6-6.5c-3.4,0-6.3,0.5-8.6,1.8c-2.6,1-4.4,2.9-6.3,5c-1.6,2.1-2.9,4.7-3.6,7.8c-0.8,3.1-1.3,6.8-1.3,10.7
			c0,7.8,1.6,14.1,5,18.5C1386,664.6,1391,666.7,1397.5,666.7z"/>
		<path class="st10" d="M1455.1,621.6c2.1-4.4,4.7-8.1,7.8-10.7c3.1-2.6,6.8-3.9,11.2-3.9c1.3,0,2.9,0.3,4.2,0.5
			c1.3,0.3,2.3,0.8,3.4,1.6l-0.8,8.9c-0.3,1-1,1.6-2.1,1.6c-0.5,0-1.6-0.3-2.6-0.5c-1.3-0.3-2.6-0.5-3.9-0.5c-2.1,0-3.9,0.3-5.7,1
			c-1.6,0.5-3.1,1.6-4.4,2.6c-1.3,1.3-2.3,2.6-3.4,4.4c-1,1.8-2.1,3.9-2.9,6v42h-11.7V608h6.8c1.3,0,2.1,0.3,2.6,0.8
			c0.5,0.5,0.8,1.3,1,2.6L1455.1,621.6z"/>
		<path class="st10" d="M1585.4,591.3h-30.5v83.4h-12.8v-83.4h-30.5v-10.7h73.8V591.3z"/>
		<path class="st10" d="M1608.6,607.2c5,0,9.1,0.8,13,2.3c3.9,1.6,7.3,3.9,9.9,6.8c2.9,2.9,5,6.5,6.3,10.7c1.6,4.2,2.1,8.9,2.1,14.1
			s-0.8,9.9-2.1,14.1c-1.6,4.2-3.6,7.8-6.3,10.7c-2.9,2.9-6,5.2-9.9,6.8s-8.3,2.3-13,2.3c-5,0-9.4-0.8-13.3-2.3
			c-3.9-1.6-7.3-3.9-9.9-6.8c-2.9-2.9-5-6.5-6.3-10.7s-2.1-8.9-2.1-14.1s0.8-9.9,2.1-14.1s3.6-7.8,6.3-10.7c2.9-2.9,6-5.2,9.9-6.8
			S1603.7,607.2,1608.6,607.2z M1608.6,666.7c6.5,0,11.5-2.1,14.6-6.5c3.1-4.4,5-10.4,5-18.5c0-7.8-1.6-14.1-5-18.5
			c-3.1-4.4-8.1-6.5-14.6-6.5c-3.4,0-6.3,0.5-8.6,1.8c-2.6,1-4.4,2.9-6.3,5c-1.6,2.1-2.9,4.7-3.6,7.8c-0.8,3.1-1.3,6.8-1.3,10.7
			c0,7.8,1.6,14.1,5,18.5C1596.9,664.6,1601.9,666.7,1608.6,666.7z"/>
		<path class="st10" d="M1710.1,578v97h-7c-1.6,0-2.6-0.8-3.1-2.3l-1-8.1c-2.9,3.4-6,6.3-9.6,8.3c-3.6,2.1-7.8,3.1-12.5,3.1
			c-3.9,0-7.3-0.8-10.4-2.1c-3.1-1.6-5.7-3.6-8.1-6.5c-2.1-2.9-3.9-6.5-5-10.7c-1.3-4.2-1.8-9.1-1.8-14.6c0-5,0.8-9.4,2.1-13.8
			c1.3-4.4,3.1-7.8,5.7-10.9c2.3-3.1,5.5-5.5,9.1-7.3c3.6-1.8,7.6-2.6,12-2.6c4.2,0,7.6,0.8,10.4,2.1c2.9,1.3,5.5,3.4,7.8,5.7v-36.8
			h11.5V578z M1698.6,624.2c-2.1-2.9-4.4-5-7-6.3c-2.6-1-5.5-1.8-8.6-1.8c-6.3,0-10.9,2.1-14.3,6.5c-3.4,4.4-5,10.7-5,19
			c0,4.4,0.3,8.1,1,11.2c0.8,3.1,1.8,5.7,3.4,7.6c1.6,2.1,3.1,3.4,5.2,4.4c2.1,1,4.4,1.3,7,1.3c3.9,0,7.3-0.8,10.2-2.6
			c2.9-1.8,5.5-4.2,7.8-7.3v-32.1H1698.6z"/>
		<path class="st10" d="M1727,617.6c3.6-3.6,7.6-6.3,12-8.1c4.2-1.8,8.9-2.6,14.1-2.6c3.6,0,7,0.5,9.9,1.8c2.9,1.3,5.2,2.9,7.3,5.2
			s3.4,5,4.4,8.1c1,3.1,1.6,6.5,1.6,10.2v42.5h-5.2c-1,0-2.1-0.3-2.6-0.5c-0.5-0.3-1-1-1.6-2.1l-1.3-6.3c-1.8,1.6-3.4,3.1-5.2,4.4
			c-1.6,1.3-3.4,2.3-5.2,3.1c-1.8,0.8-3.9,1.6-6,2.1c-2.1,0.5-4.4,0.8-7,0.8c-2.6,0-5-0.3-7.3-1c-2.3-0.8-4.2-1.8-6-3.1
			c-1.6-1.6-3.1-3.4-3.9-5.5c-1-2.1-1.6-5-1.6-7.8c0-2.6,0.8-5.2,2.1-7.6c1.6-2.3,3.9-4.7,7-6.5c3.1-1.8,7.6-3.4,12.8-4.7
			c5.2-1.3,11.7-1.8,19.3-2.1v-5.2c0-5.2-1-9.1-3.4-11.7s-5.5-3.9-9.9-3.9c-2.9,0-5.2,0.3-7.3,1c-1.8,0.8-3.6,1.6-5,2.3
			c-1.3,0.8-2.6,1.8-3.6,2.3c-1,0.8-2.1,1-3.1,1c-0.8,0-1.6-0.3-2.1-0.5c-0.5-0.5-1-1-1.6-1.6L1727,617.6z M1764.8,645
			c-5.5,0.3-9.9,0.5-13.8,1.3c-3.9,0.8-6.8,1.6-9.4,2.6c-2.3,1-4.2,2.3-5.2,3.9c-1,1.6-1.6,3.1-1.6,5c0,1.8,0.3,3.4,0.8,4.4
			c0.5,1.3,1.3,2.3,2.3,3.1c1,0.8,2.1,1.3,3.4,1.8c1.3,0.3,2.9,0.5,4.4,0.5c2.1,0,3.9-0.3,5.7-0.5c1.8-0.5,3.4-1,5-1.8
			c1.6-0.8,2.9-1.8,4.4-2.9c1.3-1,2.6-2.3,4.2-3.6V645H1764.8z"/>
		<path class="st10" d="M1850.1,608.3l-37.3,86.3c-0.5,0.8-0.8,1.6-1.6,2.1c-0.5,0.5-1.6,0.8-2.6,0.8h-8.6l12.3-26.3l-27.4-62.8
			h10.2c1,0,1.8,0.3,2.3,0.8c0.5,0.5,1,1,1.3,1.6l17.7,42c0.8,1.8,1.3,3.6,1.8,5.7c0.5-2.1,1.3-3.9,2.1-5.7l17.2-42
			c0.3-0.8,0.8-1.3,1.3-1.8c0.5-0.5,1.3-0.8,2.1-0.8h9.1V608.3z"/>
		<path class="st10" d="M1854.7,690.9c-0.3-0.3-0.5-0.5-0.8-0.8c-0.3-0.3-0.3-0.5-0.3-1c0-0.3,0-0.5,0.3-1c0.3-0.3,0.5-0.5,0.8-0.8
			c0.5-0.5,1-1,1.6-1.8c0.8-0.8,1.3-1.8,2.1-2.9c0.8-1,1.3-2.3,1.8-3.6c0.5-1.3,1-2.6,1.3-4.2c-0.3,0-0.3,0-0.5,0
			c-0.3,0-0.3,0-0.5,0c-2.3,0-4.2-0.8-5.5-2.3c-1.3-1.6-2.1-3.4-2.1-5.7c0-2.1,0.8-3.9,2.1-5.2c1.3-1.6,3.4-2.1,5.7-2.1
			c1.3,0,2.3,0.3,3.4,0.8c1,0.5,1.8,1,2.6,2.1c0.8,0.8,1.3,1.8,1.6,2.9c0.3,1,0.5,2.3,0.5,3.6c0,2.1-0.3,3.9-0.8,6.3
			c-0.5,2.1-1.3,4.2-2.3,6.3c-1,2.1-2.3,4.2-3.9,6c-1.6,2.1-3.4,3.9-5.2,5.5L1854.7,690.9z"/>
		<path class="st10" d="M1934.5,675h-12.8v-94.1h12.8V675z"/>
		<path class="st10" d="M1965.8,617.9c1.6-1.6,2.9-3.1,4.7-4.4c1.6-1.3,3.4-2.3,5.2-3.4s3.6-1.6,5.7-2.1c2.1-0.5,4.2-0.8,6.5-0.8
			c3.6,0,6.8,0.5,9.6,1.8c2.9,1.3,5.2,2.9,7,5.2c1.8,2.1,3.4,5,4.2,8.1c1,3.1,1.6,6.5,1.6,10.4v42.5h-11.7v-42.5c0-5-1-8.9-3.4-11.7
			c-2.3-2.9-5.7-4.2-10.4-4.2c-3.4,0-6.8,0.8-9.6,2.6c-3.1,1.6-5.7,3.9-8.3,6.8v49h-11.7v-66.5h7c1.6,0,2.6,0.8,3.1,2.3
			L1965.8,617.9z"/>
		<path class="st10" d="M2067,619.2c-0.5,1-1.3,1.6-2.3,1.6c-0.8,0-1.3-0.3-2.3-0.8c-0.8-0.5-1.8-1-3.1-1.6c-1.3-0.5-2.6-1-4.4-1.6
			c-1.8-0.5-3.6-0.8-6-0.8c-2.1,0-3.6,0.3-5.2,0.8s-2.9,1.3-4.2,2.1c-1,0.8-2.1,1.8-2.6,3.1c-0.5,1-0.8,2.3-0.8,3.9
			c0,1.8,0.5,3.1,1.6,4.2c1,1,2.3,2.1,3.9,2.9c1.6,0.8,3.4,1.6,5.5,2.1s4.2,1.3,6.3,2.1c2.1,0.8,4.2,1.6,6.3,2.3
			c2.1,0.8,3.9,2.1,5.5,3.4c1.6,1.3,2.9,2.9,3.9,5c1,1.8,1.6,4.2,1.6,6.8c0,3.1-0.5,6-1.6,8.6c-1,2.6-2.6,5-5,6.8
			c-2.1,1.8-4.7,3.4-7.8,4.4s-6.8,1.6-10.7,1.6c-4.7,0-8.9-0.8-12.5-2.3s-7-3.4-9.6-5.7l2.9-4.4c0.3-0.5,0.8-1,1.3-1.3
			c0.5-0.3,1-0.5,1.8-0.5s1.6,0.3,2.6,1c0.8,0.5,1.8,1.3,3.1,2.1c1.3,0.8,2.9,1.3,4.7,2.1c1.8,0.8,3.9,1,6.8,1c2.3,0,4.2-0.3,6-0.8
			s3.1-1.3,4.2-2.3c1-1,2.1-2.1,2.6-3.4c0.5-1.3,0.8-2.6,0.8-4.2c0-1.8-0.5-3.4-1.6-4.7c-1-1.3-2.3-2.3-3.9-3.1
			c-1.6-0.8-3.4-1.6-5.5-2.3c-2.1-0.5-4.2-1.3-6.3-2.1c-2.1-0.8-4.2-1.6-6.3-2.3c-2.1-0.8-3.9-2.1-5.5-3.4c-1.6-1.3-2.9-3.1-3.9-5
			c-1-2.1-1.6-4.4-1.6-7.3c0-2.6,0.5-5,1.6-7.3c1-2.3,2.6-4.4,4.7-6.3c2.1-1.8,4.4-3.1,7.6-4.2c2.9-1,6.3-1.6,10.2-1.6
			c4.4,0,8.3,0.8,11.7,2.1c3.4,1.3,6.5,3.4,9.1,5.7L2067,619.2z"/>
		<path class="st10" d="M2096.2,618.7c2.9-3.4,6-6.3,9.6-8.3s7.8-3.1,12.5-3.1c3.9,0,7.3,0.8,10.4,2.1c3.1,1.6,5.7,3.6,8.1,6.5
			c2.1,2.9,3.9,6.5,5,10.7c1,4.2,1.8,9.1,1.8,14.6c0,5-0.8,9.4-2.1,13.8c-1.3,4.2-3.1,7.8-5.7,10.9c-2.6,3.1-5.5,5.5-9.1,7.3
			s-7.6,2.6-12,2.6c-4.2,0-7.6-0.8-10.4-2.1c-2.9-1.3-5.5-3.4-7.8-5.7v29.5h-11.7v-89.2h7c1.6,0,2.6,0.8,3.1,2.3L2096.2,618.7z
			 M2096.9,658.8c2.1,2.9,4.4,5,7,6c2.6,1.3,5.5,1.8,8.6,1.8c6.3,0,10.9-2.1,14.3-6.5c3.4-4.4,5-10.7,5-19c0-4.4-0.3-8.1-1-11.2
			c-0.8-3.1-1.8-5.7-3.4-7.6c-1.6-2.1-3.1-3.4-5.2-4.4c-2.1-1-4.4-1.3-7-1.3c-3.9,0-7,0.8-9.9,2.6c-2.9,1.8-5.5,4.2-7.8,7.6v32.1
			H2096.9z"/>
		<path class="st10" d="M2173.6,587.4c0,1-0.3,2.1-0.8,3.1c-0.5,1-1,1.8-1.8,2.6c-0.8,0.8-1.6,1.3-2.6,1.8s-2.1,0.8-3.1,0.8
			c-1,0-2.1-0.3-3.1-0.8c-1-0.5-1.8-1-2.6-1.8c-0.8-0.8-1.3-1.6-1.8-2.6c-0.5-1-0.8-2.1-0.8-3.1c0-1,0.3-2.3,0.8-3.1
			c0.5-1,1-1.8,1.8-2.6c0.8-0.8,1.6-1.3,2.6-1.8s2.1-0.8,3.1-0.8c1,0,2.3,0.3,3.1,0.8c1,0.5,1.8,1,2.6,1.8c0.8,0.8,1.3,1.6,1.8,2.6
			C2173.3,585.3,2173.6,586.4,2173.6,587.4z M2171.2,608.3v66.5h-11.7v-66.5H2171.2z"/>
		<path class="st10" d="M2201.5,621.6c2.1-4.4,4.7-8.1,7.8-10.7c3.1-2.6,6.8-3.9,11.2-3.9c1.3,0,2.9,0.3,4.2,0.5
			c1.3,0.3,2.3,0.8,3.4,1.6l-0.8,8.9c-0.3,1-1,1.6-2.1,1.6c-0.5,0-1.6-0.3-2.6-0.5c-1.3-0.3-2.6-0.5-3.9-0.5c-2.1,0-3.9,0.3-5.7,1
			c-1.6,0.5-3.1,1.6-4.4,2.6c-1.3,1.3-2.3,2.6-3.4,4.4c-1,1.8-2.1,3.9-2.9,6v42h-11.7V608h6.8c1.3,0,2.1,0.3,2.6,0.8s0.8,1.3,1,2.6
			L2201.5,621.6z"/>
		<path class="st10" d="M2253.1,587.4c0,1-0.3,2.1-0.8,3.1s-1,1.8-1.8,2.6c-0.8,0.8-1.6,1.3-2.6,1.8c-1,0.5-2.1,0.8-3.1,0.8
			c-1,0-2.1-0.3-3.1-0.8c-1-0.5-1.8-1-2.6-1.8c-0.8-0.8-1.3-1.6-1.8-2.6s-0.8-2.1-0.8-3.1c0-1,0.3-2.3,0.8-3.1c0.5-1,1-1.8,1.8-2.6
			c0.8-0.8,1.6-1.3,2.6-1.8c1-0.5,2.1-0.8,3.1-0.8c1,0,2.3,0.3,3.1,0.8c1,0.5,1.8,1,2.6,1.8c0.8,0.8,1.3,1.6,1.8,2.6
			C2252.8,585.3,2253.1,586.4,2253.1,587.4z M2250.5,608.3v66.5h-11.7v-66.5H2250.5z"/>
		<path class="st10" d="M2280.7,617.9c1.6-1.6,2.9-3.1,4.7-4.4c1.6-1.3,3.4-2.3,5.2-3.4c1.8-1,3.6-1.6,5.7-2.1
			c2.1-0.5,4.2-0.8,6.5-0.8c3.6,0,6.8,0.5,9.6,1.8c2.9,1.3,5.2,2.9,7,5.2c1.8,2.1,3.4,5,4.2,8.1c1,3.1,1.6,6.5,1.6,10.4v42.5h-11.7
			v-42.5c0-5-1-8.9-3.4-11.7c-2.3-2.9-5.7-4.2-10.4-4.2c-3.4,0-6.8,0.8-9.6,2.6c-3.1,1.6-5.7,3.9-8.3,6.8v49H2270v-66.5h7
			c1.6,0,2.6,0.8,3.1,2.3L2280.7,617.9z"/>
		<path class="st10" d="M2399.3,610.9v4.4c0,1.6-1,2.3-2.9,2.9l-7.6,1c1.6,2.9,2.3,6,2.3,9.6c0,3.1-0.5,6.3-1.8,8.9s-2.9,5-5.2,6.8
			c-2.1,1.8-5,3.4-7.8,4.4c-2.9,1-6.5,1.6-9.9,1.6c-3.1,0-6-0.3-8.9-1c-1.3,0.8-2.6,1.8-3.1,2.9c-0.8,1-1,2.1-1,2.9
			c0,1.6,0.5,2.9,1.8,3.6c1.3,0.8,2.9,1.3,5.2,1.8c2.1,0.3,4.4,0.5,7.3,0.8c2.6,0,5.5,0.3,8.3,0.5c2.9,0.3,5.5,0.5,8.3,1
			c2.6,0.5,5.2,1.3,7.3,2.3c2.1,1,3.9,2.6,5.2,4.4c1.3,1.8,1.8,4.4,1.8,7.6c0,2.9-0.8,5.7-2.1,8.3c-1.3,2.6-3.4,5-6.3,7
			c-2.6,2.1-6,3.6-9.9,5c-3.9,1.3-8.3,1.8-13,1.8c-4.7,0-9.1-0.5-12.8-1.6s-6.8-2.3-9.1-3.9s-4.2-3.4-5.5-5.7
			c-1.3-2.1-1.8-4.4-1.8-6.8c0-3.4,1-6,3.1-8.3c2.1-2.3,5-4.2,8.6-5.5c-2.1-0.8-3.6-2.1-4.7-3.4c-1-1.3-1.8-3.4-1.8-6
			c0-1,0.3-2.1,0.5-2.9c0.3-1,0.8-2.1,1.6-3.1c0.8-1,1.6-2.1,2.6-2.9c1-0.8,2.3-1.8,3.6-2.3c-3.4-1.8-5.7-4.2-7.8-7.3
			c-1.8-3.1-2.9-6.5-2.9-10.7c0-3.1,0.5-6.3,1.8-8.9c1.3-2.6,2.9-5,5.2-6.8s5-3.4,8.1-4.4c3.1-1,6.5-1.6,10.2-1.6
			c2.9,0,5.5,0.3,8.1,1c2.6,0.5,4.7,1.6,6.8,2.9h18V610.9z M2387.4,678.6c0-1.6-0.5-2.9-1.3-3.9c-1-1-2.1-1.8-3.6-2.3
			c-1.6-0.5-3.4-1-5.5-1.3c-2.1-0.3-4.2-0.5-6.5-0.5c-2.3-0.3-4.7-0.3-7-0.5c-2.3-0.3-4.7-0.3-6.8-0.8c-2.3,1-4.4,2.6-6,4.4
			c-1.6,1.8-2.3,3.6-2.3,6c0,1.6,0.3,2.9,1,4.2s1.8,2.3,3.4,3.4c1.6,1,3.6,1.6,6,2.3c2.3,0.5,5.2,0.8,8.3,0.8s6-0.3,8.6-0.8
			c2.6-0.5,4.7-1.3,6.3-2.3c1.6-1,3.1-2.3,3.9-3.6C2387.1,682,2387.4,680.2,2387.4,678.6z M2366.2,642.4c2.3,0,4.4-0.3,6.3-1
			s3.4-1.6,4.4-2.9c1-1.3,2.1-2.6,2.9-4.2c0.5-1.6,1-3.4,1-5.5c0-4.2-1.3-7.3-3.6-9.6c-2.3-2.3-6-3.6-10.7-3.6
			c-4.7,0-8.3,1.3-10.7,3.6c-2.6,2.3-3.6,5.7-3.6,9.6c0,2.1,0.3,3.9,1,5.5c0.5,1.6,1.6,3.1,2.9,4.2c1.3,1,2.9,2.1,4.4,2.9
			C2362.1,642.1,2363.9,642.4,2366.2,642.4z"/>
		<path class="st10" d="M2507.8,591.3h-30.5v83.4h-12.8v-83.4H2434v-10.7h73.8L2507.8,591.3L2507.8,591.3z"/>
		<path class="st10" d="M2531,607.2c5,0,9.1,0.8,13,2.3c3.9,1.6,7.3,3.9,9.9,6.8c2.6,2.9,5,6.5,6.3,10.7c1.3,4.2,2.1,8.9,2.1,14.1
			s-0.8,9.9-2.1,14.1c-1.3,4.2-3.6,7.8-6.3,10.7c-2.6,2.9-6,5.2-9.9,6.8c-3.9,1.6-8.3,2.3-13,2.3c-5,0-9.4-0.8-13.3-2.3
			c-3.9-1.6-7.3-3.9-9.9-6.8c-2.6-2.9-5-6.5-6.3-10.7s-2.1-8.9-2.1-14.1s0.8-9.9,2.1-14.1s3.6-7.8,6.3-10.7c2.6-2.9,6-5.2,9.9-6.8
			C2521.6,608,2526,607.2,2531,607.2z M2531,666.7c6.5,0,11.5-2.1,14.6-6.5c3.1-4.4,5-10.4,5-18.5c0-7.8-1.6-14.1-5-18.5
			c-3.4-4.4-8.1-6.5-14.6-6.5c-3.4,0-6.3,0.5-8.6,1.8c-2.6,1-4.4,2.9-6.3,5c-1.6,2.1-2.9,4.7-3.6,7.8c-0.8,3.1-1.3,6.8-1.3,10.7
			c0,7.8,1.6,14.1,5,18.5C2519.3,664.6,2524.2,666.7,2531,666.7z"/>
		<path class="st10" d="M2577.4,675v-66.5h7c1.6,0,2.6,0.8,3.1,2.3l0.8,6.8c2.3-3.1,5.2-5.5,8.3-7.6c3.1-1.8,6.5-2.9,10.7-2.9
			c4.4,0,8.1,1.3,10.9,3.6c2.9,2.6,4.7,6,6,10.2c1-2.3,2.1-4.4,3.6-6.3c1.6-1.8,3.1-3.1,5.2-4.4c1.8-1,3.9-2.1,6-2.6
			c2.1-0.5,4.2-0.8,6.5-0.8c3.4,0,6.5,0.5,9.4,1.6c2.9,1,5,2.9,7,5c1.8,2.1,3.4,4.7,4.4,7.8c1,3.1,1.6,6.8,1.6,10.7v42.5h-11.7V632
			c0-5.2-1-9.1-3.4-12c-2.3-2.6-5.5-4.2-9.9-4.2c-1.8,0-3.6,0.3-5.5,1c-1.8,0.8-3.1,1.6-4.7,2.9c-1.3,1.3-2.3,2.9-3.1,5
			c-0.8,2.1-1,4.4-1,7v42.5H2617v-42.5c0-5.5-1-9.4-3.1-12c-2.1-2.6-5.2-3.9-9.4-3.9c-2.9,0-5.5,0.8-8.1,2.3
			c-2.6,1.6-4.7,3.6-6.8,6.3V674h-12.3V675z"/>
		<path class="st10" d="M2713.8,607.2c5,0,9.1,0.8,13,2.3c3.9,1.6,7.3,3.9,9.9,6.8c2.9,2.9,5,6.5,6.3,10.7c1.6,4.2,2.1,8.9,2.1,14.1
			s-0.8,9.9-2.1,14.1c-1.6,4.2-3.6,7.8-6.3,10.7c-2.9,2.9-6,5.2-9.9,6.8c-3.9,1.6-8.3,2.3-13,2.3c-5,0-9.4-0.8-13.3-2.3
			c-3.9-1.6-7.3-3.9-9.9-6.8c-2.9-2.9-5-6.5-6.3-10.7s-2.1-8.9-2.1-14.1s0.8-9.9,2.1-14.1s3.6-7.8,6.3-10.7c2.9-2.9,6-5.2,9.9-6.8
			C2704.4,608,2708.8,607.2,2713.8,607.2z M2713.8,666.7c6.5,0,11.5-2.1,14.9-6.5c3.1-4.4,5-10.4,5-18.5c0-7.8-1.6-14.1-5-18.5
			c-3.1-4.4-8.1-6.5-14.9-6.5c-3.4,0-6.3,0.5-8.6,1.8c-2.3,1.3-4.4,2.9-6.3,5c-1.6,2.1-2.9,4.7-3.6,7.8c-0.8,3.1-1.3,6.8-1.3,10.7
			c0,7.8,1.6,14.1,5,18.5C2702,664.6,2707,666.7,2713.8,666.7z"/>
		<path class="st10" d="M2771.1,621.6c2.1-4.4,4.7-8.1,7.8-10.7c3.1-2.6,6.8-3.9,11.2-3.9c1.3,0,2.9,0.3,4.2,0.5
			c1.3,0.3,2.3,0.8,3.4,1.6l-0.8,8.9c-0.3,1-1,1.6-2.1,1.6c-0.5,0-1.6-0.3-2.6-0.5c-1.3-0.3-2.6-0.5-3.9-0.5c-2.1,0-3.9,0.3-5.7,1
			c-1.6,0.5-3.1,1.6-4.4,2.6c-1.3,1.3-2.3,2.6-3.4,4.4c-1,1.8-2.1,3.9-2.9,6v42h-11.7V608h6.8c1.3,0,2.1,0.3,2.6,0.8s0.8,1.3,1,2.6
			L2771.1,621.6z"/>
		<path class="st10" d="M2819.1,621.6c2.1-4.4,4.7-8.1,7.8-10.7c3.1-2.6,6.8-3.9,11.2-3.9c1.3,0,2.9,0.3,4.2,0.5
			c1.3,0.3,2.3,0.8,3.4,1.6l-0.8,8.9c-0.3,1-1,1.6-2.1,1.6c-0.5,0-1.6-0.3-2.6-0.5c-1.3-0.3-2.6-0.5-3.9-0.5c-2.1,0-3.9,0.3-5.7,1
			c-1.6,0.5-3.1,1.6-4.4,2.6c-1.3,1.3-2.3,2.6-3.4,4.4c-1,1.8-2.1,3.9-2.9,6v42h-11.7V608h6.8c1.3,0,2.1,0.3,2.6,0.8s0.8,1.3,1,2.6
			L2819.1,621.6z"/>
		<path class="st10" d="M2881.1,607.2c5,0,9.1,0.8,13,2.3c3.9,1.6,7.3,3.9,9.9,6.8c2.6,2.9,5,6.5,6.3,10.7s2.1,8.9,2.1,14.1
			s-0.8,9.9-2.1,14.1s-3.6,7.8-6.3,10.7c-2.6,2.9-6,5.2-9.9,6.8c-3.9,1.6-8.3,2.3-13,2.3c-5,0-9.4-0.8-13.3-2.3
			c-3.9-1.6-7.3-3.9-9.9-6.8c-2.6-2.9-5-6.5-6.3-10.7s-2.1-8.9-2.1-14.1s0.8-9.9,2.1-14.1s3.6-7.8,6.3-10.7c2.6-2.9,6-5.2,9.9-6.8
			C2871.7,608,2876.4,607.2,2881.1,607.2z M2881.1,666.7c6.5,0,11.5-2.1,14.6-6.5c3.1-4.4,5-10.4,5-18.5c0-7.8-1.6-14.1-5-18.5
			c-3.4-4.4-8.1-6.5-14.6-6.5c-3.4,0-6.3,0.5-8.6,1.8c-2.6,1-4.4,2.9-6.3,5c-1.6,2.1-2.9,4.7-3.6,7.8c-0.8,3.1-1.3,6.8-1.3,10.7
			c0,7.8,1.6,14.1,5,18.5C2869.7,664.6,2874.6,666.7,2881.1,666.7z"/>
		<path class="st10" d="M3018.5,608.3l-21.6,66.5h-9.4c-1,0-1.8-0.8-2.3-2.3l-14.6-45.1c-0.3-1-0.5-2.1-0.8-3.1
			c-0.3-1-0.5-2.1-0.8-3.1c-0.3,1-0.5,2.1-0.8,3.1c-0.3,1-0.5,2.1-0.8,3.1l-15.1,45.1c-0.5,1.6-1.3,2.3-2.6,2.3h-8.9l-21.6-66.5h9.1
			c1,0,1.8,0.3,2.3,0.8c0.5,0.5,1,1,1.3,1.8l12.8,42.8c0.8,3.1,1.3,6.3,1.8,8.9c0.5-1.6,0.8-2.9,1.3-4.4c0.5-1.6,0.8-3.1,1.3-4.4
			l14.1-43c0.3-0.8,0.5-1.3,1-1.6c0.5-0.5,1.3-0.8,2.1-0.8h5.2c0.8,0,1.6,0.3,2.1,0.8c0.5,0.5,1,1,1.3,1.6l13.8,43
			c0.5,1.6,1,3.1,1.3,4.4c0.5,1.6,0.8,2.9,1,4.4c0.3-1.6,0.5-2.9,0.8-4.4c0.3-1.6,0.8-2.9,1-4.7l13-42.8c0.3-0.8,0.5-1.3,1.3-1.8
			c0.5-0.5,1.3-0.8,2.1-0.8h9.1V608.3z"/>
	</g>
</g>
</svg>
