<?xml version="1.0" encoding="utf-8"?>
<!-- Generator: Adobe Illustrator 28.6.0, SVG Export Plug-In . SVG Version: 9.03 Build 54939)  -->
<svg version="1.1" baseProfile="basic" id="Layer_1"
	 xmlns="http://www.w3.org/2000/svg" xmlns:xlink="http://www.w3.org/1999/xlink" x="0px" y="0px" viewBox="0 0 436 151.5"
	 xml:space="preserve">
<style type="text/css">
	.st0{fill:#EE6A31;}
	.st1{fill:#293545;}
	.st2{fill:#293648;}
	.st3{fill:#293646;}
	.st4{fill:#283545;}
	.st5{fill:#FFFFFF;}
</style>
<g>
	<g id="OBJECTS">
		<g>
			<g>
				<g>
					<path class="st0" d="M127.7,130.2c-6.5,0-9-3-7.7-9.6l3-15.4c1.3-6.6,5-9.6,11.5-9.6h14.7c6.5,0,9,3,7.7,9.6l-0.8,4.1h-8.2
						l0.5-2.5c0.6-3-0.2-4.1-3.3-4.1h-9c-3,0-4.3,1-4.9,4.1l-2.4,12.3c-0.6,3,0.3,4.1,3.3,4.1h9c3,0,4.3-1,4.9-4.1l0.6-2.8h8.2
						l-0.9,4.4c-1.3,6.6-5,9.6-11.5,9.6H127.7z"/>
					<path class="st0" d="M181.8,103.9c6.1,0,8.1,2.5,6.9,8.6l-1.2,5.9h-20.7l-0.4,2.2c-0.5,2.6,0.2,3.4,2.8,3.4h6.7
						c2,0,2.9-0.7,3.3-2.8l0.1-0.7h7.7l-0.4,2.3c-1,5.1-3.8,7.4-8.9,7.4h-12.7c-6.1,0-8.1-2.5-6.9-8.6l1.8-9.1
						c1.2-6.1,4.2-8.6,10.3-8.6H181.8z M167.8,113.5h13l0.1-0.5c0.5-2.6-0.2-3.4-2.8-3.4h-6c-2.6,0-3.6,0.8-4.1,3.4L167.8,113.5z"/>
					<path class="st0" d="M215.4,103.9h8.6l-17.8,26.5c-2.1,3.2-4,5.2-5.9,6.2c-1.8,1-4.5,1.5-8.1,1.5h-4.6l1.3-6.4h5
						c2.5,0,3.7-0.4,5-1.9l-7.2-25.9h8.9l3.8,17.9L215.4,103.9z"/>
					<path class="st0" d="M221.9,130.2l6.8-34.7h8.2l-6.8,34.7H221.9z"/>
					<path class="st0" d="M243.8,130.2c-6.1,0-8.1-2.5-6.9-8.6l1.8-9.1c1.2-6.1,4.2-8.6,10.3-8.6h12c6.1,0,8.1,2.5,6.9,8.6l-1.8,9.1
						c-1.2,6.1-4.2,8.6-10.3,8.6H243.8z M254.2,123.8c2.6,0,3.6-0.8,4.1-3.4l1.3-6.6c0.5-2.6-0.2-3.4-2.8-3.4h-6.2
						c-2.6,0-3.6,0.8-4.1,3.4l-1.3,6.6c-0.5,2.6,0.2,3.4,2.8,3.4H254.2z"/>
					<path class="st0" d="M294.7,103.9c6.1,0,8.1,2.5,6.9,8.6l-3.5,17.7H290l3.2-16.3c0.5-2.6-0.1-3.4-2.7-3.4H288
						c-2.2,0-4,0.5-5.4,1.4l-1.8,1.2l-3.4,17.1h-8l5.2-26.3h6.6l0.1,3.3c2-1.4,3.6-2.3,4.9-2.7c1.3-0.4,3.2-0.6,5.7-0.6H294.7z"/>
				</g>
				<g>
					<path class="st0" d="M127.7,130.2c-6.5,0-9-3-7.7-9.6l3-15.4c1.3-6.6,5-9.6,11.5-9.6h14.7c6.5,0,9,3,7.7,9.6l-0.8,4.1h-8.2
						l0.5-2.5c0.6-3-0.2-4.1-3.3-4.1h-9c-3,0-4.3,1-4.9,4.1l-2.4,12.3c-0.6,3,0.3,4.1,3.3,4.1h9c3,0,4.3-1,4.9-4.1l0.6-2.8h8.2
						l-0.9,4.4c-1.3,6.6-5,9.6-11.5,9.6H127.7z"/>
					<path class="st0" d="M181.8,103.9c6.1,0,8.1,2.5,6.9,8.6l-1.2,5.9h-20.7l-0.4,2.2c-0.5,2.6,0.2,3.4,2.8,3.4h6.7
						c2,0,2.9-0.7,3.3-2.8l0.1-0.7h7.7l-0.4,2.3c-1,5.1-3.8,7.4-8.9,7.4h-12.7c-6.1,0-8.1-2.5-6.9-8.6l1.8-9.1
						c1.2-6.1,4.2-8.6,10.3-8.6H181.8z M167.8,113.5h13l0.1-0.5c0.5-2.6-0.2-3.4-2.8-3.4h-6c-2.6,0-3.6,0.8-4.1,3.4L167.8,113.5z"/>
					<path class="st0" d="M215.4,103.9h8.6l-17.8,26.5c-2.1,3.2-4,5.2-5.9,6.2c-1.8,1-4.5,1.5-8.1,1.5h-4.6l1.3-6.4h5
						c2.5,0,3.7-0.4,5-1.9l-7.2-25.9h8.9l3.8,17.9L215.4,103.9z"/>
					<path class="st0" d="M221.9,130.2l6.8-34.7h8.2l-6.8,34.7H221.9z"/>
					<path class="st0" d="M243.8,130.2c-6.1,0-8.1-2.5-6.9-8.6l1.8-9.1c1.2-6.1,4.2-8.6,10.3-8.6h12c6.1,0,8.1,2.5,6.9,8.6l-1.8,9.1
						c-1.2,6.1-4.2,8.6-10.3,8.6H243.8z M254.2,123.8c2.6,0,3.6-0.8,4.1-3.4l1.3-6.6c0.5-2.6-0.2-3.4-2.8-3.4h-6.2
						c-2.6,0-3.6,0.8-4.1,3.4l-1.3,6.6c-0.5,2.6,0.2,3.4,2.8,3.4H254.2z"/>
					<path class="st0" d="M294.7,103.9c6.1,0,8.1,2.5,6.9,8.6l-3.5,17.7H290l3.2-16.3c0.5-2.6-0.1-3.4-2.7-3.4H288
						c-2.2,0-4,0.5-5.4,1.4l-1.8,1.2l-3.4,17.1h-8l5.2-26.3h6.6l0.1,3.3c2-1.4,3.6-2.3,4.9-2.7c1.3-0.4,3.2-0.6,5.7-0.6H294.7z"/>
				</g>
			</g>
			<g>
				<path class="st1" d="M2.1,128.1c4.2-19.6,17.1-51.7,140.7-60.4c0,0,64.4-32.9,95.7-39.3c98.5-20,139.3,25.1,184.3,22.5
					c-20.7,13.4-165.9,13.2-198.3,25.2c19.1-9.4,112.4-24.7,139-23.9c-29.7-15.7-52-27.8-123.1-18.5c-19.7,2.6-60.3,20-72.5,32
					c0.3,5.1,5.1,9,21.3,10c0,0-15.7,3.1-31.5,0.4C141.8,73.4,74.2,83,51.9,92.9c23.4-1.2,53.8,16.7,47.6,43.9
					c-0.7-3.4-6.7-34.2-45.9-38.2C19.5,95.1,2.1,128.1,2.1,128.1L2.1,128.1z M196,60c-2.1,0-4.2,0-6.3,0.2c7.8,1,11.3,4.4,11.3,4.4
					s-3.4,5.4-11.9,6.8c1.7,0.2,3.5,0.3,5.2,0.3c11.5,0,15.9-7.1,15.9-7.1S205.9,60.3,196,60L196,60z"/>
				<path class="st0" d="M124.6,32.4c-3.5,2.2-6.9,4.7-10,7.4l-8.5-3.2c4-3.1,8.3-5.8,12.8-8.2L124.6,32.4L124.6,32.4z M102.6,39.5
					c-3.9,3.3-7.4,6.9-10.6,10.9l12.1,1.1c2.4-3.3,5.1-6.3,7.9-9.1l-9.4-2.8V39.5z M137.4,21.1c-5,1.5-9.8,3.3-14.3,5.4l4.8,4.1
					c3.7-2.1,7.7-3.9,11.9-5.3C139.8,25.3,137.4,21.1,137.4,21.1z M170.4,16.5c-2.1,0-4.1,0-6.2,0.2l-0.6,3.5
					c4-0.4,8.1-0.6,12.3-0.6s5.7,0.1,8.6,0.3l1.7-2.3c-5.1-0.7-10.4-1-15.8-1V16.5z M88.9,54.5c-3,4.2-5.6,8.6-7.8,13.4
					c4.6-0.9,9.9-2.4,15.1-3.2c1.7-3.5,3.6-6.7,5.6-9.8l-12.9-0.3L88.9,54.5z M159.6,17c-6.2,0.5-12.1,1.5-17.8,2.9l1.8,4.1
					c5-1.5,10.3-2.6,15.9-3.4L159.6,17L159.6,17z M190.4,20.4c9.2,1.1,17.8,3.1,25.7,6c0.4-0.1,0.7-0.2,1-0.4c-7.6-3.4-16-6-25-7.6
					l-1.8,2H190.4z"/>
				<path class="st2" d="M135.1,17.2c-5.5,1.7-10.8,3.7-15.8,6.1l-11.8-10c7-2.4,14.4-4.2,22-5.5l5.5,9.5L135.1,17.2z M100.9,34.6
					c4.3-3.4,9-6.4,14-9.1l-13.8-9.9c-7.6,3-14.8,6.7-21.4,11C79.7,26.6,100.9,34.6,100.9,34.6z M85.7,49.8c3.3-4.3,7.2-8.3,11.4-12
					l-23.4-7.1C67,35.6,61,41.1,55.8,47.1L85.7,49.8z M197.4,12.7l-2.1,2.4c9.4,2.1,18.2,5.3,26.2,9.4c0.5-0.1,0.9-0.2,1.4-0.3
					c-7.8-4.6-16.4-8.4-25.4-11.4L197.4,12.7z M165.9,6.3l-1,5.9c1.4,0,2.8,0,4.2,0c6.8,0,13.4,0.6,19.8,1.6l2.2-3
					c-8.1-2.2-16.5-3.7-25.3-4.5L165.9,6.3z M139.9,15.8c6.4-1.6,13-2.7,19.8-3.2L160,6c-2.3-0.1-4.5-0.2-6.8-0.2
					c-5.9,0-11.7,0.4-17.3,1C135.9,6.8,139.9,15.8,139.9,15.8z M50.7,53.5C44.9,61.4,40.4,70,37.5,79.2c9.9-3.8,22.1-7.3,37.2-10.2
					c2-5.1,4.6-10,7.7-14.7C82.4,54.3,50.7,53.5,50.7,53.5z"/>
				<polygon class="st0" points="161.7,49.8 152.2,54.5 69.8,41 				"/>
			</g>
		</g>
		<g>
			<g>
				<path class="st0" d="M320.2,130.2c-6.5,0-9-3-7.7-9.6l3-15.4c1.3-6.6,5-9.6,11.5-9.6h14.7c6.5,0,9,3,7.7,9.6l-0.8,4.1h-8.2
					l0.5-2.5c0.6-3-0.2-4.1-3.3-4.1h-9c-3,0-4.3,1-4.9,4.1l-2.4,12.3c-0.6,3,0.3,4.1,3.3,4.1h9c3,0,4.3-1,4.9-4.1l0.6-2.8h8.2
					l-0.9,4.4c-1.3,6.6-5,9.6-11.5,9.6H320.2z"/>
				<path class="st0" d="M374.3,103.9c6.1,0,8.1,2.5,6.9,8.6l-3.5,17.7h-6.6l-0.1-3.2c-1.9,1.4-3.4,2.3-4.6,2.6
					c-1.2,0.3-3,0.5-5.4,0.5h-5.7c-4.2,0-5.8-2.1-5-6.2l0.6-2.9c0.8-4.2,3.3-6.2,7.5-6.2h14.5l0.4-1.9c0.5-2.6-0.2-3.4-2.8-3.4h-5.5
					c-2,0-2.9,0.7-3.3,2.8l-0.1,0.7h-7.7l0.3-1.8c1-5.1,3.8-7.4,8.9-7.4H374.3z M364.6,124.9c1.8,0,3.3-0.4,4.6-1.3l2-1.3l0.6-3
					h-10.3c-1.8,0-2.4,0.6-2.8,2.3l-0.2,0.9c-0.3,1.8,0.1,2.3,1.9,2.3H364.6z"/>
				<path class="st0" d="M407.2,103.9l-1.5,7.5h-4.4c-2.2,0-4,0.5-5.4,1.4l-1.8,1.2l-3.2,16.2h-8l5.2-26.3h5.7l0.2,3.7l0.2-0.1
					c2-1.5,3.8-2.5,5.1-2.9c1.3-0.4,3.3-0.6,5.8-0.6H407.2z"/>
				<path class="st0" d="M406.5,121.6h7.7l-0.3,1.5c-0.2,1.1,0.1,1.5,1.3,1.5h9.3c1.2,0,1.7-0.4,1.9-1.5l0.3-1.5
					c0.2-1.1-0.1-1.4-1.3-1.6l-11.9-1.2c-3.9-0.3-5.5-2.3-4.8-5.9l0.6-3.1c0.7-3.8,3.4-6,7.2-6h15c3.8,0,5.6,2.2,4.8,6l-0.4,2.3
					h-7.7l0.2-1.2c0.2-1.1-0.1-1.5-1.3-1.5H419c-1.2,0-1.7,0.4-1.9,1.5l-0.1,0.6c-0.2,1.1,0.1,1.4,1.3,1.6l11.9,1.2
					c3.9,0.3,5.5,2.3,4.8,5.9l-0.8,4c-0.7,3.8-3.4,6-7.2,6h-16.2c-3.8,0-5.6-2.2-4.8-6L406.5,121.6z"/>
			</g>
			<g>
				<path class="st3" d="M320.2,130.2c-6.5,0-9-3-7.7-9.6l3-15.4c1.3-6.6,5-9.6,11.5-9.6h14.7c6.5,0,9,3,7.7,9.6l-0.8,4.1h-8.2
					l0.5-2.5c0.6-3-0.2-4.1-3.3-4.1h-9c-3,0-4.3,1-4.9,4.1l-2.4,12.3c-0.6,3,0.3,4.1,3.3,4.1h9c3,0,4.3-1,4.9-4.1l0.6-2.8h8.2
					l-0.9,4.4c-1.3,6.6-5,9.6-11.5,9.6H320.2z"/>
				<path class="st3" d="M374.3,103.9c6.1,0,8.1,2.5,6.9,8.6l-3.5,17.7h-6.6l-0.1-3.2c-1.9,1.4-3.4,2.3-4.6,2.6
					c-1.2,0.3-3,0.5-5.4,0.5h-5.7c-4.2,0-5.8-2.1-5-6.2l0.6-2.9c0.8-4.2,3.3-6.2,7.5-6.2h14.5l0.4-1.9c0.5-2.6-0.2-3.4-2.8-3.4h-5.5
					c-2,0-2.9,0.7-3.3,2.8l-0.1,0.7h-7.7l0.3-1.8c1-5.1,3.8-7.4,8.9-7.4H374.3z M364.6,124.9c1.8,0,3.3-0.4,4.6-1.3l2-1.3l0.6-3
					h-10.3c-1.8,0-2.4,0.6-2.8,2.3l-0.2,0.9c-0.3,1.8,0.1,2.3,1.9,2.3H364.6z"/>
				<path class="st3" d="M407.2,103.9l-1.5,7.5h-4.4c-2.2,0-4,0.5-5.4,1.4l-1.8,1.2l-3.2,16.2h-8l5.2-26.3h5.7l0.2,3.7l0.2-0.1
					c2-1.5,3.8-2.5,5.1-2.9c1.3-0.4,3.3-0.6,5.8-0.6H407.2z"/>
				<path class="st3" d="M406.5,121.6h7.7l-0.3,1.5c-0.2,1.1,0.1,1.5,1.3,1.5h9.3c1.2,0,1.7-0.4,1.9-1.5l0.3-1.5
					c0.2-1.1-0.1-1.4-1.3-1.6l-11.9-1.2c-3.9-0.3-5.5-2.3-4.8-5.9l0.6-3.1c0.7-3.8,3.4-6,7.2-6h15c3.8,0,5.6,2.2,4.8,6l-0.4,2.3
					h-7.7l0.2-1.2c0.2-1.1-0.1-1.5-1.3-1.5H419c-1.2,0-1.7,0.4-1.9,1.5l-0.1,0.6c-0.2,1.1,0.1,1.4,1.3,1.6l11.9,1.2
					c3.9,0.3,5.5,2.3,4.8,5.9l-0.8,4c-0.7,3.8-3.4,6-7.2,6h-16.2c-3.8,0-5.6-2.2-4.8-6L406.5,121.6z"/>
			</g>
		</g>
		<polygon class="st4" points="211,135.8 205.1,144.7 431.1,144.7 431.1,135.8 		"/>
		<g>
			<path class="st5" d="M222,142.8h-0.9l-1.5-1.7h-1v1.7h-0.8v-4.9c0.8,0,1.5,0,2.3,0c1.1,0,1.7,0.8,1.7,1.6c0,0.7-0.4,1.4-1.3,1.5
				l1.5,1.6L222,142.8z M218.6,138.6v1.8h1.5c0.7,0,0.9-0.4,0.9-0.9c0-0.4-0.3-0.9-0.9-0.9H218.6z"/>
			<path class="st5" d="M229.2,142.8v-4.9h0.8v4.9H229.2z"/>
			<path class="st5" d="M239.3,137.9c1.7,0,2.4,1.2,2.5,2.4c0,1.2-0.7,2.5-2.5,2.5c-0.6,0-1.3,0-1.9,0v-4.9H239.3z M238.2,142h1.1
				c1.2,0,1.7-0.9,1.7-1.7c0-0.8-0.5-1.7-1.7-1.7h-1.1V142z"/>
			<path class="st5" d="M252.6,142.8H249c0-1.6,0-3.3,0-4.9h3.6v0.8h-2.8v1.3h2.7v0.7h-2.7v1.3h2.8V142.8z"/>
			<path class="st5" d="M272.8,142.8h-0.7l-0.7-1.7l-0.5-1.6l-0.5,1.7l-0.6,1.7H269l-1.8-4.9h0.9l1.2,3.8l1.3-3.8h0.5l1.3,3.8
				l1.2-3.8h0.9L272.8,142.8z"/>
			<path class="st5" d="M281.6,142.8v-4.9h0.8v4.9H281.6z"/>
			<path class="st5" d="M291,138.6h-1.6v-0.7c1.4,0,2.6,0,4,0v0.7h-1.6v4.2H291V138.6z"/>
			<path class="st5" d="M303.8,142.8v-2h-2.6v2h-0.8v-4.9h0.8v2.1h2.6v-2.1h0.8v4.9H303.8z"/>
			<path class="st5" d="M324.2,142.2c-0.5,0.5-1.2,0.7-1.8,0.7c-1.8,0-2.6-1.2-2.6-2.5c0-1.3,0.8-2.6,2.6-2.6c0.7,0,1.3,0.2,1.8,0.7
				l-0.5,0.5c-0.4-0.3-0.8-0.5-1.3-0.5c-1.2,0-1.8,0.9-1.8,1.8c0,0.9,0.5,1.8,1.8,1.8c0.5,0,1-0.2,1.3-0.5L324.2,142.2z"/>
			<path class="st5" d="M335.9,140.4c0,1.3-0.8,2.5-2.5,2.5c-1.7,0-2.5-1.2-2.5-2.5c0-1.5,1-2.6,2.5-2.6
				C335.1,137.8,335.9,139,335.9,140.4z M333.4,142.2c1.2,0,1.7-0.9,1.7-1.8c0-0.9-0.5-1.8-1.7-1.9c-1.1,0-1.7,0.8-1.7,1.9
				C331.7,141.3,332.2,142.2,333.4,142.2z"/>
			<path class="st5" d="M346.5,141.4v-3.5h0.8v4.9h-0.6l-2.8-3.5v3.5h-0.8v-4.9h0.6L346.5,141.4z"/>
			<path class="st5" d="M354.8,142.8v-4.9h3.5v0.8h-2.7v1.5h2.5v0.7h-2.5v1.9H354.8z"/>
			<path class="st5" d="M365.5,142.8v-4.9h0.8v4.9H365.5z"/>
			<path class="st5" d="M375.6,137.9c1.7,0,2.4,1.2,2.5,2.4c0,1.2-0.7,2.5-2.5,2.5c-0.6,0-1.3,0-1.9,0v-4.9H375.6z M374.6,142h1.1
				c1.2,0,1.7-0.9,1.7-1.7c0-0.8-0.5-1.7-1.7-1.7h-1.1V142z"/>
			<path class="st5" d="M389,142.8h-3.6c0-1.6,0-3.3,0-4.9h3.6v0.8h-2.8v1.3h2.7v0.7h-2.7v1.3h2.8V142.8z"/>
			<path class="st5" d="M399.6,141.4v-3.5h0.8v4.9h-0.6l-2.8-3.5v3.5h-0.8v-4.9h0.6L399.6,141.4z"/>
			<path class="st5" d="M412.1,142.2c-0.5,0.5-1.2,0.7-1.8,0.7c-1.8,0-2.6-1.2-2.6-2.5c0-1.3,0.8-2.6,2.6-2.6c0.7,0,1.3,0.2,1.8,0.7
				l-0.5,0.5c-0.4-0.3-0.8-0.5-1.3-0.5c-1.2,0-1.8,0.9-1.8,1.8c0,0.9,0.5,1.8,1.8,1.8c0.5,0,1-0.2,1.3-0.5L412.1,142.2z"/>
			<path class="st5" d="M422.8,142.8h-3.6c0-1.6,0-3.3,0-4.9h3.6v0.8h-2.8v1.3h2.7v0.7h-2.7v1.3h2.8V142.8z"/>
		</g>
	</g>
</g>
</svg>
