<?xml version="1.0" encoding="utf-8"?>
<!-- Generator: Adobe Illustrator 28.6.0, SVG Export Plug-In . SVG Version: 9.03 Build 54939)  -->
<svg version="1.1" baseProfile="basic" id="Layer_1"
	 xmlns="http://www.w3.org/2000/svg" xmlns:xlink="http://www.w3.org/1999/xlink" x="0px" y="0px" viewBox="0 0 4241.3 1324.9"
	 xml:space="preserve">
<style type="text/css">
	.st0{fill:#B8904A;}
	.st1{fill:#311E10;}
	.st2{font-family:'Garamond-Bold';}
	.st3{font-size:597.4811px;}
	.st4{fill:#321F11;}
	.st5{fill:#412614;}
	.st6{fill:#2D6251;}
	.st7{fill:#86662B;}
	.st8{opacity:0.69;fill:#2D6251;}
	.st9{opacity:0.54;fill:#583219;}
	.st10{fill:#CAA361;}
	.st11{fill:#B99362;}
	.st12{fill:url(#SVGID_1_);}
	.st13{fill:#C59C68;}
	.st14{fill:#987649;}
	.st15{fill:#F5DFAF;}
	.st16{fill:#644C1F;}
	.st17{fill:url(#SVGID_00000077294345003696126130000015438179669416639108_);}
	.st18{fill:url(#SVGID_00000047744295952960752650000018424385550311014055_);}
	.st19{fill:url(#SVGID_00000090268591665769845670000005349331894862888860_);}
	.st20{fill:url(#SVGID_00000003796102791420558890000003833937787000529593_);}
	.st21{font-size:298.3686px;}
</style>
<g>
	<path class="st0" d="M1030.9,302c-35.7,27.9-62.6,57.4-82.7,83.5c-9.3-74.9-35.2-190.3-114.6-302.7C810.8,50.5,787,23.1,763.9,0
		c-23.8,27.3-48.4,59.8-71.4,97.9c-67.5,111.5-90.9,220.3-99.6,294.9l0,0C559.3,347,484.3,261.3,361.3,226.4
		c-39.6-11.2-76.2-14.9-107.2-15.2c-0.5,47.6,2.1,102.9,10.7,163.9c8.1,57.4,19.9,108.4,32.6,152.1c39.3,24.3,78.6,48.6,117.9,73
		c9.7-6.3,21.1-12.9,34.2-19.1c16.5-7.8,31.9-13.1,45.3-16.8c-62-92.2-124.1-184.5-186.1-276.7c34.6,26.4,78.1,65,120.1,118.4
		c43.1,54.8,70.6,107.6,88.1,148.2c10.9-4.5,22.7-8.9,35.4-12.9c28.7-9.1,55.4-14.1,78.6-16.8c46.1-5.5,100.2-8.7,160.4-6.3
		c75.4,3.1,141,14.2,194.2,27c73.1-98,146.2-196,219.3-294l11.4,80.4c-2.3,18.2-4.6,36.5-6.9,54.7c19.8-13.4,39.6-26.8,59.3-40.2
		c-0.8-47.3-1.6-94.7-2.4-142C1213.9,211.3,1120.1,232.1,1030.9,302z"/>
	<text transform="matrix(1 0 0 1 1588.7805 785.2831)" class="st1 st2 st3">CEYLON</text>
	<path class="st4" d="M1124.3,680.3c-1.8-7.3-5.1-17.6-11-28.9c-60.8-116.9-280.2-108.3-383.8-104.3c-99.1,3.9-267.8,10.5-315.5,109
		c-4.7,9.6-7.3,18.3-8.7,24.3c-16.4,35.6-74.1,171.8-22.3,327c47.7,143.1,183.9,289,371.7,293.1c181.9,3.9,321.4-127.4,378.5-262
		C1205.6,867.4,1137.3,709,1124.3,680.3z M765.8,758.6c-170.8,0-309.3-42.2-309.3-94.2s138.5-94.2,309.3-94.2s309.3,42.2,309.3,94.2
		C1075,716.5,936.5,758.6,765.8,758.6z"/>
	<ellipse class="st5" cx="768.2" cy="659.6" rx="230.5" ry="50.6"/>
	<path class="st0" d="M406.5,1131.4c-22.6-40.5-50.5-102.2-63.5-181.7c-8-48.9-8.4-92.2-6.1-127c-31.6-4.4-81.9-6.8-138.5,11.7
		c-123,40.1-179.3,147-191.8,172.3c52.4,45.7,168.6,132.5,323.5,132C357.4,1138.6,383,1135.8,406.5,1131.4z"/>
	<path class="st6" d="M406.5,611.4l-41.3,83.1l-234-124.2l221.7,154L334,822.4c-89.4-0.6-134.5-31.1-156.6-51.6
		c-15.5-14.4-25.5-29.3-95.6-160.9c-14.1-26.4-25.8-48.6-34.2-64.6c30.8-10.8,74.9-21.7,127.9-20.6C293.1,527,376,586.9,406.5,611.4
		z"/>
	<path class="st6" d="M274.3,227c-1.3,39.9,0.2,88.1,8.4,142c9.1,59.8,23.9,110.7,38.7,151c35.8,24,71.6,47.9,107.5,71.9l61-26.2
		c-23.9-48.4-53.3-101.2-89.3-156.3c-29.7-45.5-59.8-86-88.7-121.8c29.2,25.7,60.7,56.9,92,94.3c51.7,61.7,87.7,122,112.8,172.3
		c33.8-9.4,67.6-18.7,101.3-28.1C612.1,496.2,586.5,386,483,305C397.9,238.3,308,228.8,274.3,227z"/>
	<path class="st6" d="M753.9,517.4l-106.2,5.2l-33.4-118.9c-2.2-64.8,8.6-114.8,18.2-147.2c21.8-73.5,60.3-131.8,97.9-188.9
		c11.8-17.9,22-32.2,28.8-41.7C770,36,780.7,46.8,791.1,58.5c95.7,107.6,125.6,237,134.7,329.8c-13,44.8-26.1,89.6-39.1,134.4
		l-102.4-7.4l-20.4-434L753.9,517.4z"/>
	<path class="st6" d="M1237.7,367.4c0-46.2,0-92.4,0-138.5c-32.4,4.3-127.5,21.1-211,101C949.1,404,926,489.8,919,522.6l67,14.4
		c31.1-49.4,73.9-107.2,132.1-164.6c31.4-31,62.4-57.1,91.4-79c-51.8,64.9-103.7,129.8-155.5,194.8c30.1-19.7,60.2-39.4,90.3-59.1
		C1175.4,408.6,1206.5,388,1237.7,367.4z"/>
	<path class="st6" d="M1198.6,820.9l-20-95.1c32.4-23.4,67.1-47,104.1-70.6c50.3-32,99.1-60.2,145.7-84.9
		c-44.3,12.8-97.4,32.2-154.2,62.4c-40.9,21.8-75.7,44.9-104.6,66.6c-1.6-14.6-7.8-53.8-39-89.1c-23.9-26.9-51-39-65.1-44.1
		c90.3-24.9,202.1-44,329.9-40c31.3,1,61.2,3.3,89.6,6.5c-6.4,20.7-16.7,49.7-32.5,83.1c-27.6,58.1-54.6,114.8-110.6,155.7
		C1320.3,787,1273.5,815.7,1198.6,820.9z"/>
	<path class="st0" d="M1196.3,850.8c-1,34.6-5.4,77.9-17.9,126.1c-16.6,64.1-41.6,114.6-62.8,150.2c39.9,8.5,115.1,19,204.6-3.7
		c107.1-27.1,175.9-86.8,205.6-116c-16.1-24.1-38.6-53.7-69.1-84.4c-17.9-18-37.5-37.4-67.2-56.8c-21.8-14.2-56.1-33.1-103.1-45.3
		c-11.1,5.2-23.4,10.4-36.9,15.2C1230.4,842.8,1212.4,847.5,1196.3,850.8z"/>
	<path class="st7" d="M1347.1,865c-66.5-27-125.9-19.1-150.8-14.2c-0.9,25.2-3.5,54.4-9.4,86.6l57.3,6.7l120.7-47l-100.4,55
		l208.7,53l-198.1-19.9l-7,85.6l-6.8-91.8l-78.4-22c-0.8,3.8-1.7,7.6-2.6,11.4c-13.3,56.2-32.6,102.1-50.3,136.6
		c33.3,8.2,96.2,18.9,171.5,1.6c100-23,162.2-81.8,186.1-107C1478.6,979.9,1439.1,902.4,1347.1,865z"/>
	<g>
		<path class="st8" d="M141.1,979.2c39.9-7,58.2-9.6,114.7-24.8c42.8-11.6,72.8-18.7,84.7-21.5c-3.8-28.7-5-55-4.8-77.9
			c-17.5-5-45.8-10.9-80.5-8.7c-93.8,6-152.3,66.5-162,76.9c-12.8,13.6-31.4,36.8-46,70.8C65.3,991.2,110,984.6,141.1,979.2z"/>
		<path class="st8" d="M344.4,958.1c-0.1-0.4-0.1-0.7-0.2-1.1l-69.6,22.1l-24.2,88.5l2.2-84.6c0,0-66.8,15.1-96.3,19.6
			c-18.9,2.9-54.7,7.6-78.1,10.6c4.2,2.7,8.4,5.7,12.5,9.4c9.6,8.5,14.6,16.4,17.4,20.3c8.9,12.5,24.6,25.9,83.7,45.9
			c74.2,25.2,121.1,40.4,177.9,26.1c10.5-2.6,18.9-5.7,24.1-7.7C375.7,1070.8,355.6,1020.4,344.4,958.1z"/>
	</g>
	<path class="st5" d="M1460.2,237.5c31.9,4.5,94.5,9.3,29.7,48.4s-94,48.7-191.2,115.9S1159.1,508,1042.3,567.9
		c-116.9,59.9-185.8,88-206.6,94s-22.3,0.4-35.1-3.2c-12.8-3.6,96.7-60.1,155.7-90.4c58.9-30.2,154.7-85.5,221.9-132.9
		s122.9-93.8,175.8-128.9C1406.9,271.3,1460.2,237.5,1460.2,237.5z"/>
	<path class="st9" d="M416,699.6c-15.2,30.1-75.4,157-29.7,306c48.5,158.1,196.7,278.2,333.2,278.9c192.9,1,411-237.3,382.3-574.4
		c-55.7,30.7-189.9,95-369.6,85.6C581.2,787.9,470.3,731.9,416,699.6z"/>
	<path class="st10" d="M1086.6,706.4c-2.4-0.3-7.9,1.2-11.4,5c-8.2,9-1.7,27.2-0.1,32c15.7,47.3,9.8,165,8.4,184.8
		c-3.8,52.3-24.6,88.4-52.5,136.9c-60.6,105.3-147.6,165.1-201,195.1c67.2-32.9,226.4-123.2,270.2-289.4
		C1130,858,1106.9,708.6,1086.6,706.4z"/>
	<path class="st11" d="M1031,756.7c7.6,16.4,15.3,37.1,20.1,61.8c10.1,51.4,3.2,94.9-3.4,121.2c9.3-15.5,24.3-44.9,28-84.9
		c4.5-48.8-10.4-86.4-18.3-103.2c-3-5-8.7-7.8-14.3-7C1037,745.5,1032,750.4,1031,756.7z"/>
	
		<linearGradient id="SVGID_1_" gradientUnits="userSpaceOnUse" x1="960.9235" y1="965.8406" x2="993.696" y2="965.8406" gradientTransform="matrix(1 0 0 -1 0 1776)">
		<stop  offset="0" style="stop-color:#FFFFFF"/>
		<stop  offset="0" style="stop-color:#D3B778"/>
		<stop  offset="1" style="stop-color:#FFFAFC"/>
	</linearGradient>
	<path class="st12" d="M964.2,762.1c-5.5,56.9-5,85.4,8.7,92.7s20.2,16.1,20.7-15.6c0.5-31.7-0.5-81.8-14.2-80.6
		C965.6,759.8,964.2,762.1,964.2,762.1z"/>
	<path class="st13" d="M999.5,757c7.5,62.8-4.8,117.2,8.3,125.5c13.2,8.3,21.5,7.1,21.5-26.7s15.8-99.7,0-103.2S999.5,757,999.5,757
		z"/>
	<path class="st13" d="M537.8,767.7c1.3,43.3-2.8,80.5,8.4,86.5c3.9,2.1,6.4,2.9,8,2c4.9-2.7,3.4-14.9,2.8-24.4
		c-2.9-40.6,9.7-60,0-66.4C554.3,763.7,549.1,762.3,537.8,767.7z"/>
	<path class="st11" d="M488.3,745.7c0,0-12.7,32.4-11.2,70.5c1.5,38-0.4,74.9,11.2,77.2s11.2-3,11.2-23.9s-7.8-73.1,0-94
		s7.8-27.6,0-29.8S488.3,745.7,488.3,745.7z"/>
	<path class="st11" d="M462.2,731.9c10.4,4.8,21.3,7.1,17.2,17.2c-4.1,10.1-15.3,48.1-17.2,85.8s-4.1,48.8-12.3,41.8
		s-3-90.8,3.7-117.9S462.2,731.9,462.2,731.9z"/>
	<path class="st14" d="M430.6,708.1c20.9,7.1,12.7,13,6.7,41s-17.5,41.8-18.3,85c-0.7,43.3,4.1,65.2-4.5,64.5s-8.2-23.1-8-54.8
		s5.8-67.5,9.2-95.1C419,721.1,430.6,708.1,430.6,708.1z"/>
	<path class="st14" d="M429.2,819.3c-4.1,27-6.7,67.1,2.6,114c6.4,32,16.6,58.4,26.1,78.2c-6.5-25.4-12.4-53.1-17.3-82.9
		C434.2,889.1,430.8,852.4,429.2,819.3z"/>
	<path class="st15" d="M762.2,788.9c-25.6,25.6-48.2,41.1-37.1,60.7s34.4,43.5,44.8,36.4s46.2-29,37.4-50.6
		C798.6,813.9,762.2,788.9,762.2,788.9z"/>
	<circle class="st16" cx="765.5" cy="836" r="16.4"/>
	
		<linearGradient id="SVGID_00000041994333580356791250000009921686277933706112_" gradientUnits="userSpaceOnUse" x1="613.2" y1="834.6" x2="685.8" y2="834.6" gradientTransform="matrix(1 0 0 -1 0 1776)">
		<stop  offset="0" style="stop-color:#FFFFFF"/>
		<stop  offset="0" style="stop-color:#D3B778"/>
		<stop  offset="1" style="stop-color:#FFFAFC"/>
	</linearGradient>
	
		<ellipse style="fill:url(#SVGID_00000041994333580356791250000009921686277933706112_);" cx="649.5" cy="941.4" rx="36.3" ry="25.3"/>
	
		<linearGradient id="SVGID_00000106863841614190042700000006739034423989306009_" gradientUnits="userSpaceOnUse" x1="844.9" y1="831.9" x2="924.2193" y2="831.9" gradientTransform="matrix(1 0 0 -1 0 1776)">
		<stop  offset="0" style="stop-color:#FFFFFF"/>
		<stop  offset="0" style="stop-color:#D3B778"/>
		<stop  offset="1" style="stop-color:#FFFAFC"/>
	</linearGradient>
	
		<ellipse style="fill:url(#SVGID_00000106863841614190042700000006739034423989306009_);" cx="884.6" cy="944.1" rx="39.7" ry="31.6"/>
	<path class="st15" d="M987.6,916.8c-7.8-11.6-22.3-29.7-45.9-44.3c-15-9.3-44.6-27.5-81.4-21.2c-38.8,6.7-61.5,36.5-71.7,49.8
		c-12.4,16.3-19,32.1-22.5,42.7c-5.5-13.9-17.6-39.1-43-60.9c-12.3-10.6-48.1-41.3-88.9-34.9c-23.9,3.8-54.7,21.1-74.3,44.6
		c-7.8,9.4-18.1,25-35.5,27c-10.8,1.3-17.5-3.5-19.5-0.7c-4.4,6.2,22.8,33.7,45.3,51.8c9.5,7.7,22.2,17.7,41.4,27
		c16.9,8.2,29.2,14.2,46.9,15c23.7,1.1,41.9-7.9,51.5-12.7c13.8-7,23.7-15.4,30-21.5l-18.2-17.6c-7.3,7-32.1,29.1-61.6,25.4
		c-9.3-1.2-25.4-5.7-39.7-16.3c-8.7-6.5-14-13.1-26.4-18.6c-8.3-3.7-15.9-5-20.8-5.5c6.2-5.5,14.7-12.3,25.5-18.9
		c1.6-3.7,18.7-40.9,57.9-48.2c45.8-8.6,77.6,32,80.8,36.2c10.8,14.1,13.9,27.5,18.6,47.9c4.7,20.7,9.4,53.2,4.2,94.5
		c-1.4-0.8-7.6-4.2-10.3-12c-2.5-7.1-0.4-13.1,0.2-14.7c0,0-4.6-4.2-19.2-2.6c-14.7,1.6-18.2,32.2-12.4,44.3
		c5.9,12.1,30,6.2,59.3,21.5c16.7-3.8,33.4-7.6,50.2-11.4c3.3-0.3,10.7-1.6,16.3-7.5c9.2-9.6,8.1-26.3,1.3-35.8
		c-8.1-11.3-20.6-4.7-33.2-16.6c-15-14.2-12.8-38.2-12.4-41.7c0.7-6.6,2.6-12.6,9.4-25.7c13.6-26.2,20.4-39.3,31.9-49.5
		c29.6-26.2,68.3-23.3,70-23.1c5.4,0.5,40.3,4.3,63.5,34.2c9.4,12.1,13.6,24.3,15.6,32.2c-8.8,3.2-22.4,8.6-38.4,16.6
		c-30.4,15.3-34.9,23.1-49.2,22.5c-16.8-0.7-31.9-12.4-44.6-22.1c-6.4-5-11.4-9.7-14.7-13c-4.5,5.9-8.9,11.8-13.4,17.6
		c4.5,7.7,13.2,20.4,28.7,29.9c33.2,20.5,69.9,9.4,78.2,6.8c10.3-3.1,4.3-3,56-36.8c0,0,39.2-25.8,51.1-51.8
		C1031.3,903.2,987.6,916.8,987.6,916.8z"/>
	
		<linearGradient id="SVGID_00000115491343921162779980000012878794921518717082_" gradientUnits="userSpaceOnUse" x1="576.9999" y1="849.5201" x2="739.3717" y2="849.5201" gradientTransform="matrix(1 0 0 -1 0 1776)">
		<stop  offset="0" style="stop-color:#FFFFFF"/>
		<stop  offset="0" style="stop-color:#4D291B"/>
		<stop  offset="1" style="stop-color:#B0833F"/>
	</linearGradient>
	<path style="fill:url(#SVGID_00000115491343921162779980000012878794921518717082_);" d="M597.7,917.2c15.2-6.8,34-15.1,55-13
		c28,2.7,47.1,22.5,58,33.9c19.7,20.5,24.9,39,27.6,37.8c3.4-1.4-0.8-32.4-19.7-58.7c-6.5-9-20.3-28.2-46.8-36.3
		c-7.3-2.2-33.7-9.8-60.4,5.1c-24.2,13.5-32.5,36.5-34.4,42.3C581.9,925.1,588.9,921.1,597.7,917.2z"/>
	
		<linearGradient id="SVGID_00000181056902812640501880000013054067275862337175_" gradientUnits="userSpaceOnUse" x1="799.5" y1="860.8059" x2="970.3" y2="860.8059" gradientTransform="matrix(1 0 0 -1 0 1776)">
		<stop  offset="0" style="stop-color:#FFFFFF"/>
		<stop  offset="0" style="stop-color:#4D291B"/>
		<stop  offset="1" style="stop-color:#B0833F"/>
	</linearGradient>
	<path style="fill:url(#SVGID_00000181056902812640501880000013054067275862337175_);" d="M863,907c-31.8,3.9-53.8,20.3-63.5,28.6
		c3.3-6.9,18.4-36.1,52.7-48.6c28-10.2,63.5-7.5,89.4,14.3c20.3,17.1,26.7,39.1,28.7,47.8C965.5,943.9,923.3,899.7,863,907z"/>
	<path class="st15" d="M881.8,1109c-9.7-1.9-17.2-0.3-23.7,3.1c0,0-7.5,3.4-25.3,10.3s-32.5-0.3-46.6,7.5s-17.5,8.1-33.7,3.7
		s-33.4-11.2-59.1-12.5c-25.6-1.3-22.2-9.1-34.4-17.5s-20.6,0-20.6,0c20.6,33.4,35,54.7,46.6,72.2s54.7,37.8,73.7,37.8
		c19.1,0,30.9,0.6,47.5-10.6s31.6-10.6,48.1-44.4C870.9,1124.9,891.5,1110.8,881.8,1109z M814,1174.3c-20,14.4-36.6,16.9-58.7,15.3
		c-22.2-1.6-44.7-19.7-57.2-26.2c-12.5-6.6-26.6-30.3-26.6-30.3s23.7,9.4,45.9,17.5s23.4,10.9,43.9,7.8s28-1.9,53.3-9.4
		s42.8-15.9,42.8-15.9S834,1159.9,814,1174.3z"/>
	<g>
		<text transform="matrix(0.959 0 0 1 2393.6926 1093.2158)" class="st1 st2 st21">C A F E</text>
		<rect x="1633.9" y="991.1" class="st1" width="723.2" height="21.6"/>
		<rect x="3405.5" y="991.1" class="st1" width="723.2" height="21.6"/>
	</g>
</g>
</svg>
