<?xml version="1.0" encoding="UTF-8"?>
<svg xmlns="http://www.w3.org/2000/svg" version="1.1" viewBox="0 0 1615.1 223.2">
  <defs>
    <style>
      .cls-1 {
        fill: #009e52;
      }
    </style>
  </defs>
  <!-- Generator: Adobe Illustrator 28.6.0, SVG Export Plug-In . SVG Version: 1.2.0 Build 709)  -->
  <g>
    <g id="Layer_1">
      <g>
        <path class="cls-1" d="M1469.2,117.8c.6,11.6,1.4,23.4,1.8,35.2.7,19.6,1.1,39.2,1.6,58.9.1,3.9,0,3.9-3.9,4-15.6,0-31.2,0-46.9,0-3.3,0-3.3,0-3.3-3.4.2-24.1.4-48.2.7-72.3.2-18.3.6-36.6.7-55,0-4.1-.7-8.3-1.6-12.4-1.3-5.8-4.7-10.2-10.1-13-3.3-1.7-3.8-3.1-1.6-6,2-2.7,4.4-5.3,7.1-7.2,11.2-7.6,23.4-11.1,36.9-7.5,8.6,2.3,14.8,8,20.2,14.6,7.6,9.1,13.6,19.2,19.2,29.6,9.2,16.8,18.3,33.7,27.1,49.8-3.5-27.8-2.4-56.7-3.4-85.5-.1-3.8,0-3.8,3.8-3.8,8.2,0,16.4,0,24.6,0,13.7,0,24.3,10.8,24.3,24.5,0,28.7-.2,57.4-.3,86.1,0,19.5-.3,38.9-.3,58.4,0,2.2-.5,3-2.9,3-14,0-27.9,0-41.9,0-1.7,0-2.3-.6-3.1-2-16.2-32-32.4-63.9-48.7-95.9-.1-.2-.3-.4-.2-.3Z"/>
        <path class="cls-1" d="M719.6,124.6c-3.7-29.3-2.2-58.4-3.7-87.6,1.1,0,1.9-.2,2.6-.2,8.4,0,16.8,0,25.1,0,13.5,0,23.9,10.4,23.9,23.9-.2,46.6-.5,93.2-.7,139.8,0,3.4,0,3.3-3.6,3.3-13.1,0-26.2,0-39.3,0-2,0-3-.6-3.9-2.4-15.3-30.3-30.8-60.6-46.2-90.9-.4-.7-.8-1.5-1.3-2.4,3,29.7,2.5,59.2,3.5,88.7.2,7,.1,7-7,7-13.7,0-27.4,0-41.1,0q-4.4,0-4.3-4.5c.4-32.3.8-64.6,1.2-96.9.1-8.7.2-17.5.1-26.2,0-3.5-.5-7-1.2-10.4-1.2-6-4.4-10.7-10.1-13.6-3.2-1.6-3.7-3.2-1.5-6,2.3-2.9,5-5.7,8.1-7.7,9.9-6.4,20.8-9.4,32.6-7,9.7,2,16.5,8.3,22.5,15.7,9.2,11.3,16,24.1,22.9,36.8,7.1,12.9,13.7,26.1,20.6,39.1.2.4.4.7.8,1.4Z"/>
        <path class="cls-1" d="M1285.9,117.2c4.9,3,10.2,5.5,14.6,9.1,12.7,10.5,18.2,24.2,16.8,40.7-2,24.1-15.6,39.3-37.5,47.5-18.8,7-38.3,8.6-57.9,4.2-26.6-6-42-23.4-47.8-49.6-1.4-6.2-2-12.6-2-18.9-.2-33.6,0-67.2-.2-100.8,0-2.5.9-3.5,3.2-4.1,25.4-5.8,51.1-8.2,77.1-6.2,12.1,1,23.7,3.9,34.4,10,20.1,11.6,23,33.8,14.6,51.1-3.6,7.5-5.9,9.8-15.3,16.9ZM1225,154.4h0c0,4.2-.3,8.4,0,12.6.4,4.2.9,8.6,2.3,12.5,2.5,7.1,7.8,11.2,15.4,11.9,8.2.7,14.9-1.8,19.3-9.2,2.8-4.7,3.6-9.9,3.7-15.3.2-9.7-3-17.8-10.9-23.7-8.5-6.3-18.2-7.4-28.4-5.8-.6,0-1.4,1.4-1.4,2.2-.1,5,0,9.9,0,14.9ZM1225,87.9h0c0,6.6,0,13.2,0,19.9,0,2.3.8,3,2.9,2.7,2.1-.3,4.2-.4,6.2-.7,14.5-2.4,22.9-13.7,21-28.4-1.1-8.1-5.8-13.9-13.8-15.5-4.3-.9-9-.4-13.5-.5-2.5,0-2.9,1.3-2.9,3.5.1,6.4,0,12.7,0,19.1Z"/>
        <path class="cls-1" d="M299.4,136.9c2.8,6.5,6.5,12.8,11.1,18.5,8.4,10.4,18.8,18.4,31,24,1.8.8,2.1,1.9,2,3.7-.8,12.5-12.9,24.6-26,25.8-20.9,1.9-36.9-7.6-46.3-27.1-6-12.3-9-25.4-10.2-39-.3-3.4-2.3-2.4-4.1-2.6-2.3-.3-2.5,1-2.5,2.8,0,19,0,38.1,0,57.1,0,3.5,0,3.5-3.4,3.6-14.9,0-29.8,0-44.8,0-2.2,0-3.2-.6-3.1-2.9.1-2.7,0-5.4,0-8.1,0-48.6,0-97.2,0-145.8,0-7.9-1-6.2,6.4-8.1,19.7-4.9,39.7-6.6,60-5.4,14.6.9,28.4,4.4,40.7,12.8,13,8.9,20.4,21.1,21.2,36.9,1,18.1-5.1,33.4-19,45.3-3.8,3.2-8.3,5.6-12.9,8.6ZM254.6,115.4c4.9.2,9.3-.8,13.2-3.2,11.9-7.4,15.5-18.7,14.6-31.9-1-14.2-10.6-22.5-24.7-21.9-2.6.1-3.4,1-3.4,3.6.1,16.9,0,33.8,0,50.8,0,.8,0,1.7.2,2.7Z"/>
        <path class="cls-1" d="M1138.2,215.7c-8.3,0-16.6,0-24.9,0-2.6,0-3.7-.9-4.3-3.4-1.5-7.1-3.3-14.1-4.9-21.1-.4-1.7-1.1-2.2-2.8-2.2-12.5,0-25,0-37.4,0-1.8,0-2.4.6-2.7,2.3-1.4,7.1-3,14.2-4.4,21.3-.5,2.4-1.7,3.3-4.1,3.2-15.3,0-30.5,0-45.8,0-3.8,0-3.9,0-2.7-3.8,12.9-40.4,25.9-80.8,38.7-121.3,2-6.2,3.8-12.5,5.3-18.8,1.1-4.6-.1-9-2.9-12.9-2.6-3.6-2.5-5.1.2-8.7,3.6-4.9,8.8-7.7,14.3-9.7,13.7-5.1,27.1-5.3,39.9,2.7,9,5.6,15.7,13.5,19.7,23.2,4.6,11.1,8.5,22.5,12.1,34,11.6,37.2,22.9,74.4,34.3,111.7,1.1,3.5.9,3.6-2.5,3.6-8.4,0-16.8,0-25.1,0ZM1082.3,89.2h-.6c-4.3,22.1-8.6,44.2-12.9,66.6h27.1c-4.5-22.4-9-44.5-13.5-66.6Z"/>
        <path class="cls-1" d="M137.7,173.4c.9-8.5,1-16.5-.8-24.6-1-4.5-2.9-8.4-6.3-11.5-2-1.8-2.5-4.1-.9-6,2.8-3.3,5.6-6.7,9.1-9.2,11.1-8,26.6-8,37-.3,7,5.2,10.7,12.6,11.4,21,.7,9.4.3,18.8.1,28.2,0,4.4-.5,8.9-1.2,13.3-.2,1.4-1.2,2.9-2.3,3.8-13.3,10.5-28.5,16.8-45.2,19.2-14.8,2.1-29.4,2.1-43.6-3.2-21.5-8.1-36.9-23-46.4-43.6-12.9-28-12.8-56.3,1-83.8,11.9-23.8,31.1-39,57.6-43.6,19.3-3.3,38.2-1.4,55.6,8.3,10.2,5.7,17.5,14,20.1,25.8,2.8,12.8-2.3,25.5-13,31.2-8.8,4.7-17.9,4-26.7,0-2.8-1.3-4-3.5-3.9-7,.1-5.7.2-11.6-1.2-17.1-3.1-12.6-16.9-16.8-27.1-8.6-6,4.8-9.5,11.3-12,18.4-7.2,20.5-7.7,41.2-.3,61.8,3.6,10.1,9.5,18.4,19.3,23.5,6.1,3.2,12.6,4.3,19.7,4.1Z"/>
        <path class="cls-1" d="M843.1,126.5c.7-25.5,9.8-49.5,30.8-68.1,16.6-14.7,36.4-20.8,58.4-20,13.8.5,27,3.2,39,10.5,10.3,6.2,17.4,14.9,19.9,26.9,2.8,13.7-3.8,27.4-16.2,32.3-7.9,3.2-16.1,2.7-23.9-.8-4.5-2-5.3-3.8-4.7-8.7.6-5.3.3-10.6-1-15.8-3.7-15.1-19.2-17-28.8-9.2-6.5,5.3-10.3,12.5-13,20.2-6.9,19.8-6.8,39.6,1.3,59,7.1,17,19.3,28.1,38.1,30.4,15.9,2,30.2-2.7,43-12.1,1.8-1.3,3.4-3,5.3-4.2.8-.6,2.3-1.1,3-.8.7.3,1.3,2,1.1,2.8-1.1,4.4-1.9,8.9-3.8,12.9-10.3,21.3-27.6,33.4-50.7,37.4-15.1,2.6-29.9,1.5-44.1-4.6-18.6-8-32-21.3-41.5-38.9-8-14.7-11.6-30.5-11.8-49.3Z"/>
        <path class="cls-1" d="M402.5,77.8v29.7c.9,0,1.8,0,2.7,0,11.1,0,22.2,0,33.3,0,2.5,0,3.3.8,3.3,3.3-.1,6.2,0,12.4,0,18.6,0,4.2-.1,4.3-4.2,4.3-10.7,0-21.5,0-32.2,0-1,0-2,.1-3.6.3.3,7.2,0,14.2,1,21.1,1.1,7.8,6.5,12.6,13.8,15,11.4,3.7,22.6,2.2,33.7-1.3,4-1.3,7.8-3.3,11.6-5.2,3.8-1.9,6.2-.8,5.9,3.4-.2,3-.9,6.1-2.1,8.8-6.7,14.6-18.1,24.2-33,29.5-15.1,5.3-30.5,5.6-45.6,0-16.9-6.3-27.5-18.8-33.3-35.6-2.7-7.7-3.8-15.7-3.8-23.9,0-34.9,0-69.8.1-104.7,0-3.4.2-3.6,3.5-3.6,35.9,0,71.7,0,107.6,0,2.3,0,3.4.9,3.9,3.2,3.9,16.2-2.6,30.5-17.6,36.4-5.1,2-10.8,2.9-16.3,3.4-8.9.8-17.8-.2-26.5-1.9-.6-.1-1.2-.1-2.2-.2Z"/>
        <path class="cls-1" d="M484.5,96.2c0-18.6,0-37.2,0-55.8,0-3.2.2-3.4,3.4-3.4,35.8,0,71.6,0,107.3,0,2.8,0,3.8,1.1,4.4,3.7,4.6,19.9-7.3,36.5-28.1,38.9-10.5,1.2-20.9.5-31.3-1.2-3.3-.5-3.4-.6-3.4,2.6-.1,8.2,0,16.4-.3,24.6,0,2.2,1.2,2.1,2.7,2.1,11.1,0,22.2,0,33.2,0,3.4,0,3.5,0,3.5,3.5,0,6.5,0,13.1,0,19.6,0,2.3-.8,3-3.1,3-11.1,0-22.2,0-33.2,0-2.4,0-3.4.6-3.3,3.2.2,4.4,0,8.7,0,13.1.2,10.6,5.7,17.8,16,20.6,10.9,3,21.7,1.5,32.2-1.9,4-1.3,7.9-3.3,11.6-5.3,3.8-1.9,5.9-.8,5.9,3.4,0,6.4-3,11.8-6.6,16.8-11,15.3-26.3,23.2-44.9,25-12.1,1.2-23.7-.4-34.6-5.9-15.2-7.6-24.2-20.3-29-36.3-2.2-7.2-3-14.7-3-22.2,0-16,0-31.9,0-47.9,0,0,.2,0,.3,0Z"/>
        <path class="cls-1" d="M1390.3,141.8c0,23.5,0,46.9,0,70.4,0,3.2-.3,3.5-3.4,3.5-15.6,0-31.2,0-46.9,0-3.6,0-3.7-.1-3.7-3.7,0-41.9,0-83.8,0-125.7,0-5.9-1-11.6-3.4-17.1-1.8-4.3-4.8-7.4-8.9-9.5-3.3-1.7-3.7-3-1.7-6.2,2.6-4.2,6.4-7.1,10.6-9.5,11.9-6.8,24.3-8.5,37.2-3.2,11.4,4.7,17.2,13.9,19.2,25.6.7,4,.9,8.2.9,12.2,0,21,0,42.1,0,63.1Z"/>
      </g>
    </g>
  </g>
</svg>