<?xml version="1.0" encoding="utf-8"?>
<!-- Generator: Adobe Illustrator 28.6.0, SVG Export Plug-In . SVG Version: 9.03 Build 54939)  -->
<svg version="1.1" baseProfile="basic" id="Layer_1"
	 xmlns="http://www.w3.org/2000/svg" xmlns:xlink="http://www.w3.org/1999/xlink" x="0px" y="0px" viewBox="0 0 1480.2 330.5"
	 xml:space="preserve">
<style type="text/css">
	.st0{fill:#9CD542;}
	.st1{fill:#221F20;}
	.st2{fill:url(#SVGID_1_);}
	.st3{fill:url(#SVGID_00000003784465617144389360000012659573395733086392_);}
	.st4{fill:url(#SVGID_00000049191756720990181350000003356096535918529152_);}
	.st5{fill:url(#SVGID_00000047020822533639687660000017828661477091045012_);}
	.st6{fill:url(#SVGID_00000118364681576360489900000000487216008815951539_);}
	.st7{fill:url(#SVGID_00000021821207249278997540000011670644844099909024_);}
	.st8{fill:url(#SVGID_00000082369756063590512490000016710259817119353501_);}
	.st9{fill:url(#SVGID_00000097498095093443904280000017377350256168976048_);}
	.st10{fill:url(#SVGID_00000105387820625274992730000004205105315388372147_);}
	.st11{fill:url(#SVGID_00000073714834200428462290000001519683306655120259_);}
	.st12{fill:url(#SVGID_00000023264231493491232350000002027183576048938126_);}
	.st13{fill:url(#SVGID_00000168818325401383877960000000865917536057122239_);}
	.st14{fill:url(#SVGID_00000119100928771972645340000009861509863028024221_);}
	.st15{fill:url(#SVGID_00000090289577285646543630000011273091226777239214_);}
	.st16{fill:url(#SVGID_00000165225511384708638970000008413501063802753450_);}
	.st17{fill:url(#SVGID_00000110438046283691161710000014109170877524232331_);}
	.st18{fill:url(#SVGID_00000085972717360325895440000001308521415436439452_);}
	.st19{fill:url(#SVGID_00000157299208518566653230000011383433791203953075_);}
	.st20{fill:url(#SVGID_00000158734614722477543200000015416535039627065243_);}
	.st21{fill:url(#SVGID_00000127754406724334349370000004081930604552923814_);}
	.st22{fill:url(#SVGID_00000046313213134175725250000009560760082100778935_);}
	.st23{fill:url(#SVGID_00000081650129104534653880000001781927670268172699_);}
	.st24{fill:url(#SVGID_00000146477428243492863720000013562452224041231497_);}
</style>
<g>
	<path class="st0" d="M420.1,267.3c-1.2,0.3-2.3,0.5-3.5,0.7c-8.9,1.4-17.6,0.3-26-3.1c-7.3-2.9-14-7-20.4-11.5
		c-7.7-5.3-15.2-11-23.2-15.9c-10-6.1-20.8-10.2-32.4-11.8c-13.2-1.7-26-0.3-38.2,5.3c-10.9,5-19.4,12.6-24.7,23.6
		c-0.8,1.7-1.5,3.6-2.2,5.3c-0.2,0.4-0.4,0.8,0,1.2c0.4,0.4,0.7-0.2,1-0.2c1.2-0.1,2.3-0.5,3.4-0.8c5-1.2,10.1-2.3,15.1-3.5
		c0.5-0.1,1-0.2,2,0.2c-14.6,9.6-28.3,19.9-43.6,27.8c1.2-2.1,2.3-4.1,3.1-6.3c3-8.5,4.6-17.4,6.8-26.2c1.8-7,3.4-14.1,5.1-21.1
		c1.1-4.6,2.4-9.1,3.1-13.7c1.6-9.8,4.6-19.1,9.8-27.7c6.9-11.3,16.8-19.2,29.2-23.8c3.3-1.2,6.7-2.2,10.1-3.1
		c0.9-0.4,1.8-0.5,3-0.6c-0.9,0.7-1.8,1-2.7,1.2c-0.1,0.3-0.4,0.4-0.7,0.5c-5.3,2.3-10.4,5-15.3,8c-14.2,9-23.2,21.6-27,38
		c-1.5,6.2-2.4,12.5-2.9,18.8c-0.3,3.6-0.4,7.2-0.6,10.8c-0.1,1,0.3,1.1,1.1,0.6c1.2-0.8,2.5-1.6,3.8-2.3c9.2-5.3,19.2-9.2,29-13.3
		c6.7-2.8,13.4-5.8,19.8-9.3c11.3-6.2,20.1-15.2,28-25c6-7.5,8.9-16.3,10.3-25.6c2.2-14.9-0.2-29.2-7.3-42.6
		c-0.2-0.4-0.2-1.1-0.8-1.2c-0.6,0-0.8,0.7-1,1.1c-2.4,4.1-5.5,7.6-9.3,10.3c-3.2,2.6-6.8,4.3-10.6,5.8c-0.5,0.2-0.9,0.2-0.9-0.5
		c-0.4-5.6-1.4-11.1-2.5-16.6c0-0.2,0-0.4,0-0.6c-0.3-0.4-0.4-0.9-0.3-1.5c-1.1-3.9-2.2-7.9-3.4-11.7C301.7,99,298.1,91,294,83.2
		c-0.1-0.2-0.1-0.4-0.2-0.6c-0.2-0.4-0.5-0.7-0.7-1.1c-6.4-11.9-14.4-22.6-23.7-32.3c-5.9-6.1-12.3-11.7-19.1-16.7
		c-16.7-12.2-35.2-20.5-55.4-24.9c-9.8-2.2-19.7-3.2-29.7-3.3c-11.9-0.1-23.7,1.1-35.4,3.7c-12.6,2.8-24.6,7.1-36.1,13
		c-19.2,9.9-35.5,23.3-48.9,40.3c-10.3,13.1-18.5,27.3-24.1,43c-5.4,15.1-8.1,30.8-8.5,46.8c-0.3,10.5,0.7,20.9,2.5,31.2
		c2,11,5.1,21.6,9.3,31.9c4.2,10.1,9.5,19.7,15.8,28.7c6.4,9.2,13.8,17.6,22.2,25.1c7.6,6.7,15.7,12.7,24.5,17.7
		c5.9,3.3,11.8,6.6,18,9.2c12.5,5.2,25.4,8.6,38.9,10.2c13.7,1.5,27.3,1.3,40.9-0.8c10.7-1.6,21-4.4,31.1-8.2
		c9.7-3.7,18.8-8.3,27.5-13.9c4.5-2.9,8.7-6.3,13-9.5c6.5-4.7,13.6-8.3,21.1-11.2c7.8-3,15.8-4.9,24.2-5.4c10.1-0.6,20,0.8,29.5,4.2
		c4.6,1.6,8.9,3.7,13.2,6c2.7,1.4,5.4,2.8,7.8,4.8c0.4,0.1,0.7,0.2,1,0.6c-0.5,0.1-0.8-0.1-1.1-0.4c-0.8,0-1.4-0.4-2.1-0.7
		c-9.6-3.9-19.4-7.1-29.7-8.7c-16.7-2.6-32.5,0.1-47.5,7.8c-9.8,5-18.7,11.4-27.1,18.4c-2.3,1.9-4.6,4-7,6c0.9,0.6,1.7,0.7,2.5,0.9
		c6.2,1.5,12.1,3.5,18,5.8c8.3,3.2,16.4,6.8,24.6,10.2c6.5,2.8,13.1,5.4,19.9,7.6c6,2,12.1,3.8,18.5,4.7c5,0.8,10,1.1,15,1.2
		c8.2,0.1,16.5,0.3,24.7-1.2c9.3-1.7,17.7-5.7,25.6-10.8c12.5-8.1,22.3-18.9,29.2-32.1c2-3.9,3.7-7.8,5-12
		C421.4,267.3,421.1,267.1,420.1,267.3z M329.1,131.5c0.7-0.7,1.3-1.4,1.9-2.2c0.7-0.9,1-0.7,1.4,0.2c2.1,4.6,3.5,9.4,4.5,14.3
		c1.7,8,1.7,16,0.5,24.1c-0.1,0.5-0.3,1-0.4,1.6c0,0.3-0.1,0.6-0.1,0.8c-1.6,8.5-5,16-10.8,22.5c-4.3,4.8-8.5,9.8-13.6,13.8
		c-0.2,0.1-0.3,0.2-0.5,0.3c-0.1,0.1-0.2,0.2-0.4,0.2c-2.6,2.4-5.7,4.2-8.7,6.1c-8.4,5.2-17.6,8.5-26.7,12.2c-2.6,1.1-5.2,2.3-8,3.1
		l0,0c-2.1,1.3-4.5,2-6.7,3c-3,1.4-6.1,2.9-9,4.4c-0.3,0.2-0.7,0.6-1.1,0.4c-0.4-0.2-0.2-0.7-0.1-1.1c0.8-9.9,2.2-19.7,5.3-29.2
		c2.9-8.9,8.1-16.2,15.3-22.2c7-5.8,14.9-10.1,22.9-14.2c4.6-2.4,9.4-4.3,13.7-7.1c3.9-2.5,7.8-5,10.6-8.8c0.2-0.3,0.5-0.6,0.5-1.1
		c-1,0-1.7,0.7-2.5,1.1c-3.7,1.9-7.6,2.5-11.6,3.1c-7.2,1-14.1,3-20.8,5.4c-3.2,1.2-6.5,1.9-9.6,3.4c-3.3,1.6-6.4,3.5-9.3,5.7
		c-0.2,0.2-0.4,0.4-0.8,0.3l0-0.1l0,0.1c-1.1,1.4-2.7,2.4-4.1,3.6c-7.1,6.4-12.7,13.9-17.4,22.3c-2.8,5.1-5.2,10.4-7.2,15.9
		c-0.1,0.4-0.1,1-0.7,1c-0.6,0-0.6-0.6-0.7-1c-4.2-9.9-3.9-19.8-0.3-29.8c3.3-9.2,9-16.6,16.7-22.4c7.1-5.3,15-9,23.6-11.1
		c6.4-1.5,12.9-2.5,19.3-3.7c0.2,0,0.5,0,0.7,0c0.3-0.1,0.6-0.1,0.8-0.2c3.3-0.7,6.6-1.4,9.9-2.2
		C314.6,141.8,322.7,138.2,329.1,131.5z M218.1,289.9c-3.4,2.5-7.4,3.7-11.4,4.8c-7.2,2-14.6,3.5-22,4.4
		c-10.2,1.1-20.4,1.3-30.6,0.2c-11.9-1.2-23.4-3.8-34.7-7.8c-13.3-4.7-25.7-11.2-37.1-19.3c-13-9.2-24.1-20.3-33.4-33.2
		c-9.6-13.3-16.5-27.8-21-43.6c-4.1-14.7-5.6-29.6-5-44.8c0.4-8.1,1.4-16.2,3.1-24.2c1.5-7.1,3.2-14.1,6-20.8c0.1-0.3,0-0.7,0.5-0.7
		c0.5,0,0.4,0.5,0.5,0.8c0.8,2,2.1,3.4,4.4,3.8c3,0.5,4.5,2.8,6,5.1c2,3.1,3.5,6.5,5.3,9.8c0.5,1,1.1,2,1.8,2.9
		c0.3,0.3,0.5,0.9,1,0.7c0.5-0.2,0.4-0.7,0.4-1.2c-0.3-2.8-1-5.4-2.8-7.7c-0.7-0.9-1.4-1.8-2.1-2.7c-0.2-0.3-0.6-0.6-0.3-1.1
		c0.2-0.3,0.6-0.1,1-0.1c1,0.1,1.8,0.7,2.4,1.3c2.6,2.8,5,5.7,5.7,9.6c0.1,0.8,0.8,1.2,1.4,1.6c3.8,2.2,7.9,3.6,12.3,4
		c0.4,0,0.8,0,1.2-0.1c2.5-1,4.5,0.1,6.5,1.3c4,2.6,7.6,5.6,11.5,8.3c1.7,1.1,2,1.1,3.4-0.4c0.5-0.5,0.8-0.5,1.2-0.1
		c1,0.9,1.9,1.9,2.6,3c0.7,1.2,0.4,2.1-0.7,2.8c-0.8,0.5-1.8,0.9-2.7,1.3c-2,0.9-2.5,2-1.7,4c0.3,0.6,0.4,1.1-0.2,1.7
		c-0.9,0.9-0.7,2.3,0.4,3.9c1.3,1.8,2.9,3.4,3.9,5.4c1,1.9,2.2,3.8,1.8,6.1c-0.1,0.5,0.3,0.6,0.6,0.7c2.4,0.8,4.3,2.3,6.3,3.8
		c1.5,1.1,1.5,2.9,1.8,4.5c1.1,5.4,0.2,10.5-3.1,15c-1.1,1.5-1.4,3.3-0.6,5.2c0.5,1.4,0.6,2.8-0.6,4c-0.6,0.6-0.4,1,0.3,1.3
		c1.9,0.9,2,1.5,0.5,3c-0.6,0.5-0.9,0.8-0.1,1.4c1,0.7,0.9,1.6,0.2,2.5c-0.7,0.8-1.2,1.7-1.8,2.5c-1,1.6-1,2.8,0.6,3.7
		c2,1.2,3.5,2.6,3.8,5.1c0,0.2,0.2,0.5,0.5,0.5c0.4,0,0.5-0.3,0.6-0.5c0.5-1,0.6-2,0.5-3c-0.1-1.3,0.4-1.8,1.7-1.7
		c0.5,0,1.1,0,1.6,0c0.8,0,1.1-0.4,0.9-1.1c-0.4-1.4,0.4-1.9,1.5-2.3c1.1-0.4,2.1-0.8,3.2-1.2c0.7-0.3,1.3-0.6,1.3-1.4
		c0-0.9-0.8-1-1.5-1.1c-1.3-0.2-1.8-0.7-1.2-2c0.2-0.4,0.2-0.9,0.3-1.3c0.1-3.3,1.8-5.2,5.1-5.4c1.8-0.1,3.7,0,5.5,0
		c1.2,0.1,1.9-0.3,2.1-1.5c0.2-1.2,1.3-1.9,1.2-3.3c-0.1-0.6,0.7-0.4,1.1-0.4c2.2-0.2,4-1.3,5.8-2.5c1.9-1.4,2.9-3.2,3.3-5.6
		c0.6-4.2,1.8-5.5,6-6.3c2.2-0.4,4.1-1.3,5.9-2.7c1.7-1.4,2.2-3.2,1.6-5.3c-0.3-1-0.8-2-1-3.1c-0.3-1.8,0.6-3.2,1.9-4.4
		c1.4-1.2,3.1-1.9,4.3-3.3c1.7-1.9,1.9-3.9,0.3-5.7c-0.4-0.5-0.8-0.8-1.5-0.5c-1,0.5-2.1,0.5-3-0.1c-3-2-6.5-2.5-9.9-3.3
		c-1.5-0.4-2.8-1-3.9-2c-0.5-0.4-1.1-0.7-1.6-1.1c-1-0.6-1.7-0.4-2,0.8c-0.4,1.4-1.3,2.1-2.7,2.5c-0.3,0.1-0.6,0.2-0.8,0
		c-0.3-0.4,0-0.7,0.2-0.9c0.7-1,1.5-2.1,2.3-3.1c1-1.2,0.9-2-0.2-3.2c-2-2.1-3.8-3.8-7-2.5c-0.7,0.3-1.7,0.1-2.5,0
		c-1.3-0.1-2.3-0.6-3-1.9c-1.6-3-4.3-4.9-7.2-6.6c-0.9-0.5-1.6-0.4-2.3,0.4c-1.3,1.4-2.7,1.3-3.7-0.3c-0.4-0.6-0.9-1.1-1.7-1.5
		c-0.1,0.9,0.2,1.7-0.1,2.5c-0.2,0.4-0.3,0.8-0.8,0.7c-0.6-0.1-0.6-0.6-0.6-1c0-0.1,0.1-0.3,0.1-0.4c0.1-0.6,0.8-1.2,0.3-1.6
		c-0.5-0.4-1.2,0.2-1.7,0.4c-1.7,0.6-3.1,2-5.1,1.2c-0.4-0.2-0.6,0.2-0.7,0.6c-0.1,0.5-0.2,1-0.4,1.4c-0.8,1.8-1.7,2.1-3.4,1.3
		c-1.2-0.6-2.3-1.1-3.5-1.5c-1.2-0.5-2.4-0.9-3.7-1.3c0.4-0.6,1.1-0.8,1.5-1.4c1.2-2.2,0.9-4-0.9-5.7c-0.5-0.4-0.8-0.3-1.3,0
		c-2.1,1.3-4.1,0.4-6.1-0.3c-0.9-0.3-0.3-1,0.2-1.3c1.4-1.1,2-2.5,1.9-4.3c-0.1-1.3-0.4-1.3-1.6-0.9c-3.8,1.3-7.3,3.8-11.7,2.5
		c-1.3-0.4-2-0.9-1.7-2.4c0.2-1,0.2-2,0-2.9c-0.3-1.4,0.2-2.4,1.7-2.8c3.4-1.1,7-1.4,10.4-2c2.1-0.4,4.1-0.4,6.2,0
		c0.9,0.2,1.4,0.5,1.6,1.4c0.4,2.4,2.2,3.8,4.3,4.7c0.5,0.2,1.1,0.5,1.5,0c0.4-0.4,0.1-1-0.1-1.4c-0.7-1.7-1.9-3.2-2.9-4.8
		c-0.7-1-1.2-1.9,0.4-2.7c0.9-0.4,1.4-1.4,1.9-2.2c0.8-1.4,1.9-2.4,3.5-2.7c0.4-0.1,0.9-0.2,1-0.5c0.7-1.4,2-2.1,3-3.1
		c1.1-1.1,1.5-2.7,2-4.3c0.3-1.2,1-1.8,2.1-2.3c2.5-1.1,4.8-2.5,7.6-2.8c0.7-0.1,1.2-0.6,1.3-1.4c0.8-3.1-0.7-4.7-3.8-4.1
		c-1,0.2-1.9,0.5-2.9,0.8c-0.5,0.1-1,0.4-1.7,0.1c0.8-1.3,2-1.9,3.3-2.2c2.2-0.6,4.5-0.3,6.8-0.2c2.1,0.1,4.1,0.1,6.2-0.5
		c1-0.3,1.4-0.9,1.4-1.9c-0.1-3.5-0.1-3.5-3.7-3.5c-2.5,0-2.6-0.1-3.3-2.5c-0.6-2-1.7-3.7-3.4-5c-0.7-0.6-1.2-0.5-1.6,0.3
		c-0.3,0.6-0.6,1.4-1.3,1.8c-1.3,0.9-3,0.6-3.9-0.8c-0.9-1.2-1.7-1.9-3.3-1.3c-1.3,0.4-2.5-0.2-3.7-0.7c-1.2-0.6-2.5-1.3-3.9-1.4
		c-0.7-0.1-1.4,0-1.9,0.6c-0.5,0.6,0,1.2,0.3,1.8c0.7,1.4,2,2.4,2.9,3.7c0.3,0.4,0.8,0.8,0.5,1.4c-0.3,0.5-0.9,0.5-1.4,0.6
		c-0.2,0-0.5,0-0.7,0c-0.9,0-1.2,0.1-0.9,1.2c0.8,2.6-0.4,5.2-2.5,5.9c-1.2,0.4-1.7,0-1.7-1.2c0-0.9,0.2-1.8,0.2-2.7
		c0-0.5,0-1.3-0.9-0.9c-2.7,1.1-5.1,0-7.7-0.5c-1.6-0.4-3.1-1-4.7-1.1c-0.5,0-1-0.2-0.6-0.8c0.7-1-0.1-0.9-0.7-1
		c-1.7-0.4-1.9-0.9-0.8-2.3c0.9-1.1,1.9-2.2,2.9-3.2c0.9-0.9,1.8-1,2.7,0c0.8,0.9,1.2,0.4,1.6-0.4c1.1-2.5,1.8-3,4.4-2.4
		c1.3,0.3,2.1-0.2,2.8-1.1c0.8-1.1,1.6-2.3,2.4-3.4c0.6-0.8,0.3-1.3-0.5-1.6c-2.2-0.6-4.5-0.8-6.7-0.7c-1,0.1-1.5,0.6-1.3,1.7
		c0.1,0.5,0.1,1-0.6,1.1c-0.6,0.1-1.2-0.1-1.1-0.9c0.1-0.8-0.4-0.6-0.8-0.5c-0.8,0.3-1.6,0.3-2.3,0.1c-0.6-0.1-1.2-0.7-1.1-1.2
		c0.2-1.9-1.2-2.3-2.5-2.8c-0.9-0.4-1.8-0.5-2.8-0.5c-0.4,0-0.9,0-1.1,0.5c-0.2,0.5,0,0.9,0.4,1.2c0.8,0.9,1.6,1.7,2.5,2.5
		c0.3,0.3,0.6,0.7,0.4,1.2c-0.2,0.5-0.7,0.5-1.1,0.5c-1.4-0.1-2.4,0.7-3.6,1.1C65.7,68,65,67.7,64.8,66c-1,0.4-1.7,1.3-2.7,1.8
		c-1.5,0.8-2.9,0.7-4.4,0c-3.4-1.7-3.5-1.7-1-4.6C67,51.2,78.9,41,92.5,32.9c8.5-5,17.4-9.1,26.7-12.2c9.2-3.1,18.7-5.3,28.3-6.5
		c10-1.3,20-1.5,30-0.7c11.3,0.9,22.4,3.1,33.3,6.6c7.7,2.5,15.2,5.6,22.3,9.3c9.8,5.1,18.8,11.3,27.2,18.6
		c5.9,5.1,11.4,10.7,16.4,16.7c0.3,0.4,0.9,0.7,0.7,1.2c-0.2,0.4-0.9,0.4-1.3,0.4c-1.9,0.2-3.8,0.4-5.7,0.3c0-0.2-0.1-0.3-0.1-0.3
		c0.2-0.6,1.3-0.9,0.9-1.5c-0.4-0.6-1.2-0.1-1.8,0.1c-2.5,0.6-4.9,1.3-7.4,2c-0.5,0.1-1.1,0.2-1.8,0c0.5-0.4,1-0.8,1.5-1.1
		c0.2-0.1,0.4-0.3,0.3-0.6c-0.1-0.3-0.4-0.2-0.6-0.2c-1.5,0.1-2.9,0.5-3.7,2.1c-0.4,0.8-0.9,1.3-1.8,1.7c-2.3,0.9-4.4,2.2-6.9,2.6
		c-1.4,0.2-2.9,0.3-4.2-0.3c-0.6-0.2-1.1-0.6-0.9-1.4c0.1-0.7,0.8-0.7,1.3-0.6c2.6,0.2,5-0.4,7.4-1.1c0.6-0.2,1.5-0.2,1.5-1
		c0-0.6-0.9-0.7-1.4-0.9c-1.7-0.5-3.5-0.6-5.3-0.7c-1.5-0.1-3-0.2-4.4-0.3c-1-0.1-1.9-0.4-2.7-1.1c-0.9-0.8-2.1-0.9-3.2-0.7
		c-2.8,0.3-5.7,0.7-8.5,1.1c-0.3,0-0.7,0.1-1,0.3c-1.1,0.8-2.3,1.5-3.6,1.7c-0.1,0-0.3,0.1-0.4,0.2c-0.7,1.4-1.9,1.3-3.2,1.4
		c-0.9,0-1.6,0.5-1.3,1.6c0.2,0.6-0.2,0.6-0.6,0.7c-0.8,0.1-1.6,0.2-2.3,0.6c-0.4,0.2-0.9,0.4-0.9,0.9c0,0.5,0.5,0.7,0.9,0.8
		c0.2,0.1,0.5,0.1,0.6,0.5c-1.4,0.8-2.9,0.8-4.4,0.4c-1.3-0.3-2.5-0.3-3.7,0.3c-0.4,0.2-0.9,0.4-0.9,0.9c0,0.5,0.6,0.5,0.9,0.6
		c0.5,0.2,1.2,0.3,1.4,1c-0.5,0.5-1.2,0.3-1.8,0.3c-0.4,0-1-0.1-1.2,0.4c-0.1,0.5,0.4,0.7,0.7,1c1.5,1.3,3.2,1.2,4.9,0.4
		c1.2-0.6,1.8-0.2,2.2,0.9c0.2,0.5,0.5,1,0.7,1.5c0.2,0.5,0.7,1,0.1,1.5c-0.5,0.5-1.2,0.4-1.8,0.3c-0.7-0.1-0.7-0.8-0.6-1.3
		c0-0.2,0.1-0.5,0-0.7c0-0.5,0.5-1.2-0.2-1.4c-0.6-0.2-1.2,0.2-1.7,0.7c-0.5,0.5-0.6,1-0.2,1.5c0.1,0.1,0.1,0.2,0.2,0.3
		c0.3,0.5,1,1,0.7,1.5c-0.3,0.5-1.1,0.1-1.7,0.1c-0.6,0-1.3-0.1-1.6,0.7c-0.2,0.5-0.3,1-0.9,1c-0.7,0-0.6-0.8-1-1.3
		c-0.4,1.4-1.4,2-2.7,2.2c-0.7,0.1-1.8-0.4-1.6,1.2c0,0.3-0.7,0.2-1.1,0.2c-1.4,0.1-2.9-0.3-3.6,1.6c-0.1,0.4-0.7,0.2-1.1,0.2
		c-0.9-0.1-1.8-0.3-2.6-0.3c-0.4,0-0.9-0.2-1,0.3c-0.1,0.6,0.5,0.7,0.9,0.8c0.9,0.3,1.9,0.5,2.9,0.5c0.9,0,1.3,0.3,1.1,1.2
		c-0.1,0.6-0.2,1.2-0.2,1.8c-0.1,1.9-1.7,3.4-3.6,3.4c-0.8,0-1.4-0.3-1.8-1.1c-0.8-1.6-2.3-1.7-3.8-1.9c-0.3,0-0.6,0.1-0.8,0.3
		c-1.2,1.6-2.3,3.3-2.5,5.4c-0.1,1.3,0.8,1.9,2.1,1.5c0.3-0.1,0.7-0.2,1-0.4c1.2-0.6,2.2-1.7,3.8,0c1,1.2,5.1,0.3,6.2-1
		c1-1.1,2.1-1.9,3.7-1.9c1.1,0,1.5-0.6,1.2-1.7c-0.1-0.5,0-0.9,0.3-1.2c0.5-0.4,0.9,0,1.2,0.2c0.9,0.7,1.8,0.7,2.6-0.1
		c1.1-1.1,2.6-1,3.9-0.8c2.4,0.5,4.7,1.5,6.3,3.5c0.5,0.6,0.8,1.2,0.6,1.9c-0.4,1.4,0.4,0.9,1,0.7c0.6-0.2,1.3-0.8,1.1-1.4
		c-0.4-1,0.3-0.9,0.9-1.1c-0.3-1.1-1.1-1.7-2.1-2c-1.6-0.5-2.9-1.4-4.3-2.2c-0.3-0.2-0.7-0.3-0.6-0.7c0.1-0.2,0.5-0.4,0.7-0.4
		c2-0.2,3.9-0.3,5.9,0c1.4,0.3,2.2,1.3,2.1,2.9c0,0.9-0.2,1.8-0.3,2.6c-0.3,2.4,2,4.5,4.4,4c0.8-0.2,0.7-0.7,0.5-1.2
		c-0.5-1-1-2,0-2.8c1.2-1,2.7-1.3,4.2-0.8c1,0.3,0.8,1.4,0.5,2.2c-0.4,1.1-0.9,2.1-1.4,3.1c0.4,0.3,0.6,0.1,0.8-0.1
		c1.5-1.7,3.4-1.5,5-0.7c2,1,3.7,0.6,5.5,0c0.6-0.2,1.4-0.8,1.9-0.3c0.7,0.6,0.1,1.5-0.1,2.2c-0.7,2-1.2,2.4-3.3,2.2
		c-2.4-0.1-4.9-0.1-7.2,0.6c-2.7,0.7-5.1-0.1-7.5-1c-1.6-0.5-2.3-0.2-3,1.2c-0.9,2-3.9,2.4-5.5,0.9c-0.2-0.2-0.2-0.4-0.1-0.7
		c0.6-1.3-0.2-1.4-1.2-1.4c-1.4,0-2.9,0.1-4.2-0.5c-0.3-0.1-0.6-0.3-1.1-0.6c1.1-0.5,1.8-1.2,2.2-2.1c0.2-0.3,0.6-0.6,0.3-1
		c-0.2-0.3-0.6-0.3-0.9-0.3c-0.5,0-1,0-1.5,0.1c-1.5,0.3-3.1,0.3-4.6,0.1c-1.7-0.3-3.3,0-4.9,0.5c-1.6,0.6-3.3,1.1-5.1,0.7
		c-0.6-0.1-1.3-0.2-1.7-0.5c-1.6-1.3-2.8-0.7-4,0.5c-1.1,1-2.2,1.8-3.7,2.1c-1,0.2-1.1,1-1.1,1.9c0.1,3-0.3,3.4-3.4,3.7
		c-1.1,0.1-2.2-0.1-2,1.7c0.1,0.8-0.9,1.2-1.6,1.5c-1.2,0.5-2.3,1-3.4,1.8c-1.4,1.1-1.6,1.9-0.6,3.4c1,1.6,0.9,2.1-0.8,3
		c-0.2,0.1-0.4,0.1-0.5,0.2c-2,1.1-2,1.3-0.1,2.5c1,0.6,1.4,1.6,1.8,2.7c0.6,2,1,4,1.7,6c0.7,1.9,1.3,2.2,3.3,1.6
		c2.7-0.8,5.5-0.5,8.2-0.1c2,0.3,4,0.4,6-0.2c1.3-0.4,2.6-0.3,4-0.3c1,0,1.9,0.3,2.2,1.4c0.2,0.6,0.5,0.7,1.1,0.6
		c1-0.2,2-0.3,2.9-0.2c1.2,0.2,1.8,1.1,1.1,2c-1.9,2.7-1.1,4.9,0.7,7.1c1.7,2,1.5,4.6,2.1,7c0.2,0.6-0.3,1.4-0.9,1.6
		c-0.9,0.3-1.1,0.9-1.1,1.8c0,0.7-0.3,1.4-0.7,1.9c-0.9,1-0.7,2,0.2,2.9c0.4,0.4,0.8,0.9,1.2,1.3c1.1,1.1,1.5,2.5,1.3,4.1
		c-0.3,2.6,0.8,4.5,3,5.9c1.3,0.8,1.6,1.7,0.7,2.9c-0.7,1-0.3,1.7,0.4,2.6c1.4,1.7,2.9,1.9,4.8,1.1c1.1-0.5,2.4-0.6,3.6-0.5
		c5.5,0.3,9.7-2.5,13.4-6.1c0.5-0.5,0.4-1.2,0.3-1.8c0-1,0.3-1.5,1.3-1.5c0.4,0,0.8-0.1,1.1-0.3c1.9-0.9,3-1.7,0.9-3.8
		c-0.6-0.6-1.7-1.1-1.4-1.9c0.3-0.8,1.5-0.5,2.4-0.6c0.8,0,1.4-0.2,1.9-0.9c0.8-1,1.9-1.6,3.2-1.7c0.7-0.1,1.3-0.3,1.5-1
		c0.6-2,0.8-4.1-0.5-5.9c-0.3-0.4-0.5-0.7-0.4-1.2c0.2-1.1,0-2-0.6-2.9c-0.6-0.9,0.2-1.6,0.7-2.2c1.7-1.8,3.7-3.2,5.8-4.5
		c3.5-2.1,6.7-4.5,9.3-7.6c1.1-1.3,1.9-2.7,2.2-4.5c0.1-0.4,0.2-0.9-0.2-1.1c-0.5-0.4-0.6,0.3-0.9,0.5c-2.3,1.5-4.9,1.4-7.4,1.2
		c-1.2-0.1-2.1-0.3-2.3-1.9c-0.1-1.1-1.2-1.8-2.1-2.5c-1.4-1.1-3.1-1.7-4.7-2.5c-1.5-0.8-1.6-1.3-0.3-2.3c1.4-1.2,1.4-1.6-0.1-2.6
		c-0.6-0.5-1.3-0.9-2-1.3c-0.8-0.5-1.9-0.8-0.8-2.1c0.3-0.4,0-1.1-0.3-1.5c-0.5-0.9-1.1-1.8-1.8-3c1.5,0.9,2.9,1.2,4.4,1.5
		c1.8,0.3,2.4,1.4,2.1,3.3c-0.1,0.8-0.2,1.7,0,2.5c0.4,1.4,1.2,2.1,2.7,2.1c1.7-0.1,2.7,0.8,3.2,2.3c0.4,1.1,0.8,2.1,1.2,3.2
		c0.3,0.7,0.7,1.3,1.5,1.2c2.7-0.3,5.4-0.3,8-1.1c1.5-0.4,2.6-1.1,2.3-3c-0.1-0.8,0.3-1.2,1.1-1.2c1.3,0,2.6,0,3.9,0
		c1.9-0.1,3.6-0.7,4.8-2.2c0.6-0.8,0.6-1.3-0.6-1.4c-1.3-0.1-2.2-0.6-2.7-1.9c-0.5-1.5-1.5-1.9-2.7-0.9c-1.3,1.1-2.5,1.1-3.9,0.5
		c-1.1-0.5-2.2-0.8-3.4-0.9c-0.2,0-0.4-0.1-0.6-0.2c-1.1-0.4-2-1.1-2.2-2.4c-0.1-1,0.5-1.6,1.3-1.9c1.2-0.5,2.5-0.8,3.6,0.2
		c0,0,0.1,0.1,0.1,0.1c1.3,2.6,3.5,3.1,6.1,3c2.1,0,4,1.2,6,1.4c0.7,0.1,1.4,0.3,2,0.1c3-0.9,5.4,1.2,8.2,1.4c0.2,0,0.5,0.1,0.5,0.4
		c0,0.3-0.3,0.4-0.5,0.5c-0.1,0-0.2,0-0.3,0.1c-0.7,0.2-2,0.1-1.9,0.9c0.1,1.1,1.4,1.8,2.4,2.5c0.7,0.5,1.3,0,1.8-0.4
		c0.6-0.5,1.1-1,1.8-1.7c0.1,2,0.2,3.8,0.3,5.6c0,0.2,0.1,0.4,0.1,0.6c0.5,1.1,1.3,2,2.1,2.8c1.3,1.4,1.8,3.1,2.3,4.9
		c0.4,1.3,1.2,1.6,2.4,1.2c1-0.4,2-0.8,2.8-1.5c1.6-1.3,1.6-2.2,0.1-3.6c-0.7-0.6-1.4-1.2-2.1-1.8c-1.1-1-1.1-1.5,0.3-2.3
		c1.6-0.9,3.3-1.3,5-1.7c3.2-0.7,3.2-0.6,4.1,2.6c1.1,4.3,1.9,8.7,2.9,13.1c0.2,1.1-0.3,1.3-1.1,1.5c-4.2,1.4-8.4,2.4-12.7,3.2
		c-2.3,0.4-4.6,0.8-7,1.2c-0.3,0.1-0.6,0.1-0.8,0.2c-5.4,1.1-10.9,2-16.3,3.3c-0.2,0.2-0.4,0.3-0.6,0.2c-7.5,2.3-14.4,5.7-20.8,10.2
		l0,0c-4.4,3.6-8.5,7.6-11.8,12.3c-6.5,9.4-10,19.6-8.9,31.2c0.5,4.8,1.9,9.4,4.1,13.7c0.2,0.5,0.6,0.9,1,1.4
		c3.3-5.4,6-10.8,9.4-15.9c0.3,0.1,0.3,0.3,0.3,0.5c-2.2,7.3-3.3,14.9-4.8,22.3c-1.6,8-3.4,16-5,24c-1.4,6.7-2.5,13.4-3.9,20
		C229.7,276,226,284.2,218.1,289.9z M94.6,100.8c0.8,0.9,1.7,1.7,2.5,2.6C95.2,103.7,94.1,102.6,94.6,100.8z M271.3,257.7
		L271.3,257.7c0.8-1.7,2.3-1.7,3.8-1.8C274,256.8,272.6,257,271.3,257.7L271.3,257.7z M413.5,274.4c-0.7,1.3-1.1,2.8-2,4.1l0,0
		c-0.4,1.3-1,2.6-1.9,3.7l0,0c-0.4,1.2-1,2.3-1.9,3.2l0,0c-0.4,1.1-1.1,2-1.8,2.9c0,0.1-0.1,0.2-0.1,0.3c-0.7,1-1.2,2.2-2.2,3
		c-0.1,0.4-0.2,0.7-0.6,0.9c-1.7,2.5-3.7,4.8-5.9,6.9c-0.1,0.1-0.1,0.1-0.2,0.2c-1,1.2-2.1,2.4-3.4,3.3c-0.1,0.1-0.2,0.1-0.2,0.2
		c-2,2.1-4.2,3.9-6.6,5.5c-0.3,0.4-0.7,0.7-1.1,0.8c-0.2,0.4-0.5,0.6-0.9,0.7c0,0.1-0.1,0.1-0.2,0.1c-2.7,2.1-5.6,3.8-8.6,5.2
		c-0.1,0-0.2,0.1-0.3,0.1c-1,0.7-2.1,1.2-3.3,1.6c-0.2,0.1-0.4,0.1-0.5,0.2c-3.2,1.6-6.6,2.9-10.2,3.5l-0.1,0.1l-0.1,0
		c-0.2,0.2-0.4,0.2-0.6,0.2c-0.6,0.3-1.2,0.5-1.8,0.4c-5.3,1.1-10.6,1.1-16,1.2c-2.4,0.1-4.7,0.2-7.1,0.1c-0.3,0-0.6,0-0.9,0
		c-0.6,0-1.2,0-1.8,0c-2.9-0.1-5.8-0.1-8.6-0.8c-0.3,0-0.6-0.1-0.9-0.1c-0.3,0.1-0.6,0.1-0.9-0.2c-0.3,0-0.6-0.1-0.9-0.1
		c-0.4,0-0.8,0.1-1.2-0.2c-0.2,0-0.4-0.1-0.6-0.1c-0.3,0.1-0.7,0-1-0.2l-0.1,0l-0.1-0.1c-4-0.6-7.8-1.6-11.6-2.9
		c-0.6-0.1-1.3-0.2-1.8-0.5c-0.1,0-0.2-0.1-0.3-0.1l0,0c-4-1-7.7-2.6-11.4-4.1c-1.6-0.7-3.2-1.4-4.8-2.1c-0.2-0.1-0.4-0.2-0.6-0.3
		c-0.5,0-1-0.2-1.3-0.6l-0.1,0l-0.1-0.1c-3.5-1.5-7-3-10.4-4.5c-4.1-1.8-8.1-3.6-12.2-5.4c-0.2-0.1-0.3-0.2-0.5-0.2
		c-0.5,0-0.9-0.2-1.2-0.5l0,0c-3.5-1.3-7.1-2.7-10.6-4c-2.1-0.7-4.2-1.4-6.3-2c-0.4-0.1-0.8-0.3-0.9-0.6c-0.2-0.5,0.4-0.6,0.6-0.8
		c6.2-5,12.5-9.7,19.4-13.7c0.2-0.1,0.5-0.2,0.8-0.3l0,0c3-2.1,6.2-3.7,9.4-5.3c2.7-1.4,5.5-2.6,8.4-3.4c0.2,0,0.4-0.1,0.6-0.1
		c2.5-1,5.1-1.6,7.7-1.9c0.3,0,0.6-0.1,0.9-0.1c1.1-0.3,2.1-0.6,3.3-0.5c0.5,0,1-0.1,1.5-0.1c3.8-0.5,7.5-0.5,11.3,0
		c0.6,0,1.2,0.1,1.8,0.1c1.1-0.1,2.2,0.1,3.3,0.5c1,0,2,0.2,2.9,0.4c2.9,0.3,5.8,1.1,8.7,1.8c1.3,0.3,2.5,0.7,3.8,1.1
		c0.2,0.1,0.4,0.1,0.6,0.2c0.1,0,0.2,0.1,0.4,0.1c0.2,0,0.3,0.1,0.5,0.1c4.3,1,8.5,2.5,12.6,3.9c6.2,2.1,12.4,4.4,18.7,6.3
		c0.2,0.1,0.4,0.2,0.7,0.3c0.7,0.1,1.4,0.3,2.1,0.4c3.9,0.6,7.9,1.4,11.8,1.7c0.8,0,1.6,0,2.4,0c0.9-0.4,2,0,2.8-0.7
		c-0.4-0.6-1.2-0.3-1.6-0.8c-0.2-0.1-0.4-0.1-0.6-0.2c-3.8-0.8-7.2-2.7-10.3-4.9c-2.5-1.8-4.9-3.7-7.4-5.6l0-0.1
		c-3.7-2.3-7.3-4.9-11.2-6.9c-6.4-3.2-12.5-7-19.2-9.7c-4.3-1.7-8.7-2.8-13.2-3.7c-0.3-0.1-0.6-0.1-0.9-0.2
		c-1.8-0.3-3.6-0.5-5.3-0.8c-0.3,0-0.6-0.1-0.9-0.1c-0.5,0.1-1,0.1-1.5-0.2c-0.4,0-0.7,0-1.1-0.1c-4.2-0.1-8.5-0.2-12.7,0
		c-0.9-0.1-1.8,0.4-2.7,0.3c-0.5,0-1,0-1.4,0.1c-0.5,0.2-1,0.2-1.5,0.1c-0.4,0.3-0.8,0.2-1.2,0.1c-0.5,0-1,0.1-1.5,0.1
		c-3,0.6-6.1,1.1-9.1,1.7c-1.9,0.4-3.8,0.8-5.7,1.2c0,0-0.1,0.1-0.1,0.1l-0.1,0c-0.1,0-0.2,0.1-0.3,0.1c-0.2,0.1-0.4,0.1-0.6,0.2
		c-1.6,0.5-3.2,0.9-4.8,1.4c-0.2,0-0.3,0.1-0.5,0.1c-3,1.1-6,2.2-9,3.3c-2.1,0.8-4.2,1.7-6.8,2.8c6-14.9,16.9-23.8,31.3-29.1
		c0.6-0.2,1.1-0.3,1.7-0.5c1.5-0.7,3-1.1,4.6-1.4c0.2,0,0.4-0.1,0.6-0.1c0.3-0.2,0.6-0.2,0.9-0.2c0.2,0,0.4-0.1,0.6-0.1
		c0.2-0.2,0.4-0.2,0.6-0.2c0.2,0,0.4-0.1,0.6-0.1c1.2-0.4,2.4-0.5,3.6-0.5c0.3,0,0.6,0,0.9-0.1c3.8-0.7,7.6-0.6,11.5-0.3
		c5.1,0.4,10.1,1.1,14.9,2.6c0.2,0.1,0.4,0.1,0.6,0.2c0.1,0.1,0.2,0.1,0.3,0.2l0,0c3.8,0.8,7.4,2.2,10.9,3.8
		c7.5,3.3,14.3,7.7,20.8,12.5c0.1,0,0.2,0.1,0.3,0.1c2.4,1.7,4.9,3.2,7.1,5.2l0,0c2.5,1.5,4.9,3.2,7.1,5l0,0
		c0.4,0.1,0.7,0.3,0.9,0.6c0.7,0.3,1.3,0.6,1.8,1.2c0.3,0,0.5,0.1,0.6,0.3c1.8,1.1,3.7,2.1,5.4,3.5l0,0c2.2,0.9,4.2,2.1,6.2,3.3
		c0.2,0.1,0.4,0.2,0.6,0.2c2.7,1.1,5.3,2.2,8,3.4c0.5,0.1,1,0.3,1.5,0.4c3.8,1,7.7,1.8,11.7,2.1c2.4,0.2,4.8,0.2,7.2-0.1
		C413.7,273,414.1,273.2,413.5,274.4z"/>
	<polygon class="st0" points="369.7,258.9 369.7,258.8 369.7,258.8 	"/>
</g>
<g>
	<g>
		<g>
			<path d="M522.3,155.6c0,20.5-7.5,37.7-22.4,51.7c-14.9,14-32.7,21-53.4,21c-20.7,0-38.5-7.1-53.5-21.3
				c-15-14.2-22.5-31.6-22.5-52.3c0-20.9,7.4-38.6,22.3-53C407.6,87.2,425.4,80,446.1,80c14.9,0,28.8,4,41.8,12.1
				c13,8.1,22.1,18.9,27.3,32.3h-31.6c-4.2-5.8-9.7-10.4-16.5-13.8c-6.7-3.4-13.8-5.1-21.1-5.1c-12.6,0-22.5,3.1-29.6,9.4
				c-7.2,6.3-12.3,12.6-15.2,19.1c-3,6.5-4.4,13-4.4,19.7c0,6,1.2,11.9,3.6,17.8c2.4,5.8,7.1,12.5,14.3,20
				c7.2,7.5,18,11.2,32.5,11.2c8.3,0,16.4-2.4,24.2-7.1c7.8-4.7,13.7-10.8,17.5-18.3h-59.7v-24.8h92.9V155.6z"/>
			<path d="M585.6,140c-6,0-10.9,1.5-14.7,4.4c-3.8,2.9-6.1,6.1-6.9,9.6c-0.8,3.5-1.2,8-1.2,13.6v57.4h-25.6V118.3h23.3v9.6
				c2.9-4.4,6.3-7.7,10-9.8c3.7-2.1,8.1-3.1,13.3-3.1h1.9V140z"/>
			<path d="M705.4,171c0,1.9-0.2,4.1-0.6,6.5c-0.4,2.4-0.6,4.3-0.8,5.6h-82.9c1.9,6.1,5.5,11,10.6,14.7c5.1,3.7,11,5.5,17.5,5.5
				c10.4,0,18.3-3,23.9-9h28.5c-3.3,9.6-9.9,17.6-19.7,24.2c-9.8,6.6-20.4,9.9-31.7,9.9c-15.4,0-28.6-5.4-39.6-16.3
				c-11-10.9-16.5-24-16.5-39.5c0-15.9,5.5-29.4,16.4-40.7c10.9-11.3,24.3-16.9,40.2-16.9c15.1,0,28.1,5.6,38.8,16.7
				C700.1,142.8,705.4,155.9,705.4,171z M679.5,160.4c-2.1-6.2-5.7-11.1-11-14.8c-5.3-3.6-11.3-5.4-18.1-5.4
				c-6.4,0-12.5,1.9-18.2,5.6c-5.7,3.7-9.5,8.6-11.4,14.6H679.5z"/>
			<path d="M829,171c0,1.9-0.2,4.1-0.6,6.5c-0.4,2.4-0.6,4.3-0.8,5.6h-82.9c1.9,6.1,5.5,11,10.6,14.7c5.1,3.7,11,5.5,17.5,5.5
				c10.4,0,18.3-3,23.9-9h28.5c-3.3,9.6-9.9,17.6-19.7,24.2c-9.8,6.6-20.4,9.9-31.7,9.9c-15.4,0-28.6-5.4-39.6-16.3
				c-11-10.9-16.5-24-16.5-39.5c0-15.9,5.5-29.4,16.4-40.7c10.9-11.3,24.3-16.9,40.2-16.9c15.1,0,28.1,5.6,38.8,16.7
				C823.6,142.8,829,155.9,829,171z M803,160.4c-2.1-6.2-5.7-11.1-11-14.8c-5.3-3.6-11.3-5.4-18.1-5.4c-6.4,0-12.5,1.9-18.2,5.6
				c-5.7,3.7-9.5,8.6-11.4,14.6H803z"/>
			<path d="M940.6,225.1H915V175c0-6.7-0.2-11.8-0.7-15.5c-0.5-3.6-1.6-7-3.6-10.1c-1.9-3.1-4.4-5.4-7.4-6.9c-3-1.5-6.3-2.3-9.8-2.3
				c-3.6,0-7.1,0.9-10.4,2.6c-3.3,1.7-5.8,3.8-7.3,6.3c-1.5,2.5-2.7,5.5-3.4,8.9c-0.7,3.5-1.1,8.6-1.1,15.6v3.3v48.2h-25.6V118.3
				h23.7v9.8c3.3-4.3,7.6-7.6,12.8-9.8c5.2-2.2,10.7-3.3,16.6-3.3c5.6,0,11.1,1.2,16.5,3.5c5.3,2.3,10,5.6,14,9.8l2.9,3.3
				c3.7,5.1,6.1,10.6,7,16.5c1,5.9,1.4,13.2,1.4,21.9V225.1z"/>
			<path d="M1099.9,225.1h-76.4V82.7h76.4v25.6h-50v32.9h47.9v25.6h-47.9v32.7h50V225.1z"/>
			<path d="M1229.4,225.1h-23.7v-14.4c-4,5.5-9.3,9.8-16.1,12.9c-6.7,3.2-13.6,4.8-20.5,4.8c-8.1,0-15.5-1.6-22.1-4.7
				c-6.7-3.1-13.4-8.8-20.2-16.9c-6.8-8.1-10.2-19.8-10.2-35c0-7.7,1.1-14.6,3.2-20.7c2.1-6.1,7-13.7,14.7-22.6
				c7.7-8.9,19.5-13.4,35.4-13.4c15.1,0,27.1,6.2,35.8,18.5v-15.2h23.7V225.1z M1205,171.6c0-9.1-2.9-16.5-8.6-22.5
				c-5.7-5.9-13.1-8.9-22.2-8.9c-9.5,0-17.2,3.1-23.1,9.2c-5.9,6.1-8.9,13.9-8.9,23.3c0,8.7,3.1,15.9,9.2,21.8
				c6.2,5.9,13.6,8.8,22.3,8.8c9.2,0,16.7-3,22.5-9C1202.1,188.3,1205,180.8,1205,171.6z"/>
			<path d="M1297.2,140c-6,0-10.9,1.5-14.7,4.4c-3.8,2.9-6.1,6.1-6.9,9.6c-0.8,3.5-1.2,8-1.2,13.6v57.4h-25.6V118.3h23.3v9.6
				c2.9-4.4,6.3-7.7,10-9.8c3.7-2.1,8.1-3.1,13.3-3.1h1.9V140z"/>
			<path d="M1355.1,141.2h-15.4v83.9h-25.6v-83.9h-12.5v-22.9h12.5V82.7h25.6v35.6h15.4V141.2z"/>
			<path d="M1462.6,225.1H1437v-52c0-13.1-1.9-21.8-5.6-26.2c-3.7-4.4-9.1-6.6-16.2-6.6c-7.6,0-12.9,2.3-15.9,6.8
				c-3,4.5-4.7,8.6-5.1,12.2c-0.4,3.6-0.6,8.3-0.6,14.2v51.6H1368V82.7h25.6v43.7c2.7-3.5,6.7-6.3,11.9-8.3c5.3-2,10.4-3,15.4-3
				c5.8,0,11.5,1.3,17.2,3.8c5.7,2.6,10.6,6.2,14.6,10.9c4,4.7,6.7,10,8,15.9c1.3,6,1.9,13.2,1.9,21.8V225.1z"/>
		</g>
		<g>
			<path d="M482.9,282.8c-1.4,2.7-3.4,4.8-6.2,6.5c-2.7,1.7-5.6,2.5-8.6,2.5c-4.7,0-8.8-1.6-12-4.8c-3.3-3.2-4.9-7.2-4.9-12
				c0-4.6,1.6-8.5,4.9-11.7c3.3-3.2,7.2-4.8,11.8-4.8c3.1,0,6,0.8,8.9,2.3c3.1,1.7,5.1,3.9,6.1,6.5h-3.6c-1.2-1.8-2.8-3.2-4.8-4.2
				c-2.1-1-4.2-1.5-6.5-1.5c-3.6,0-6.8,1.4-9.5,4.1c-2.7,2.7-4,5.8-4,9.4c0,3.7,1.4,7,4.1,9.7c2.7,2.7,5.9,4,9.6,4
				c2.2,0,4.3-0.5,6.3-1.6c2-1.1,3.7-2.5,4.9-4.3H482.9z"/>
			<path d="M564.5,275c0,4.7-1.7,8.6-5,11.9c-3.3,3.3-7.4,4.9-12.1,4.9c-4.6,0-8.6-1.6-11.9-4.8c-3.4-3.2-5.1-7.1-5.1-11.7
				c0-4.7,1.7-8.7,5-11.9s7.3-4.9,12-4.9c4.6,0,8.6,1.6,12,4.8C562.8,266.4,564.5,270.3,564.5,275z M561.3,275
				c0-3.7-1.4-6.9-4.1-9.5c-2.7-2.6-6-3.9-9.8-3.9c-3.8,0-7.1,1.3-9.8,4s-4.1,5.9-4.1,9.7c0,3.7,1.4,6.9,4.1,9.5
				c2.8,2.6,6,3.9,9.7,3.9c3.8,0,7.1-1.3,9.8-4S561.3,278.8,561.3,275z"/>
			<path d="M639.1,291.2l-3.2,0l-19.3-28.4v28.4h-3.2v-32.3l4.3,0l18.1,26.8v-26.8h3.2V291.2z"/>
			<path d="M706.9,282.3c0,2.6-1,4.9-2.9,6.7c-1.9,1.8-4.2,2.7-6.9,2.7c-2.8,0-5.2-0.9-7.1-2.7c-1.9-1.8-2.9-4.1-2.9-6.9h3.4
				c0,1.8,0.6,3.3,1.9,4.6c1.3,1.3,2.8,1.9,4.6,1.9c1.9,0,3.4-0.6,4.7-1.8c1.3-1.2,1.9-2.7,1.9-4.6c0-0.8-0.2-1.7-0.6-2.5
				s-0.9-1.5-1.6-2.1s-1.5-1-2.4-1.4c-0.5-0.2-1.5-0.5-2.8-0.8c-1.3-0.3-2.3-0.6-2.8-0.8c-1.1-0.4-2-0.9-2.7-1.6
				c-0.9-0.7-1.5-1.6-2-2.7c-0.5-1.1-0.7-2.2-0.7-3.4c0-2.6,0.9-4.6,2.6-6.3c1.8-1.6,3.9-2.4,6.5-2.4c2.4,0,4.5,0.8,6.3,2.5
				c1.7,1.7,2.6,3.7,2.6,6.2h-3.4c0-1.6-0.6-3-1.7-4c-1.1-1.1-2.5-1.6-4.2-1.6c-1.5,0-2.9,0.6-3.9,1.7s-1.6,2.4-1.6,4
				c0,1.3,0.4,2.4,1.2,3.3c0.8,0.9,2.5,1.7,5.2,2.4c2,0.6,3,0.9,3.3,1c1.1,0.4,2.1,1,2.9,1.8C705.9,277.3,706.9,279.6,706.9,282.3z"
				/>
			<path d="M769.8,261.8h-7.3v29.4h-3.2v-29.4h-7.4v-2.9h18V261.8z"/>
			<path d="M839,269.5c0,2.6-0.9,4.9-2.8,6.8c-1.9,1.9-4.1,2.9-6.7,2.9l9.1,12l-4.1,0l-11-14.6h1c0.4,0,0.7,0,0.9,0
				c1.5,0,2.7,0,3.5-0.1c0.8-0.1,1.7-0.3,2.6-0.7c1.3-0.6,2.3-1.5,3.1-2.7s1.1-2.5,1.1-3.9c0-1.1-0.3-2.2-0.8-3.2
				c-0.6-1-1.3-1.9-2.2-2.6s-2-1.1-3.2-1.2c-1.2-0.2-2.6-0.3-4.1-0.3h-5.1v29.4h-3.2v-32.3h7.7c2.2,0,4,0.1,5.3,0.2
				c1.3,0.2,2.6,0.6,3.9,1.3c1.6,0.9,2.9,2.2,3.8,3.8C838.6,265.8,839,267.5,839,269.5z"/>
			<path d="M909.3,278.5c0,2-0.1,3.6-0.4,4.8c-0.3,1.6-1,3.1-2,4.4s-2.3,2.3-3.8,3c-1.5,0.7-3.1,1.1-4.8,1.1c-3.5,0-6.3-1.3-8.4-3.8
				c-1-1.2-1.7-2.6-2-4.2c-0.4-1.6-0.5-3.3-0.5-5.2v-19.6h3.2v19.6c0,1.4,0.1,2.6,0.3,3.7c0.2,1.1,0.6,2.2,1.2,3.1
				c0.6,1,1.5,1.8,2.6,2.4c1.1,0.6,2.3,0.9,3.6,0.9c1.2,0,2.3-0.3,3.3-0.8c1.1-0.5,1.9-1.2,2.6-2.2c0.8-1,1.3-2,1.5-3.2
				c0.2-1.1,0.3-2.5,0.3-4v-19.6h3.2V278.5z"/>
			<path d="M990,282.8c-1.4,2.7-3.4,4.8-6.2,6.5c-2.7,1.7-5.6,2.5-8.6,2.5c-4.7,0-8.8-1.6-12-4.8c-3.3-3.2-4.9-7.2-4.9-12
				c0-4.6,1.6-8.5,4.9-11.7c3.3-3.2,7.2-4.8,11.8-4.8c3.1,0,6,0.8,8.9,2.3c3.1,1.7,5.1,3.9,6.1,6.5h-3.6c-1.2-1.8-2.8-3.2-4.8-4.2
				c-2.1-1-4.2-1.5-6.5-1.5c-3.6,0-6.8,1.4-9.5,4.1c-2.7,2.7-4,5.8-4,9.4c0,3.7,1.4,7,4.1,9.7c2.7,2.7,5.9,4,9.6,4
				c2.2,0,4.3-0.5,6.3-1.6c2-1.1,3.7-2.5,4.9-4.3H990z"/>
			<path d="M1053.8,261.8h-7.3v29.4h-3.2v-29.4h-7.4v-2.9h18V261.8z"/>
			<path d="M1104.4,291.2h-3.2v-32.3h3.2V291.2z"/>
			<path d="M1187.4,275c0,4.7-1.7,8.6-5,11.9c-3.3,3.3-7.4,4.9-12.1,4.9c-4.6,0-8.6-1.6-11.9-4.8c-3.4-3.2-5.1-7.1-5.1-11.7
				c0-4.7,1.7-8.7,5-11.9s7.3-4.9,12-4.9c4.6,0,8.6,1.6,12,4.8C1185.7,266.4,1187.4,270.3,1187.4,275z M1184.2,275
				c0-3.7-1.4-6.9-4.1-9.5c-2.7-2.6-6-3.9-9.8-3.9c-3.8,0-7.1,1.3-9.8,4s-4.1,5.9-4.1,9.7c0,3.7,1.4,6.9,4.1,9.5
				c2.8,2.6,6,3.9,9.7,3.9c3.8,0,7.1-1.3,9.8-4S1184.2,278.8,1184.2,275z"/>
			<path d="M1262,291.2l-3.2,0l-19.3-28.4v28.4h-3.2v-32.3l4.3,0l18.1,26.8v-26.8h3.2V291.2z"/>
		</g>
		<g>
			<rect x="1273.2" y="273.2" class="st1" width="189.4" height="2.4"/>
		</g>
	</g>
	<g>
		<g>
			<linearGradient id="SVGID_1_" gradientUnits="userSpaceOnUse" x1="370.4352" y1="154.156" x2="1462.6403" y2="154.156">
				<stop  offset="0" style="stop-color:#9CD542"/>
				<stop  offset="1" style="stop-color:#437A47"/>
			</linearGradient>
			<path class="st2" d="M522.3,155.6c0,20.5-7.5,37.7-22.4,51.7c-14.9,14-32.7,21-53.4,21c-20.7,0-38.5-7.1-53.5-21.3
				c-15-14.2-22.5-31.6-22.5-52.3c0-20.9,7.4-38.6,22.3-53C407.6,87.2,425.4,80,446.1,80c14.9,0,28.8,4,41.8,12.1
				c13,8.1,22.1,18.9,27.3,32.3h-31.6c-4.2-5.8-9.7-10.4-16.5-13.8c-6.7-3.4-13.8-5.1-21.1-5.1c-12.6,0-22.5,3.1-29.6,9.4
				c-7.2,6.3-12.3,12.6-15.2,19.1c-3,6.5-4.4,13-4.4,19.7c0,6,1.2,11.9,3.6,17.8c2.4,5.8,7.1,12.5,14.3,20
				c7.2,7.5,18,11.2,32.5,11.2c8.3,0,16.4-2.4,24.2-7.1c7.8-4.7,13.7-10.8,17.5-18.3h-59.7v-24.8h92.9V155.6z"/>
			
				<linearGradient id="SVGID_00000013195539145786379830000015952272530017138595_" gradientUnits="userSpaceOnUse" x1="370.4352" y1="170.0313" x2="1462.6403" y2="170.0313">
				<stop  offset="0" style="stop-color:#9CD542"/>
				<stop  offset="1" style="stop-color:#437A47"/>
			</linearGradient>
			<path style="fill:url(#SVGID_00000013195539145786379830000015952272530017138595_);" d="M585.6,140c-6,0-10.9,1.5-14.7,4.4
				c-3.8,2.9-6.1,6.1-6.9,9.6c-0.8,3.5-1.2,8-1.2,13.6v57.4h-25.6V118.3h23.3v9.6c2.9-4.4,6.3-7.7,10-9.8c3.7-2.1,8.1-3.1,13.3-3.1
				h1.9V140z"/>
			
				<linearGradient id="SVGID_00000014602195670654730330000008528919711379819648_" gradientUnits="userSpaceOnUse" x1="370.4352" y1="171.667" x2="1462.6403" y2="171.667">
				<stop  offset="0" style="stop-color:#9CD542"/>
				<stop  offset="1" style="stop-color:#437A47"/>
			</linearGradient>
			<path style="fill:url(#SVGID_00000014602195670654730330000008528919711379819648_);" d="M705.4,171c0,1.9-0.2,4.1-0.6,6.5
				c-0.4,2.4-0.6,4.3-0.8,5.6h-82.9c1.9,6.1,5.5,11,10.6,14.7c5.1,3.7,11,5.5,17.5,5.5c10.4,0,18.3-3,23.9-9h28.5
				c-3.3,9.6-9.9,17.6-19.7,24.2c-9.8,6.6-20.4,9.9-31.7,9.9c-15.4,0-28.6-5.4-39.6-16.3c-11-10.9-16.5-24-16.5-39.5
				c0-15.9,5.5-29.4,16.4-40.7c10.9-11.3,24.3-16.9,40.2-16.9c15.1,0,28.1,5.6,38.8,16.7C700.1,142.8,705.4,155.9,705.4,171z
				 M679.5,160.4c-2.1-6.2-5.7-11.1-11-14.8c-5.3-3.6-11.3-5.4-18.1-5.4c-6.4,0-12.5,1.9-18.2,5.6c-5.7,3.7-9.5,8.6-11.4,14.6H679.5
				z"/>
			
				<linearGradient id="SVGID_00000033367645715760129090000010921888691334627759_" gradientUnits="userSpaceOnUse" x1="370.4352" y1="171.667" x2="1462.6403" y2="171.667">
				<stop  offset="0" style="stop-color:#9CD542"/>
				<stop  offset="1" style="stop-color:#437A47"/>
			</linearGradient>
			<path style="fill:url(#SVGID_00000033367645715760129090000010921888691334627759_);" d="M829,171c0,1.9-0.2,4.1-0.6,6.5
				c-0.4,2.4-0.6,4.3-0.8,5.6h-82.9c1.9,6.1,5.5,11,10.6,14.7c5.1,3.7,11,5.5,17.5,5.5c10.4,0,18.3-3,23.9-9h28.5
				c-3.3,9.6-9.9,17.6-19.7,24.2c-9.8,6.6-20.4,9.9-31.7,9.9c-15.4,0-28.6-5.4-39.6-16.3c-11-10.9-16.5-24-16.5-39.5
				c0-15.9,5.5-29.4,16.4-40.7c10.9-11.3,24.3-16.9,40.2-16.9c15.1,0,28.1,5.6,38.8,16.7C823.6,142.8,829,155.9,829,171z M803,160.4
				c-2.1-6.2-5.7-11.1-11-14.8c-5.3-3.6-11.3-5.4-18.1-5.4c-6.4,0-12.5,1.9-18.2,5.6c-5.7,3.7-9.5,8.6-11.4,14.6H803z"/>
			
				<linearGradient id="SVGID_00000121265567716935115410000010789587141795238545_" gradientUnits="userSpaceOnUse" x1="370.4352" y1="170.0313" x2="1462.6403" y2="170.0313">
				<stop  offset="0" style="stop-color:#9CD542"/>
				<stop  offset="1" style="stop-color:#437A47"/>
			</linearGradient>
			<path style="fill:url(#SVGID_00000121265567716935115410000010789587141795238545_);" d="M940.6,225.1H915V175
				c0-6.7-0.2-11.8-0.7-15.5c-0.5-3.6-1.6-7-3.6-10.1c-1.9-3.1-4.4-5.4-7.4-6.9c-3-1.5-6.3-2.3-9.8-2.3c-3.6,0-7.1,0.9-10.4,2.6
				c-3.3,1.7-5.8,3.8-7.3,6.3c-1.5,2.5-2.7,5.5-3.4,8.9c-0.7,3.5-1.1,8.6-1.1,15.6v3.3v48.2h-25.6V118.3h23.7v9.8
				c3.3-4.3,7.6-7.6,12.8-9.8c5.2-2.2,10.7-3.3,16.6-3.3c5.6,0,11.1,1.2,16.5,3.5c5.3,2.3,10,5.6,14,9.8l2.9,3.3
				c3.7,5.1,6.1,10.6,7,16.5c1,5.9,1.4,13.2,1.4,21.9V225.1z"/>
			
				<linearGradient id="SVGID_00000170990974644242436010000013566265353787628731_" gradientUnits="userSpaceOnUse" x1="370.4352" y1="153.8672" x2="1462.6403" y2="153.8672">
				<stop  offset="0" style="stop-color:#9CD542"/>
				<stop  offset="1" style="stop-color:#437A47"/>
			</linearGradient>
			<path style="fill:url(#SVGID_00000170990974644242436010000013566265353787628731_);" d="M1099.9,225.1h-76.4V82.7h76.4v25.6h-50
				v32.9h47.9v25.6h-47.9v32.7h50V225.1z"/>
			
				<linearGradient id="SVGID_00000010298070680043206930000007337169478903263887_" gradientUnits="userSpaceOnUse" x1="370.4352" y1="171.667" x2="1462.6403" y2="171.667">
				<stop  offset="0" style="stop-color:#9CD542"/>
				<stop  offset="1" style="stop-color:#437A47"/>
			</linearGradient>
			<path style="fill:url(#SVGID_00000010298070680043206930000007337169478903263887_);" d="M1229.4,225.1h-23.7v-14.4
				c-4,5.5-9.3,9.8-16.1,12.9c-6.7,3.2-13.6,4.8-20.5,4.8c-8.1,0-15.5-1.6-22.1-4.7c-6.7-3.1-13.4-8.8-20.2-16.9
				c-6.8-8.1-10.2-19.8-10.2-35c0-7.7,1.1-14.6,3.2-20.7c2.1-6.1,7-13.7,14.7-22.6c7.7-8.9,19.5-13.4,35.4-13.4
				c15.1,0,27.1,6.2,35.8,18.5v-15.2h23.7V225.1z M1205,171.6c0-9.1-2.9-16.5-8.6-22.5c-5.7-5.9-13.1-8.9-22.2-8.9
				c-9.5,0-17.2,3.1-23.1,9.2c-5.9,6.1-8.9,13.9-8.9,23.3c0,8.7,3.1,15.9,9.2,21.8c6.2,5.9,13.6,8.8,22.3,8.8c9.2,0,16.7-3,22.5-9
				C1202.1,188.3,1205,180.8,1205,171.6z"/>
			
				<linearGradient id="SVGID_00000162335024955531051190000014770676784714040207_" gradientUnits="userSpaceOnUse" x1="370.4352" y1="170.0313" x2="1462.6403" y2="170.0313">
				<stop  offset="0" style="stop-color:#9CD542"/>
				<stop  offset="1" style="stop-color:#437A47"/>
			</linearGradient>
			<path style="fill:url(#SVGID_00000162335024955531051190000014770676784714040207_);" d="M1297.2,140c-6,0-10.9,1.5-14.7,4.4
				c-3.8,2.9-6.1,6.1-6.9,9.6c-0.8,3.5-1.2,8-1.2,13.6v57.4h-25.6V118.3h23.3v9.6c2.9-4.4,6.3-7.7,10-9.8c3.7-2.1,8.1-3.1,13.3-3.1
				h1.9V140z"/>
			
				<linearGradient id="SVGID_00000015340341740341771380000010649313254277513866_" gradientUnits="userSpaceOnUse" x1="370.4352" y1="153.8672" x2="1462.6403" y2="153.8672">
				<stop  offset="0" style="stop-color:#9CD542"/>
				<stop  offset="1" style="stop-color:#437A47"/>
			</linearGradient>
			<path style="fill:url(#SVGID_00000015340341740341771380000010649313254277513866_);" d="M1355.1,141.2h-15.4v83.9h-25.6v-83.9
				h-12.5v-22.9h12.5V82.7h25.6v35.6h15.4V141.2z"/>
			
				<linearGradient id="SVGID_00000182503476384094058690000009072611997360298164_" gradientUnits="userSpaceOnUse" x1="370.4352" y1="153.8672" x2="1462.6403" y2="153.8672">
				<stop  offset="0" style="stop-color:#9CD542"/>
				<stop  offset="1" style="stop-color:#437A47"/>
			</linearGradient>
			<path style="fill:url(#SVGID_00000182503476384094058690000009072611997360298164_);" d="M1462.6,225.1H1437v-52
				c0-13.1-1.9-21.8-5.6-26.2c-3.7-4.4-9.1-6.6-16.2-6.6c-7.6,0-12.9,2.3-15.9,6.8c-3,4.5-4.7,8.6-5.1,12.2
				c-0.4,3.6-0.6,8.3-0.6,14.2v51.6H1368V82.7h25.6v43.7c2.7-3.5,6.7-6.3,11.9-8.3c5.3-2,10.4-3,15.4-3c5.8,0,11.5,1.3,17.2,3.8
				c5.7,2.6,10.6,6.2,14.6,10.9c4,4.7,6.7,10,8,15.9c1.3,6,1.9,13.2,1.9,21.8V225.1z"/>
		</g>
		<g>
			
				<linearGradient id="SVGID_00000026868683613864464780000001159503666193639562_" gradientUnits="userSpaceOnUse" x1="370.4352" y1="275.0598" x2="1462.6403" y2="275.0598">
				<stop  offset="0" style="stop-color:#9CD542"/>
				<stop  offset="1" style="stop-color:#437A47"/>
			</linearGradient>
			<path style="fill:url(#SVGID_00000026868683613864464780000001159503666193639562_);" d="M482.9,282.8c-1.4,2.7-3.4,4.8-6.2,6.5
				c-2.7,1.7-5.6,2.5-8.6,2.5c-4.7,0-8.8-1.6-12-4.8c-3.3-3.2-4.9-7.2-4.9-12c0-4.6,1.6-8.5,4.9-11.7c3.3-3.2,7.2-4.8,11.8-4.8
				c3.1,0,6,0.8,8.9,2.3c3.1,1.7,5.1,3.9,6.1,6.5h-3.6c-1.2-1.8-2.8-3.2-4.8-4.2c-2.1-1-4.2-1.5-6.5-1.5c-3.6,0-6.8,1.4-9.5,4.1
				c-2.7,2.7-4,5.8-4,9.4c0,3.7,1.4,7,4.1,9.7c2.7,2.7,5.9,4,9.6,4c2.2,0,4.3-0.5,6.3-1.6c2-1.1,3.7-2.5,4.9-4.3H482.9z"/>
			
				<linearGradient id="SVGID_00000141421962655298376190000008574793853524818853_" gradientUnits="userSpaceOnUse" x1="370.4352" y1="275.0598" x2="1462.6403" y2="275.0598">
				<stop  offset="0" style="stop-color:#9CD542"/>
				<stop  offset="1" style="stop-color:#437A47"/>
			</linearGradient>
			<path style="fill:url(#SVGID_00000141421962655298376190000008574793853524818853_);" d="M564.5,275c0,4.7-1.7,8.6-5,11.9
				c-3.3,3.3-7.4,4.9-12.1,4.9c-4.6,0-8.6-1.6-11.9-4.8c-3.4-3.2-5.1-7.1-5.1-11.7c0-4.7,1.7-8.7,5-11.9s7.3-4.9,12-4.9
				c4.6,0,8.6,1.6,12,4.8C562.8,266.4,564.5,270.3,564.5,275z M561.3,275c0-3.7-1.4-6.9-4.1-9.5c-2.7-2.6-6-3.9-9.8-3.9
				c-3.8,0-7.1,1.3-9.8,4s-4.1,5.9-4.1,9.7c0,3.7,1.4,6.9,4.1,9.5c2.8,2.6,6,3.9,9.7,3.9c3.8,0,7.1-1.3,9.8-4S561.3,278.8,561.3,275
				z"/>
			
				<linearGradient id="SVGID_00000144297677155512934770000001064365370881914277_" gradientUnits="userSpaceOnUse" x1="370.4352" y1="275.0601" x2="1462.6403" y2="275.0601">
				<stop  offset="0" style="stop-color:#9CD542"/>
				<stop  offset="1" style="stop-color:#437A47"/>
			</linearGradient>
			<path style="fill:url(#SVGID_00000144297677155512934770000001064365370881914277_);" d="M639.1,291.2l-3.2,0l-19.3-28.4v28.4
				h-3.2v-32.3l4.3,0l18.1,26.8v-26.8h3.2V291.2z"/>
			
				<linearGradient id="SVGID_00000120559380169499546450000018271799556050809771_" gradientUnits="userSpaceOnUse" x1="370.4352" y1="275.0598" x2="1462.6403" y2="275.0598">
				<stop  offset="0" style="stop-color:#9CD542"/>
				<stop  offset="1" style="stop-color:#437A47"/>
			</linearGradient>
			<path style="fill:url(#SVGID_00000120559380169499546450000018271799556050809771_);" d="M706.9,282.3c0,2.6-1,4.9-2.9,6.7
				c-1.9,1.8-4.2,2.7-6.9,2.7c-2.8,0-5.2-0.9-7.1-2.7c-1.9-1.8-2.9-4.1-2.9-6.9h3.4c0,1.8,0.6,3.3,1.9,4.6c1.3,1.3,2.8,1.9,4.6,1.9
				c1.9,0,3.4-0.6,4.7-1.8c1.3-1.2,1.9-2.7,1.9-4.6c0-0.8-0.2-1.7-0.6-2.5s-0.9-1.5-1.6-2.1s-1.5-1-2.4-1.4
				c-0.5-0.2-1.5-0.5-2.8-0.8c-1.3-0.3-2.3-0.6-2.8-0.8c-1.1-0.4-2-0.9-2.7-1.6c-0.9-0.7-1.5-1.6-2-2.7c-0.5-1.1-0.7-2.2-0.7-3.4
				c0-2.6,0.9-4.6,2.6-6.3c1.8-1.6,3.9-2.4,6.5-2.4c2.4,0,4.5,0.8,6.3,2.5c1.7,1.7,2.6,3.7,2.6,6.2h-3.4c0-1.6-0.6-3-1.7-4
				c-1.1-1.1-2.5-1.6-4.2-1.6c-1.5,0-2.9,0.6-3.9,1.7s-1.6,2.4-1.6,4c0,1.3,0.4,2.4,1.2,3.3c0.8,0.9,2.5,1.7,5.2,2.4
				c2,0.6,3,0.9,3.3,1c1.1,0.4,2.1,1,2.9,1.8C705.9,277.3,706.9,279.6,706.9,282.3z"/>
			
				<linearGradient id="SVGID_00000181053812460369056830000013434557721994019474_" gradientUnits="userSpaceOnUse" x1="370.4352" y1="275.0598" x2="1462.6403" y2="275.0598">
				<stop  offset="0" style="stop-color:#9CD542"/>
				<stop  offset="1" style="stop-color:#437A47"/>
			</linearGradient>
			<path style="fill:url(#SVGID_00000181053812460369056830000013434557721994019474_);" d="M769.8,261.8h-7.3v29.4h-3.2v-29.4h-7.4
				v-2.9h18V261.8z"/>
			
				<linearGradient id="SVGID_00000153669717407290847790000010736521375465850291_" gradientUnits="userSpaceOnUse" x1="370.4352" y1="275.0598" x2="1462.6403" y2="275.0598">
				<stop  offset="0" style="stop-color:#9CD542"/>
				<stop  offset="1" style="stop-color:#437A47"/>
			</linearGradient>
			<path style="fill:url(#SVGID_00000153669717407290847790000010736521375465850291_);" d="M839,269.5c0,2.6-0.9,4.9-2.8,6.8
				c-1.9,1.9-4.1,2.9-6.7,2.9l9.1,12l-4.1,0l-11-14.6h1c0.4,0,0.7,0,0.9,0c1.5,0,2.7,0,3.5-0.1c0.8-0.1,1.7-0.3,2.6-0.7
				c1.3-0.6,2.3-1.5,3.1-2.7s1.1-2.5,1.1-3.9c0-1.1-0.3-2.2-0.8-3.2c-0.6-1-1.3-1.9-2.2-2.6s-2-1.1-3.2-1.2
				c-1.2-0.2-2.6-0.3-4.1-0.3h-5.1v29.4h-3.2v-32.3h7.7c2.2,0,4,0.1,5.3,0.2c1.3,0.2,2.6,0.6,3.9,1.3c1.6,0.9,2.9,2.2,3.8,3.8
				C838.6,265.8,839,267.5,839,269.5z"/>
			
				<linearGradient id="SVGID_00000053510782801419207880000015916963719014501254_" gradientUnits="userSpaceOnUse" x1="370.4352" y1="275.3218" x2="1462.6403" y2="275.3218">
				<stop  offset="0" style="stop-color:#9CD542"/>
				<stop  offset="1" style="stop-color:#437A47"/>
			</linearGradient>
			<path style="fill:url(#SVGID_00000053510782801419207880000015916963719014501254_);" d="M909.3,278.5c0,2-0.1,3.6-0.4,4.8
				c-0.3,1.6-1,3.1-2,4.4s-2.3,2.3-3.8,3c-1.5,0.7-3.1,1.1-4.8,1.1c-3.5,0-6.3-1.3-8.4-3.8c-1-1.2-1.7-2.6-2-4.2
				c-0.4-1.6-0.5-3.3-0.5-5.2v-19.6h3.2v19.6c0,1.4,0.1,2.6,0.3,3.7c0.2,1.1,0.6,2.2,1.2,3.1c0.6,1,1.5,1.8,2.6,2.4
				c1.1,0.6,2.3,0.9,3.6,0.9c1.2,0,2.3-0.3,3.3-0.8c1.1-0.5,1.9-1.2,2.6-2.2c0.8-1,1.3-2,1.5-3.2c0.2-1.1,0.3-2.5,0.3-4v-19.6h3.2
				V278.5z"/>
			
				<linearGradient id="SVGID_00000096779739882085462630000012382095072965207482_" gradientUnits="userSpaceOnUse" x1="370.4352" y1="275.0598" x2="1462.6403" y2="275.0598">
				<stop  offset="0" style="stop-color:#9CD542"/>
				<stop  offset="1" style="stop-color:#437A47"/>
			</linearGradient>
			<path style="fill:url(#SVGID_00000096779739882085462630000012382095072965207482_);" d="M990,282.8c-1.4,2.7-3.4,4.8-6.2,6.5
				c-2.7,1.7-5.6,2.5-8.6,2.5c-4.7,0-8.8-1.6-12-4.8c-3.3-3.2-4.9-7.2-4.9-12c0-4.6,1.6-8.5,4.9-11.7c3.3-3.2,7.2-4.8,11.8-4.8
				c3.1,0,6,0.8,8.9,2.3c3.1,1.7,5.1,3.9,6.1,6.5h-3.6c-1.2-1.8-2.8-3.2-4.8-4.2c-2.1-1-4.2-1.5-6.5-1.5c-3.6,0-6.8,1.4-9.5,4.1
				c-2.7,2.7-4,5.8-4,9.4c0,3.7,1.4,7,4.1,9.7c2.7,2.7,5.9,4,9.6,4c2.2,0,4.3-0.5,6.3-1.6c2-1.1,3.7-2.5,4.9-4.3H990z"/>
			
				<linearGradient id="SVGID_00000088127440262569776760000008519210400298326405_" gradientUnits="userSpaceOnUse" x1="370.4352" y1="275.0598" x2="1462.6403" y2="275.0598">
				<stop  offset="0" style="stop-color:#9CD542"/>
				<stop  offset="1" style="stop-color:#437A47"/>
			</linearGradient>
			<path style="fill:url(#SVGID_00000088127440262569776760000008519210400298326405_);" d="M1053.8,261.8h-7.3v29.4h-3.2v-29.4
				h-7.4v-2.9h18V261.8z"/>
			
				<linearGradient id="SVGID_00000062906408666087709630000000597674667425007807_" gradientUnits="userSpaceOnUse" x1="370.4352" y1="275.0598" x2="1462.6403" y2="275.0598">
				<stop  offset="0" style="stop-color:#9CD542"/>
				<stop  offset="1" style="stop-color:#437A47"/>
			</linearGradient>
			<path style="fill:url(#SVGID_00000062906408666087709630000000597674667425007807_);" d="M1104.4,291.2h-3.2v-32.3h3.2V291.2z"/>
			
				<linearGradient id="SVGID_00000078004838504141246740000009373392609305062323_" gradientUnits="userSpaceOnUse" x1="370.4352" y1="275.0598" x2="1462.6403" y2="275.0598">
				<stop  offset="0" style="stop-color:#9CD542"/>
				<stop  offset="1" style="stop-color:#437A47"/>
			</linearGradient>
			<path style="fill:url(#SVGID_00000078004838504141246740000009373392609305062323_);" d="M1187.4,275c0,4.7-1.7,8.6-5,11.9
				c-3.3,3.3-7.4,4.9-12.1,4.9c-4.6,0-8.6-1.6-11.9-4.8c-3.4-3.2-5.1-7.1-5.1-11.7c0-4.7,1.7-8.7,5-11.9s7.3-4.9,12-4.9
				c4.6,0,8.6,1.6,12,4.8C1185.7,266.4,1187.4,270.3,1187.4,275z M1184.2,275c0-3.7-1.4-6.9-4.1-9.5c-2.7-2.6-6-3.9-9.8-3.9
				c-3.8,0-7.1,1.3-9.8,4s-4.1,5.9-4.1,9.7c0,3.7,1.4,6.9,4.1,9.5c2.8,2.6,6,3.9,9.7,3.9c3.8,0,7.1-1.3,9.8-4
				S1184.2,278.8,1184.2,275z"/>
			
				<linearGradient id="SVGID_00000009583682368246581670000016375423369868667530_" gradientUnits="userSpaceOnUse" x1="370.4352" y1="275.0601" x2="1462.6403" y2="275.0601">
				<stop  offset="0" style="stop-color:#9CD542"/>
				<stop  offset="1" style="stop-color:#437A47"/>
			</linearGradient>
			<path style="fill:url(#SVGID_00000009583682368246581670000016375423369868667530_);" d="M1262,291.2l-3.2,0l-19.3-28.4v28.4
				h-3.2v-32.3l4.3,0l18.1,26.8v-26.8h3.2V291.2z"/>
		</g>
		<g>
			
				<linearGradient id="SVGID_00000113313867025048515760000016204419135573740442_" gradientUnits="userSpaceOnUse" x1="370.4352" y1="274.4198" x2="1462.6403" y2="274.4198">
				<stop  offset="0" style="stop-color:#9CD542"/>
				<stop  offset="1" style="stop-color:#437A47"/>
			</linearGradient>
			
				<rect x="1273.2" y="273.2" style="fill:url(#SVGID_00000113313867025048515760000016204419135573740442_);" width="189.4" height="2.4"/>
		</g>
	</g>
</g>
</svg>
