<?xml version="1.0" encoding="UTF-8"?>
<svg xmlns="http://www.w3.org/2000/svg" version="1.1" viewBox="0 0 908 218">
  <defs>
    <style>
      .cls-1 {
        isolation: isolate;
      }

      .cls-2 {
        fill: #fff;
      }

      .cls-3 {
        fill: #0b2033;
      }

      .cls-4 {
        fill: #e03300;
      }
    </style>
  </defs>
  <!-- Generator: Adobe Illustrator 28.6.0, SVG Export Plug-In . SVG Version: 1.2.0 Build 709)  -->
  <g>
    <g id="Layer_1">
      <g id="Layer_1-2" data-name="Layer_1">
        <g class="cls-1">
          <g class="cls-1">
            <path class="cls-3" d="M350.4,40.5l-63.9,121.8-63.5-121.8h36l27.5,58.9,27.6-58.9h36.3Z"/>
            <path class="cls-3" d="M379,149.4c-7.1-3-13.4-7.1-18.7-12.3-5.3-5.2-9.6-11.3-12.6-18.3-3.1-7-4.6-14.5-4.6-22.5s1.5-15.5,4.6-22.5c3.1-7.1,7.3-13.2,12.6-18.4s11.6-9.3,18.7-12.3c7.1-3,14.7-4.6,22.8-4.6s15.8,1.5,22.9,4.6c7.1,3,13.4,7.1,18.7,12.3s9.6,11.3,12.6,18.4c3.1,7.1,4.6,14.6,4.6,22.5s-1.5,15.4-4.6,22.5c-3.1,7-7.3,13.1-12.6,18.3-5.3,5.2-11.6,9.3-18.7,12.3-7.1,3-14.8,4.6-22.9,4.6s-15.7-1.5-22.8-4.6ZM411.4,120.3c3-1.4,5.6-3.2,7.8-5.6,2.2-2.4,4-5.1,5.3-8.2,1.3-3.1,2-6.5,2-10.2s-.7-6.9-2-10.1c-1.3-3.2-3.1-6-5.3-8.3-2.2-2.4-4.8-4.2-7.8-5.6-3-1.4-6.2-2-9.7-2s-6.5.7-9.5,2c-3,1.4-5.6,3.2-7.8,5.6-2.2,2.4-4,5.1-5.3,8.3-1.3,3.2-2,6.6-2,10.1s.7,7.1,2,10.2c1.3,3.1,3.1,5.9,5.3,8.2,2.2,2.4,4.8,4.2,7.8,5.6,3,1.4,6.2,2,9.5,2s6.7-.7,9.7-2Z"/>
            <path class="cls-3" d="M494.6,68.5h-29.2v-28h88.6v28h-29.2v83.4h-30.2v-83.4Z"/>
            <path class="cls-3" d="M566.1,40.5h75.6v28h-45.4v13.4h33.8v27.5h-33.8v13.7h45.4v28.9h-75.6V40.5Z"/>
          </g>
          <g class="cls-1">
            <path class="cls-4" d="M688.5,105.6v46.3h-30.2V36.7l58.4,56.1,58.6-56.1v115.2h-30.2v-46.3l-28.4,29.1-28.3-29.1Z"/>
            <path class="cls-4" d="M799.5,40.5h75.6v28h-45.4v13.4h33.8v27.5h-33.8v13.7h45.4v28.9h-75.6V40.5Z"/>
          </g>
        </g>
        <g id="x3VXXN">
          <g>
            <path class="cls-2" d="M208.2,59.4c-4.3,4.2-8,8-11.9,11.6-2.1,2-2.9,4.1-2.9,7.1,0,36.9,0,73.9,0,110.8,0,3.4-.6,4.7-4.3,4.7-52.8,0-105.6,0-158.4,0s-4.8,0-4.8-5V26.8c0-3.1,1.5-4.6,4.6-4.6,44.6,0,89.2-.2,133.8.2,8.9,0,16.9-1.1,24.3-6.6,4.6-3.5,10.1-5.7,15.4-8.6H11.3v201.6h197V59.4ZM109.1,175.5c1.3-5,2.2-9.4,3.5-13.8,6.4-20.8,17.6-38.9,30.4-56,24.4-32.6,53.3-60.7,84.2-86.6,1.2-1,2.3-1.9,4.2-3.5-11.8,2.8-29.9,11.5-44.2,21.3-33.7,23.1-60.1,53.4-82.2,87.8-.8,1.3-1.7,2.7-2.5,4-.6-.4-.9-.5-1-.6-4.5-6.7-9-13.4-13.5-20.1-2.6-3.8-4.5-8.9-8-10.8-3.6-1.9-8.8-.6-13.2-.6h-14c19,26.7,37.5,52.6,56.3,78.9h0Z"/>
            <path class="cls-3" d="M208.2,59.4v149.2H11.2V7h192.8c-5.3,2.9-10.8,5.2-15.4,8.6-7.4,5.6-15.3,6.7-24.3,6.6-44.6-.3-89.2-.2-133.8-.2s-4.6,1.5-4.6,4.6v161.8q0,5,4.8,5h158.4c3.7,0,4.3-1.3,4.3-4.7,0-36.9,0-73.9,0-110.8,0-3,.8-5.1,2.9-7.1,3.9-3.6,7.6-7.4,11.9-11.6v.2Z"/>
            <path class="cls-4" d="M109.1,175.5c-18.7-26.2-37.2-52.2-56.3-78.9h14c4.5,0,9.7-1.3,13.2.6,3.5,1.9,5.5,7,8,10.8,4.5,6.7,9,13.4,13.5,20.1.1.2.4.3,1,.6.8-1.3,1.6-2.7,2.5-4,22.1-34.5,48.5-64.8,82.2-87.8,14.3-9.8,32.4-18.5,44.2-21.3-1.9,1.6-3.1,2.5-4.2,3.5-31,25.9-59.9,54-84.2,86.6-12.8,17.1-24,35.2-30.4,56-1.3,4.3-2.3,8.8-3.5,13.8h0Z"/>
          </g>
        </g>
        <g class="cls-1">
          <g class="cls-1">
            <path class="cls-4" d="M230.7,174.1h2.4l12.3,28.4,12.5-28.4h2.4l-13.8,30.9h-2.3l-13.5-30.9Z"/>
            <path class="cls-4" d="M264.3,192.5c0-6.4,2.4-12.7,12-12.7s12.1,6.3,12.1,12.7-2.5,12.7-12.1,12.7-12-6.2-12-12.7ZM276.2,203.4c8,0,10-5,10-10.9s-1.9-10.8-9.9-10.8-9.9,5.1-9.9,10.8,1.9,10.9,9.8,10.9Z"/>
            <path class="cls-4" d="M296.9,197.7v-15.8h-3v-1.5l3-.4v-5.8h2.1v5.9h9v1.8h-9v15.8c0,4,1.8,5.8,7,5.8s1.3,0,2,0v1.8c-.6,0-1.3,0-1.8,0-6.6,0-9.3-2.1-9.3-7.6Z"/>
            <path class="cls-4" d="M313.4,192.6c0-6.6,2.7-12.7,12.2-12.7s11.3,6.3,11.1,13.8h-21c.2,5.5,2.7,9.9,9.9,9.9s8.4-3.1,8.8-6.3h2.2c-.4,4.2-3.5,8.1-11,8.1s-12.2-6.1-12.2-12.7ZM334.5,191.7c0-5.8-2.4-10.2-9.1-10.2s-9.7,4.7-9.7,10.2h18.8Z"/>
            <path class="cls-4" d="M361.2,174.1h3.2l13.8,28.4,13.8-28.4h3.2v30.9h-2.2v-28.5l-13.7,28.5h-2.2l-13.8-28.5v28.5h-2.2v-30.9Z"/>
            <path class="cls-4" d="M404.5,198.2c0-4.5,3-6.1,9.9-7l10.4-1.4c-.1-5.3-1.6-8.2-9.1-8.2s-8.5,3-8.5,7.1h-2.1c0-5,2.4-8.9,10.6-8.9s11.1,4.1,11.1,11v14.2h-1.3l-.4-6.3c-1.5,4.1-6,6.6-11.3,6.6s-9.3-2.2-9.3-7.1ZM414.2,203.6c5.5,0,10.2-3.1,10.5-9.7v-2.4c0,0-10,1.4-10,1.4-5.9.8-8,2.1-8,5.2s3.1,5.5,7.5,5.5Z"/>
            <path class="cls-4" d="M436,180.1h1.2l.5,5.4c1-3.4,4.1-5.6,10-5.6,8.7,0,10.2,4.6,10.2,11.9v13.3h-2v-13.5c0-6.3-1.3-9.9-8.7-9.9s-9.1,3.8-9.1,9.9v13.5h-2.2v-24.9Z"/>
            <path class="cls-4" d="M466.4,198.2c0-4.5,3-6.1,9.9-7l10.4-1.4c-.1-5.3-1.6-8.2-9.1-8.2s-8.5,3-8.5,7.1h-2.1c0-5,2.4-8.9,10.6-8.9s11.1,4.1,11.1,11v14.2h-1.3l-.4-6.3c-1.5,4.1-6,6.6-11.3,6.6s-9.3-2.2-9.3-7.1ZM476.1,203.6c5.5,0,10.2-3.1,10.5-9.7v-2.4c0,0-10,1.4-10,1.4-5.9.8-8,2.1-8,5.2s3.1,5.5,7.5,5.5Z"/>
            <path class="cls-4" d="M496.3,206.3h2.2c0,4.5,1.7,7.4,10,7.4s9.4-2.5,9.4-5-2.4-3.9-9.4-4.9c-7.1-1.1-11.7-1.4-11.7-4.5s1.2-2.8,3.7-3.3c-2.5-1.6-3.3-4.1-3.3-7,0-5.2,2.3-9,11.1-9h10.8v1.2l-4.8.3c3.4,1.1,4.5,4,4.5,7.7s-2.1,8.9-10.4,8.9-5.4-.6-6.2-1c-2.7.3-3.2,1.1-3.2,1.9,0,1.9,3.4,2.1,10.1,3,7.5,1.1,11.1,2.2,11.1,6.4s-2.7,7-11.7,7-12.1-3.6-12.1-9.3ZM508,196.5c6.9,0,8.5-3,8.5-7.5s-1.4-7.2-8.5-7.2-8.6,3-8.6,7.3,1.6,7.4,8.6,7.4Z"/>
            <path class="cls-4" d="M526,192.6c0-6.6,2.7-12.7,12.2-12.7s11.3,6.3,11.1,13.8h-21c.2,5.5,2.7,9.9,9.9,9.9s8.4-3.1,8.8-6.3h2.2c-.4,4.2-3.5,8.1-11,8.1s-12.2-6.1-12.2-12.7ZM547.1,191.7c0-5.8-2.4-10.2-9.1-10.2s-9.7,4.7-9.7,10.2h18.8Z"/>
            <path class="cls-4" d="M557.5,180.1h1.3l.5,4.5c.9-2.8,3.3-4.7,8.1-4.7s6.9,2.2,7.7,5.7c.7-3.4,3.1-5.7,8.2-5.7s8.3,4.4,8.3,10.8v14.4h-2.2v-14.5c0-5.6-1.2-8.9-6.8-8.9s-7,3.2-7,8.9v14.5h-2.2v-14.5c0-5.6-1.3-8.9-6.8-8.9s-7,3.2-7,8.9v14.5h-2.2v-24.9Z"/>
            <path class="cls-4" d="M599.8,192.6c0-6.6,2.7-12.7,12.2-12.7s11.3,6.3,11.1,13.8h-21c.2,5.5,2.7,9.9,9.9,9.9s8.4-3.1,8.8-6.3h2.2c-.4,4.2-3.5,8.1-11,8.1s-12.2-6.1-12.2-12.7ZM620.8,191.7c0-5.8-2.4-10.2-9.1-10.2s-9.7,4.7-9.7,10.2h18.8Z"/>
            <path class="cls-4" d="M631.2,180.1h1.2l.5,5.4c1-3.4,4.1-5.6,10-5.6,8.7,0,10.2,4.6,10.2,11.9v13.3h-2v-13.5c0-6.3-1.3-9.9-8.7-9.9s-9.1,3.8-9.1,9.9v13.5h-2.2v-24.9Z"/>
            <path class="cls-4" d="M662.4,197.7v-15.8h-3v-1.5l3-.4v-5.8h2.1v5.9h9v1.8h-9v15.8c0,4,1.8,5.8,7,5.8s1.3,0,2,0v1.8c-.6,0-1.3,0-1.8,0-6.6,0-9.3-2.1-9.3-7.6Z"/>
            <path class="cls-4" d="M696.3,194h2.2c.1,5.3,2.7,9.4,11.7,9.4s10.2-3.3,10.2-6.4c0-5.2-5.2-5.7-11.3-6.8-5.5-1-11.5-2-11.5-8.3s4.6-8.1,11.6-8.1,12.9,3.3,12.9,10.8h-2.1c-.1-6.3-4.1-8.9-10.9-8.9s-9.4,1.8-9.4,6.1,4.9,5.7,10.1,6.6c6.9,1.2,12.7,2,12.7,8.4s-2.6,8.4-12.5,8.4-13.8-5-13.8-11.3Z"/>
            <path class="cls-4" d="M731,206.8h2.1c0,4,1.6,6.4,9,6.4s9-4.1,9-8.2v-5c-1.1,3.2-3.7,5.2-9.5,5.2-8.7,0-10.3-4.5-10.3-11.8v-13.4h2.1v13.6c0,6.3,1.2,9.8,8.7,9.8s9-3.5,9-9.8v-13.5h2.1v24.9c0,4.8-1.7,9.9-11.1,9.9s-11.1-3.1-11.1-8.1Z"/>
            <path class="cls-4" d="M761.4,195.6h2.1c0,5.2,2.8,7.9,9.4,7.9s8.3-2.6,8.3-5c0-4-3.5-4.6-9.7-5.5-5.3-.8-9.5-1.6-9.5-6.5s2.3-6.7,10.2-6.7,10.5,3.8,10.5,9.2h-2c0-4.4-2.2-7.5-8.5-7.5s-8.1,2.1-8.1,4.9,3.6,4.1,8.4,4.9c6.2.9,10.7,1.9,10.7,7s-2.9,6.9-10.3,6.9-11.5-3.2-11.5-9.7Z"/>
            <path class="cls-4" d="M791.7,197.7v-15.8h-3v-1.5l3-.4v-5.8h2.1v5.9h9v1.8h-9v15.8c0,4,1.8,5.8,7,5.8s1.3,0,2,0v1.8c-.6,0-1.3,0-1.8,0-6.6,0-9.3-2.1-9.3-7.6Z"/>
            <path class="cls-4" d="M808.2,192.6c0-6.6,2.7-12.7,12.2-12.7s11.3,6.3,11.1,13.8h-21c.2,5.5,2.7,9.9,9.9,9.9s8.4-3.1,8.8-6.3h2.2c-.4,4.2-3.5,8.1-11,8.1s-12.2-6.1-12.2-12.7ZM829.3,191.7c0-5.8-2.4-10.2-9.1-10.2s-9.7,4.7-9.7,10.2h18.8Z"/>
            <path class="cls-4" d="M839.6,180.1h1.3l.5,4.5c.9-2.8,3.3-4.7,8.1-4.7s6.9,2.2,7.7,5.7c.7-3.4,3.1-5.7,8.2-5.7s8.3,4.4,8.3,10.8v14.4h-2.2v-14.5c0-5.6-1.2-8.9-6.8-8.9s-7,3.2-7,8.9v14.5h-2.2v-14.5c0-5.6-1.3-8.9-6.8-8.9s-7,3.2-7,8.9v14.5h-2.2v-24.9Z"/>
          </g>
        </g>
        <g>
          <path class="cls-3" d="M880.5,18.6h-3v-1.3h7.1v1.3h-3v9.6h-1.2v-9.6h0Z"/>
          <path class="cls-3" d="M885.9,17.3h1.8l2.1,7.7.2.8c0,.5.2.7.2.8h0c0-.3.2-.7.3-1l.2-.7,2.1-7.6h1.6v10.9h-1.1v-9.1h0l-2.6,9.1h-1.1l-2.5-9.3h0v9.3h-1.1v-10.9h0Z"/>
        </g>
        <path class="cls-3" d="M886,35.1c-6.8,0-12.3-5.5-12.3-12.3s5.5-12.3,12.3-12.3,12.3,5.5,12.3,12.3-5.5,12.3-12.3,12.3ZM886,11.7c-6.1,0-11.1,5-11.1,11.1s5,11.1,11.1,11.1,11.1-5,11.1-11.1-5-11.1-11.1-11.1Z"/>
      </g>
    </g>
  </g>
</svg>